EncodeSansExpanded-Thin.ufo
<glyph name="quotedbl" format="2">
  <advance width="738.0"/>
  <unicode hex="0022"/>
  <outline>
    <contour>
      <point x="194.0" y="956.0" type="line"/>
      <point x="234.0" y="956.0" type="line"/>
      <point x="254.0" y="1616.0" type="line"/>
      <point x="174.0" y="1616.0" type="line"/>
    </contour>
    <contour>
      <point x="504.0" y="956.0" type="line"/>
      <point x="544.0" y="956.0" type="line"/>
      <point x="564.0" y="1616.0" type="line"/>
      <point x="484.0" y="1616.0" type="line"/>
    </contour>
  </outline>
</glyph>
<glyph name="parenright" format="2">
  <advance width="706.0"/>
  <unicode hex="0029"/>
  <outline>
    <contour>
      <point x="78.0" y="-440.0" type="curve"/>
      <point x="166.0" y="-440.0" type="line"/>
      <point x="432.0" y="-142.0"/>
      <point x="548.0" y="212.0"/>
      <point x="548.0" y="588.0" type="curve" smooth="yes"/>
      <point x="548.0" y="964.0"/>
      <point x="432.0" y="1318.0"/>
      <point x="166.0" y="1616.0" type="curve"/>
      <point x="78.0" y="1616.0" type="line"/>
      <point x="366.0" y="1302.0"/>
      <point x="476.0" y="958.0"/>
      <point x="476.0" y="588.0" type="curve" smooth="yes"/>
      <point x="476.0" y="218.0"/>
      <point x="366.0" y="-126.0"/>
    </contour>
  </outline>
</glyph>
<glyph name="zero" format="2">
  <advance width="1360.0"/>
  <unicode hex="0030"/>
  <note>
600
</note>
  <outline>
    <contour>
      <point x="680.0" y="-18.0" type="curve" smooth="yes"/>
      <point x="1000.0" y="-18.0"/>
      <point x="1212.0" y="182.0"/>
      <point x="1212.0" y="740.0" type="curve" smooth="yes"/>
      <point x="1212.0" y="1298.0"/>
      <point x="1006.0" y="1498.0"/>
      <point x="680.0" y="1498.0" type="curve" smooth="yes"/>
      <point x="354.0" y="1498.0"/>
      <point x="148.0" y="1298.0"/>
      <point x="148.0" y="740.0" type="curve" smooth="yes"/>
      <point x="148.0" y="182.0"/>
      <point x="360.0" y="-18.0"/>
    </contour>
    <contour>
      <point x="680.0" y="48.0" type="curve" smooth="yes"/>
      <point x="404.0" y="48.0"/>
      <point x="220.0" y="206.0"/>
      <point x="220.0" y="744.0" type="curve" smooth="yes"/>
      <point x="220.0" y="1274.0"/>
      <point x="404.0" y="1432.0"/>
      <point x="680.0" y="1432.0" type="curve" smooth="yes"/>
      <point x="956.0" y="1432.0"/>
      <point x="1140.0" y="1274.0"/>
      <point x="1140.0" y="736.0" type="curve" smooth="yes"/>
      <point x="1140.0" y="206.0"/>
      <point x="956.0" y="48.0"/>
    </contour>
  </outline>
</glyph>
<glyph name="three" format="2">
  <advance width="1080.0"/>
  <unicode hex="0033"/>
  <outline>
    <contour>
      <point x="446.0" y="-18.0" type="curve" smooth="yes"/>
      <point x="826.0" y="-18.0"/>
      <point x="1000.0" y="142.0"/>
      <point x="1000.0" y="404.0" type="curve" smooth="yes"/>
      <point x="1000.0" y="622.0"/>
      <point x="854.0" y="758.0"/>
      <point x="584.0" y="784.0" type="curve"/>
      <point x="584.0" y="754.0" type="line"/>
      <point x="802.0" y="796.0"/>
      <point x="948.0" y="926.0"/>
      <point x="948.0" y="1132.0" type="curve" smooth="yes"/>
      <point x="948.0" y="1360.0"/>
      <point x="778.0" y="1498.0"/>
      <point x="486.0" y="1498.0" type="curve" smooth="yes"/>
      <point x="356.0" y="1498.0"/>
      <point x="234.0" y="1480.0"/>
      <point x="118.0" y="1444.0" type="curve"/>
      <point x="118.0" y="1376.0" type="line"/>
      <point x="244.0" y="1416.0"/>
      <point x="366.0" y="1432.0"/>
      <point x="484.0" y="1432.0" type="curve" smooth="yes"/>
      <point x="736.0" y="1432.0"/>
      <point x="878.0" y="1320.0"/>
      <point x="878.0" y="1130.0" type="curve" smooth="yes"/>
      <point x="878.0" y="900.0"/>
      <point x="700.0" y="794.0"/>
      <point x="382.0" y="794.0" type="curve" smooth="yes"/>
      <point x="306.0" y="794.0" type="line"/>
      <point x="306.0" y="728.0" type="line"/>
      <point x="510.0" y="728.0" type="line" smooth="yes"/>
      <point x="792.0" y="728.0"/>
      <point x="930.0" y="612.0"/>
      <point x="930.0" y="406.0" type="curve" smooth="yes"/>
      <point x="930.0" y="178.0"/>
      <point x="782.0" y="48.0"/>
      <point x="450.0" y="48.0" type="curve" smooth="yes"/>
      <point x="330.0" y="48.0"/>
      <point x="196.0" y="70.0"/>
      <point x="64.0" y="114.0" type="curve"/>
      <point x="64.0" y="46.0" type="line"/>
      <point x="182.0" y="4.0"/>
      <point x="322.0" y="-18.0"/>
    </contour>
  </outline>
</glyph>
<glyph name="four" format="2">
  <advance width="1262.0"/>
  <unicode hex="0034"/>
  <outline>
    <contour>
      <point x="58.0" y="384.0" type="line"/>
      <point x="1212.0" y="384.0" type="line"/>
      <point x="1212.0" y="448.0" type="line"/>
      <point x="116.0" y="448.0" type="line"/>
      <point x="134.0" y="422.0" type="line"/>
      <point x="828.0" y="1480.0" type="line"/>
      <point x="750.0" y="1480.0" type="line"/>
      <point x="58.0" y="424.0" type="line"/>
    </contour>
    <contour>
      <point x="904.0" y="0.0" type="line"/>
      <point x="972.0" y="0.0" type="line"/>
      <point x="972.0" y="980.0" type="line"/>
      <point x="918.0" y="980.0" type="line"/>
      <point x="904.0" y="448.0" type="line"/>
    </contour>
  </outline>
</glyph>
<glyph name="five" format="2">
  <advance width="1098.0"/>
  <unicode hex="0035"/>
  <outline>
    <contour>
      <point x="474.0" y="-18.0" type="curve" smooth="yes"/>
      <point x="838.0" y="-18.0"/>
      <point x="1028.0" y="132.0"/>
      <point x="1028.0" y="412.0" type="curve" smooth="yes"/>
      <point x="1028.0" y="670.0"/>
      <point x="856.0" y="802.0"/>
      <point x="384.0" y="830.0" type="curve" smooth="yes"/>
      <point x="180.0" y="842.0" type="line"/>
      <point x="232.0" y="798.0" type="line"/>
      <point x="278.0" y="1436.0" type="line"/>
      <point x="240.0" y="1416.0" type="line"/>
      <point x="966.0" y="1416.0" type="line"/>
      <point x="966.0" y="1480.0" type="line"/>
      <point x="214.0" y="1480.0" type="line"/>
      <point x="162.0" y="776.0" type="line"/>
      <point x="366.0" y="764.0" type="line" smooth="yes"/>
      <point x="810.0" y="738.0"/>
      <point x="958.0" y="632.0"/>
      <point x="958.0" y="412.0" type="curve" smooth="yes"/>
      <point x="958.0" y="168.0"/>
      <point x="798.0" y="48.0"/>
      <point x="478.0" y="48.0" type="curve" smooth="yes"/>
      <point x="354.0" y="48.0"/>
      <point x="220.0" y="70.0"/>
      <point x="92.0" y="114.0" type="curve"/>
      <point x="92.0" y="46.0" type="line"/>
      <point x="208.0" y="6.0"/>
      <point x="348.0" y="-18.0"/>
    </contour>
  </outline>
</glyph>
<glyph name="seven" format="2">
  <advance width="1000.0"/>
  <unicode hex="0037"/>
  <outline>
    <contour>
      <point x="202.0" y="0.0" type="line"/>
      <point x="278.0" y="0.0" type="line"/>
      <point x="938.0" y="1440.0" type="line"/>
      <point x="938.0" y="1480.0" type="line"/>
      <point x="16.0" y="1480.0" type="line"/>
      <point x="16.0" y="1416.0" type="line"/>
      <point x="880.0" y="1416.0" type="line"/>
      <point x="864.0" y="1442.0" type="line"/>
    </contour>
  </outline>
</glyph>
<glyph name="nine" format="2">
  <advance width="1234.0"/>
  <unicode hex="0039"/>
  <outline>
    <contour>
      <point x="538.0" y="1498.0" type="curve" smooth="yes"/>
      <point x="270.0" y="1498.0"/>
      <point x="78.0" y="1358.0"/>
      <point x="78.0" y="1078.0" type="curve" smooth="yes"/>
      <point x="78.0" y="796.0"/>
      <point x="264.0" y="652.0"/>
      <point x="584.0" y="652.0" type="curve" smooth="yes"/>
      <point x="742.0" y="652.0"/>
      <point x="916.0" y="702.0"/>
      <point x="1026.0" y="784.0" type="curve"/>
      <point x="1026.0" y="858.0" type="line"/>
      <point x="912.0" y="760.0"/>
      <point x="724.0" y="718.0"/>
      <point x="588.0" y="718.0" type="curve" smooth="yes"/>
      <point x="304.0" y="718.0"/>
      <point x="148.0" y="836.0"/>
      <point x="148.0" y="1080.0" type="curve" smooth="yes"/>
      <point x="148.0" y="1322.0"/>
      <point x="308.0" y="1432.0"/>
      <point x="538.0" y="1432.0" type="curve" smooth="yes"/>
      <point x="836.0" y="1432.0"/>
      <point x="1010.0" y="1256.0"/>
      <point x="1010.0" y="788.0" type="curve" smooth="yes"/>
      <point x="1010.0" y="776.0" type="line" smooth="yes"/>
      <point x="1010.0" y="282.0"/>
      <point x="816.0" y="48.0"/>
      <point x="436.0" y="48.0" type="curve" smooth="yes"/>
      <point x="350.0" y="48.0"/>
      <point x="234.0" y="60.0"/>
      <point x="146.0" y="96.0" type="curve"/>
      <point x="146.0" y="28.0" type="line"/>
      <point x="232.0" y="-6.0"/>
      <point x="340.0" y="-18.0"/>
      <point x="438.0" y="-18.0" type="curve" smooth="yes"/>
      <point x="856.0" y="-18.0"/>
      <point x="1080.0" y="246.0"/>
      <point x="1080.0" y="786.0" type="curve" smooth="yes"/>
      <point x="1080.0" y="1294.0"/>
      <point x="876.0" y="1498.0"/>
    </contour>
  </outline>
</glyph>
<glyph name="colon" format="2">
  <advance width="452.0"/>
  <unicode hex="003A"/>
  <outline>
    <contour>
      <point x="226.0" y="-10.0" type="curve" smooth="yes"/>
      <point x="262.0" y="-10.0"/>
      <point x="288.0" y="14.0"/>
      <point x="288.0" y="52.0" type="curve" smooth="yes"/>
      <point x="288.0" y="90.0"/>
      <point x="262.0" y="116.0"/>
      <point x="226.0" y="116.0" type="curve" smooth="yes"/>
      <point x="190.0" y="116.0"/>
      <point x="164.0" y="90.0"/>
      <point x="164.0" y="52.0" type="curve" smooth="yes"/>
      <point x="164.0" y="14.0"/>
      <point x="190.0" y="-10.0"/>
    </contour>
    <contour>
      <point x="226.0" y="964.0" type="curve" smooth="yes"/>
      <point x="262.0" y="964.0"/>
      <point x="288.0" y="988.0"/>
      <point x="288.0" y="1026.0" type="curve" smooth="yes"/>
      <point x="288.0" y="1064.0"/>
      <point x="262.0" y="1090.0"/>
      <point x="226.0" y="1090.0" type="curve" smooth="yes"/>
      <point x="190.0" y="1090.0"/>
      <point x="164.0" y="1064.0"/>
      <point x="164.0" y="1026.0" type="curve" smooth="yes"/>
      <point x="164.0" y="988.0"/>
      <point x="190.0" y="964.0"/>
    </contour>
  </outline>
</glyph>
<glyph name="semicolon" format="2">
  <advance width="452.0"/>
  <unicode hex="003B"/>
  <outline>
    <contour>
      <point x="176.0" y="-300.0" type="curve"/>
      <point x="220.0" y="-300.0" type="line"/>
      <point x="258.0" y="-206.0"/>
      <point x="288.0" y="-92.0"/>
      <point x="288.0" y="32.0" type="curve" smooth="yes"/>
      <point x="288.0" y="92.0"/>
      <point x="262.0" y="116.0"/>
      <point x="224.0" y="116.0" type="curve" smooth="yes"/>
      <point x="188.0" y="116.0"/>
      <point x="164.0" y="90.0"/>
      <point x="164.0" y="54.0" type="curve" smooth="yes"/>
      <point x="164.0" y="16.0"/>
      <point x="190.0" y="-10.0"/>
      <point x="226.0" y="-10.0" type="curve" smooth="yes"/>
      <point x="238.0" y="-10.0" type="line"/>
      <point x="234.0" y="12.0" type="line"/>
      <point x="234.0" y="-90.0"/>
      <point x="212.0" y="-186.0"/>
    </contour>
    <contour>
      <point x="226.0" y="964.0" type="curve" smooth="yes"/>
      <point x="262.0" y="964.0"/>
      <point x="288.0" y="988.0"/>
      <point x="288.0" y="1026.0" type="curve" smooth="yes"/>
      <point x="288.0" y="1064.0"/>
      <point x="262.0" y="1090.0"/>
      <point x="226.0" y="1090.0" type="curve" smooth="yes"/>
      <point x="190.0" y="1090.0"/>
      <point x="164.0" y="1064.0"/>
      <point x="164.0" y="1026.0" type="curve" smooth="yes"/>
      <point x="164.0" y="988.0"/>
      <point x="190.0" y="964.0"/>
    </contour>
  </outline>
</glyph>
<glyph name="question" format="2">
  <advance width="946.0"/>
  <unicode hex="003F"/>
  <outline>
    <contour>
      <point x="414.0" y="300.0" type="line"/>
      <point x="462.0" y="300.0" type="line"/>
      <point x="472.0" y="676.0" type="line"/>
      <point x="780.0" y="786.0"/>
      <point x="878.0" y="912.0"/>
      <point x="878.0" y="1132.0" type="curve" smooth="yes"/>
      <point x="878.0" y="1360.0"/>
      <point x="708.0" y="1498.0"/>
      <point x="416.0" y="1498.0" type="curve" smooth="yes"/>
      <point x="286.0" y="1498.0"/>
      <point x="164.0" y="1480.0"/>
      <point x="48.0" y="1444.0" type="curve"/>
      <point x="48.0" y="1376.0" type="line"/>
      <point x="174.0" y="1416.0"/>
      <point x="296.0" y="1432.0"/>
      <point x="414.0" y="1432.0" type="curve" smooth="yes"/>
      <point x="666.0" y="1432.0"/>
      <point x="808.0" y="1320.0"/>
      <point x="808.0" y="1130.0" type="curve" smooth="yes"/>
      <point x="808.0" y="932.0"/>
      <point x="708.0" y="824.0"/>
      <point x="402.0" y="724.0" type="curve"/>
    </contour>
    <contour>
      <point x="438.0" y="-10.0" type="curve" smooth="yes"/>
      <point x="476.0" y="-10.0"/>
      <point x="500.0" y="16.0"/>
      <point x="500.0" y="52.0" type="curve" smooth="yes"/>
      <point x="500.0" y="90.0"/>
      <point x="474.0" y="116.0"/>
      <point x="438.0" y="116.0" type="curve" smooth="yes"/>
      <point x="402.0" y="116.0"/>
      <point x="376.0" y="90.0"/>
      <point x="376.0" y="52.0" type="curve" smooth="yes"/>
      <point x="376.0" y="16.0"/>
      <point x="402.0" y="-10.0"/>
    </contour>
  </outline>
</glyph>
<glyph name="A" format="2">
  <advance width="1442.0"/>
  <unicode hex="0041"/>
  <note>
520
</note>
  <anchor x="722.0" y="0.0" name="bottom"/>
  <anchor x="1394.0" y="0.0" name="ogonek"/>
  <anchor x="722.0" y="1520.0" name="top"/>
  <outline>
    <contour>
      <point x="48.0" y="0.0" type="line"/>
      <point x="122.0" y="0.0" type="line"/>
      <point x="732.0" y="1440.0" type="line"/>
      <point x="708.0" y="1440.0" type="line"/>
      <point x="1318.0" y="0.0" type="line"/>
      <point x="1394.0" y="0.0" type="line"/>
      <point x="764.0" y="1480.0" type="line"/>
      <point x="678.0" y="1480.0" type="line"/>
    </contour>
    <contour>
      <point x="322.0" y="528.0" type="line"/>
      <point x="1120.0" y="528.0" type="line"/>
      <point x="1100.0" y="594.0" type="line"/>
      <point x="342.0" y="594.0" type="line"/>
    </contour>
  </outline>
</glyph>
<glyph name="B" format="2">
  <advance width="1342.0"/>
  <unicode hex="0042"/>
  <anchor x="684.0" y="0.0" name="bottom"/>
  <anchor x="684.0" y="1480.0" name="top"/>
  <outline>
    <contour>
      <point x="602.0" y="-10.0" type="curve" smooth="yes"/>
      <point x="1072.0" y="-10.0"/>
      <point x="1250.0" y="132.0"/>
      <point x="1250.0" y="400.0" type="curve" smooth="yes"/>
      <point x="1250.0" y="598.0"/>
      <point x="1142.0" y="744.0"/>
      <point x="872.0" y="770.0" type="curve"/>
      <point x="866.0" y="754.0" type="line"/>
      <point x="1110.0" y="786.0"/>
      <point x="1206.0" y="920.0"/>
      <point x="1206.0" y="1106.0" type="curve" smooth="yes"/>
      <point x="1206.0" y="1364.0"/>
      <point x="1038.0" y="1494.0"/>
      <point x="638.0" y="1494.0" type="curve" smooth="yes"/>
      <point x="468.0" y="1494.0"/>
      <point x="356.0" y="1482.0"/>
      <point x="216.0" y="1454.0" type="curve"/>
      <point x="216.0" y="16.0" type="line"/>
      <point x="370.0" y="-4.0"/>
      <point x="468.0" y="-10.0"/>
    </contour>
    <contour>
      <point x="604.0" y="56.0" type="curve" smooth="yes"/>
      <point x="474.0" y="56.0"/>
      <point x="382.0" y="62.0"/>
      <point x="284.0" y="78.0" type="curve"/>
      <point x="284.0" y="1400.0" type="line"/>
      <point x="380.0" y="1418.0"/>
      <point x="482.0" y="1428.0"/>
      <point x="640.0" y="1428.0" type="curve" smooth="yes"/>
      <point x="994.0" y="1428.0"/>
      <point x="1138.0" y="1336.0"/>
      <point x="1138.0" y="1106.0" type="curve" smooth="yes"/>
      <point x="1138.0" y="886.0"/>
      <point x="992.0" y="794.0"/>
      <point x="700.0" y="794.0" type="curve" smooth="yes"/>
      <point x="268.0" y="794.0" type="line"/>
      <point x="268.0" y="728.0" type="line"/>
      <point x="714.0" y="728.0" type="line" smooth="yes"/>
      <point x="1028.0" y="728.0"/>
      <point x="1180.0" y="630.0"/>
      <point x="1180.0" y="404.0" type="curve" smooth="yes"/>
      <point x="1180.0" y="174.0"/>
      <point x="1048.0" y="56.0"/>
    </contour>
  </outline>
</glyph>
<glyph name="F" format="2">
  <advance width="1238.0"/>
  <unicode hex="0046"/>
  <outline>
    <contour>
      <point x="216.0" y="0.0" type="line"/>
      <point x="284.0" y="0.0" type="line"/>
      <point x="284.0" y="1414.0" type="line"/>
      <point x="1156.0" y="1414.0" type="line"/>
      <point x="1156.0" y="1480.0" type="line"/>
      <point x="216.0" y="1480.0" type="line"/>
    </contour>
    <contour>
      <point x="276.0" y="728.0" type="line"/>
      <point x="1056.0" y="728.0" type="line"/>
      <point x="1056.0" y="794.0" type="line"/>
      <point x="276.0" y="794.0" type="line"/>
    </contour>
  </outline>
</glyph>
<glyph name="J" format="2">
  <advance width="500.0"/>
  <unicode hex="004A"/>
  <anchor x="348.0" y="0.0" name="bottom"/>
  <anchor x="250.0" y="1520.0" name="top"/>
  <outline>
    <contour>
      <point x="52.0" y="-340.0" type="line"/>
      <point x="212.0" y="-148.0"/>
      <point x="270.0" y="22.0"/>
      <point x="284.0" y="250.0" type="curve"/>
      <point x="284.0" y="1480.0" type="line"/>
      <point x="216.0" y="1480.0" type="line"/>
      <point x="216.0" y="286.0" type="line" smooth="yes"/>
      <point x="216.0" y="56.0"/>
      <point x="150.0" y="-128.0"/>
      <point x="4.0" y="-304.0" type="curve"/>
    </contour>
  </outline>
</glyph>
<glyph name="M" format="2">
  <advance width="1868.0"/>
  <unicode hex="004D"/>
  <anchor x="934.0" y="0.0" name="bottom"/>
  <anchor x="934.0" y="1480.0" name="top"/>
  <outline>
    <contour>
      <point x="220.0" y="0.0" type="line"/>
      <point x="286.0" y="0.0" type="line"/>
      <point x="286.0" y="1424.0" type="line"/>
      <point x="246.0" y="1424.0" type="line"/>
      <point x="896.0" y="200.0" type="line"/>
      <point x="972.0" y="200.0" type="line"/>
      <point x="1620.0" y="1424.0" type="line"/>
      <point x="1582.0" y="1424.0" type="line"/>
      <point x="1582.0" y="0.0" type="line"/>
      <point x="1648.0" y="0.0" type="line"/>
      <point x="1648.0" y="1480.0" type="line"/>
      <point x="1574.0" y="1480.0" type="line"/>
      <point x="920.0" y="232.0" type="line"/>
      <point x="952.0" y="232.0" type="line"/>
      <point x="294.0" y="1480.0" type="line"/>
      <point x="220.0" y="1480.0" type="line"/>
    </contour>
  </outline>
</glyph>
<glyph name="P" format="2">
  <advance width="1314.0"/>
  <unicode hex="0050"/>
  <outline>
    <contour>
      <point x="216.0" y="0.0" type="line"/>
      <point x="284.0" y="0.0" type="line"/>
      <point x="284.0" y="532.0" type="line"/>
      <point x="384.0" y="522.0"/>
      <point x="460.0" y="518.0"/>
      <point x="556.0" y="518.0" type="curve" smooth="yes"/>
      <point x="1018.0" y="518.0"/>
      <point x="1208.0" y="696.0"/>
      <point x="1208.0" y="1010.0" type="curve" smooth="yes"/>
      <point x="1208.0" y="1346.0"/>
      <point x="994.0" y="1494.0"/>
      <point x="610.0" y="1494.0" type="curve" smooth="yes"/>
      <point x="468.0" y="1494.0"/>
      <point x="356.0" y="1482.0"/>
      <point x="216.0" y="1454.0" type="curve"/>
    </contour>
    <contour>
      <point x="556.0" y="584.0" type="curve" smooth="yes"/>
      <point x="452.0" y="584.0"/>
      <point x="370.0" y="590.0"/>
      <point x="284.0" y="602.0" type="curve"/>
      <point x="284.0" y="1400.0" type="line"/>
      <point x="380.0" y="1418.0"/>
      <point x="482.0" y="1428.0"/>
      <point x="610.0" y="1428.0" type="curve" smooth="yes"/>
      <point x="958.0" y="1428.0"/>
      <point x="1136.0" y="1300.0"/>
      <point x="1136.0" y="1008.0" type="curve" smooth="yes"/>
      <point x="1136.0" y="730.0"/>
      <point x="976.0" y="584.0"/>
    </contour>
  </outline>
</glyph>
<glyph name="V" format="2">
  <advance width="1394.0"/>
  <unicode hex="0056"/>
  <outline>
    <contour>
      <point x="650.0" y="0.0" type="line"/>
      <point x="744.0" y="0.0" type="line"/>
      <point x="1370.0" y="1480.0" type="line"/>
      <point x="1298.0" y="1480.0" type="line"/>
      <point x="692.0" y="40.0" type="line"/>
      <point x="708.0" y="40.0" type="line"/>
      <point x="100.0" y="1480.0" type="line"/>
      <point x="24.0" y="1480.0" type="line"/>
    </contour>
  </outline>
</glyph>
<glyph name="Y" format="2">
  <advance width="1244.0"/>
  <unicode hex="0059"/>
  <anchor x="622.0" y="0.0" name="bottom"/>
  <anchor x="622.0" y="1520.0" name="top"/>
  <anchor x="16.0" y="1480.0" name="topleft"/>
  <outline>
    <contour>
      <point x="588.0" y="0.0" type="line"/>
      <point x="656.0" y="0.0" type="line"/>
      <point x="656.0" y="706.0" type="line"/>
      <point x="636.0" y="652.0" type="line"/>
      <point x="1252.0" y="1480.0" type="line"/>
      <point x="1168.0" y="1480.0" type="line"/>
      <point x="604.0" y="716.0" type="line"/>
      <point x="644.0" y="716.0" type="line"/>
      <point x="72.0" y="1480.0" type="line"/>
      <point x="-16.0" y="1480.0" type="line"/>
      <point x="608.0" y="652.0" type="line"/>
      <point x="588.0" y="706.0" type="line"/>
    </contour>
  </outline>
</glyph>
<glyph name="underscore" format="2">
  <advance width="1222.0"/>
  <unicode hex="005F"/>
  <outline>
    <contour>
      <point x="100.0" y="-64.0" type="line"/>
      <point x="1122.0" y="-64.0" type="line"/>
      <point x="1122.0" y="0.0" type="line"/>
      <point x="100.0" y="0.0" type="line"/>
    </contour>
  </outline>
</glyph>
<glyph name="b" format="2">
  <advance width="1228.0"/>
  <unicode hex="0062"/>
  <anchor x="616.0" y="0.0" name="bottom"/>
  <anchor x="230.0" y="1616.0" name="top"/>
  <outline>
    <contour>
      <point x="536.0" y="-18.0" type="curve" smooth="yes"/>
      <point x="908.0" y="-18.0"/>
      <point x="1100.0" y="172.0"/>
      <point x="1100.0" y="560.0" type="curve" smooth="yes"/>
      <point x="1100.0" y="948.0"/>
      <point x="898.0" y="1096.0"/>
      <point x="636.0" y="1096.0" type="curve" smooth="yes"/>
      <point x="482.0" y="1096.0"/>
      <point x="356.0" y="1040.0"/>
      <point x="270.0" y="952.0" type="curve"/>
      <point x="264.0" y="952.0" type="line"/>
      <point x="264.0" y="1616.0" type="line"/>
      <point x="196.0" y="1616.0" type="line"/>
      <point x="196.0" y="30.0" type="line"/>
      <point x="308.0" y="-2.0"/>
      <point x="418.0" y="-18.0"/>
    </contour>
    <contour>
      <point x="544.0" y="48.0" type="curve" smooth="yes"/>
      <point x="432.0" y="48.0"/>
      <point x="336.0" y="64.0"/>
      <point x="264.0" y="86.0" type="curve"/>
      <point x="264.0" y="864.0" type="line"/>
      <point x="360.0" y="982.0"/>
      <point x="494.0" y="1030.0"/>
      <point x="632.0" y="1030.0" type="curve" smooth="yes"/>
      <point x="858.0" y="1030.0"/>
      <point x="1028.0" y="908.0"/>
      <point x="1028.0" y="552.0" type="curve" smooth="yes"/>
      <point x="1028.0" y="206.0"/>
      <point x="864.0" y="48.0"/>
    </contour>
  </outline>
</glyph>
<glyph name="j" format="2">
  <advance width="460.0"/>
  <unicode hex="006A"/>
  <anchor x="230.0" y="1212.0" name="_top"/>
  <anchor x="230.0" y="1212.0" name="top"/>
  <outline>
    <contour>
      <point x="32.0" y="-460.0" type="line"/>
      <point x="192.0" y="-268.0"/>
      <point x="264.0" y="-78.0"/>
      <point x="264.0" y="170.0" type="curve" smooth="yes"/>
      <point x="264.0" y="1080.0" type="line"/>
      <point x="196.0" y="1080.0" type="line"/>
      <point x="196.0" y="166.0" type="line" smooth="yes"/>
      <point x="196.0" y="-64.0"/>
      <point x="130.0" y="-248.0"/>
      <point x="-16.0" y="-424.0" type="curve"/>
    </contour>
    <contour>
      <point x="230.0" y="1372.0" type="curve" smooth="yes"/>
      <point x="266.0" y="1372.0"/>
      <point x="292.0" y="1396.0"/>
      <point x="292.0" y="1434.0" type="curve" smooth="yes"/>
      <point x="292.0" y="1472.0"/>
      <point x="266.0" y="1498.0"/>
      <point x="230.0" y="1498.0" type="curve" smooth="yes"/>
      <point x="194.0" y="1498.0"/>
      <point x="168.0" y="1472.0"/>
      <point x="168.0" y="1434.0" type="curve" smooth="yes"/>
      <point x="168.0" y="1396.0"/>
      <point x="194.0" y="1372.0"/>
    </contour>
  </outline>
</glyph>
<glyph name="k" format="2">
  <advance width="1082.0"/>
  <unicode hex="006B"/>
  <anchor x="576.0" y="0.0" name="bottom"/>
  <anchor x="230.0" y="1616.0" name="top"/>
  <outline>
    <contour>
      <point x="1002.0" y="0.0" type="line"/>
      <point x="1088.0" y="0.0" type="line"/>
      <point x="566.0" y="562.0" type="line"/>
      <point x="566.0" y="542.0" type="line"/>
      <point x="1056.0" y="1080.0" type="line"/>
      <point x="970.0" y="1080.0" type="line"/>
      <point x="486.0" y="552.0" type="line"/>
    </contour>
    <contour>
      <point x="248.0" y="520.0" type="line"/>
      <point x="532.0" y="520.0" type="line"/>
      <point x="532.0" y="584.0" type="line"/>
      <point x="248.0" y="584.0" type="line"/>
    </contour>
    <contour>
      <point x="196.0" y="0.0" type="line"/>
      <point x="264.0" y="0.0" type="line"/>
      <point x="264.0" y="1616.0" type="line"/>
      <point x="196.0" y="1616.0" type="line"/>
    </contour>
  </outline>
</glyph>
<glyph name="p" format="2">
  <advance width="1228.0"/>
  <unicode hex="0070"/>
  <outline>
    <contour>
      <point x="196.0" y="-440.0" type="line"/>
      <point x="264.0" y="-440.0" type="line"/>
      <point x="264.0" y="6.0" type="line"/>
      <point x="336.0" y="-6.0"/>
      <point x="428.0" y="-18.0"/>
      <point x="522.0" y="-18.0" type="curve" smooth="yes"/>
      <point x="908.0" y="-18.0"/>
      <point x="1100.0" y="172.0"/>
      <point x="1100.0" y="560.0" type="curve" smooth="yes"/>
      <point x="1100.0" y="948.0"/>
      <point x="896.0" y="1096.0"/>
      <point x="628.0" y="1096.0" type="curve" smooth="yes"/>
      <point x="482.0" y="1096.0"/>
      <point x="354.0" y="1040.0"/>
      <point x="270.0" y="946.0" type="curve"/>
      <point x="264.0" y="946.0" type="line"/>
      <point x="256.0" y="1080.0" type="line"/>
      <point x="196.0" y="1080.0" type="line"/>
    </contour>
    <contour>
      <point x="526.0" y="48.0" type="curve" smooth="yes"/>
      <point x="432.0" y="48.0"/>
      <point x="336.0" y="60.0"/>
      <point x="264.0" y="80.0" type="curve"/>
      <point x="264.0" y="852.0" type="line"/>
      <point x="360.0" y="982.0"/>
      <point x="492.0" y="1030.0"/>
      <point x="624.0" y="1030.0" type="curve" smooth="yes"/>
      <point x="858.0" y="1030.0"/>
      <point x="1028.0" y="908.0"/>
      <point x="1028.0" y="552.0" type="curve" smooth="yes"/>
      <point x="1028.0" y="206.0"/>
      <point x="864.0" y="48.0"/>
    </contour>
  </outline>
</glyph>
<glyph name="q" format="2">
  <advance width="1228.0"/>
  <unicode hex="0071"/>
  <outline>
    <contour>
      <point x="964.0" y="-440.0" type="line"/>
      <point x="1032.0" y="-440.0" type="line"/>
      <point x="1032.0" y="1048.0" type="line"/>
      <point x="920.0" y="1080.0"/>
      <point x="810.0" y="1096.0"/>
      <point x="692.0" y="1096.0" type="curve" smooth="yes"/>
      <point x="320.0" y="1096.0"/>
      <point x="128.0" y="906.0"/>
      <point x="128.0" y="518.0" type="curve" smooth="yes"/>
      <point x="128.0" y="130.0"/>
      <point x="330.0" y="-18.0"/>
      <point x="592.0" y="-18.0" type="curve" smooth="yes"/>
      <point x="746.0" y="-18.0"/>
      <point x="872.0" y="38.0"/>
      <point x="958.0" y="126.0" type="curve"/>
      <point x="964.0" y="126.0" type="line"/>
    </contour>
    <contour>
      <point x="596.0" y="48.0" type="curve" smooth="yes"/>
      <point x="370.0" y="48.0"/>
      <point x="200.0" y="170.0"/>
      <point x="200.0" y="526.0" type="curve" smooth="yes"/>
      <point x="200.0" y="872.0"/>
      <point x="364.0" y="1030.0"/>
      <point x="684.0" y="1030.0" type="curve" smooth="yes"/>
      <point x="796.0" y="1030.0"/>
      <point x="892.0" y="1016.0"/>
      <point x="964.0" y="996.0" type="curve"/>
      <point x="964.0" y="214.0" type="line"/>
      <point x="868.0" y="96.0"/>
      <point x="730.0" y="48.0"/>
    </contour>
  </outline>
</glyph>
<glyph name="v" format="2">
  <advance width="1132.0"/>
  <unicode hex="0076"/>
  <anchor x="568.0" y="0.0" name="bottom"/>
  <anchor x="568.0" y="1200.0" name="top"/>
  <outline>
    <contour>
      <point x="520.0" y="0.0" type="line"/>
      <point x="612.0" y="0.0" type="line"/>
      <point x="1094.0" y="1080.0" type="line"/>
      <point x="1024.0" y="1080.0" type="line"/>
      <point x="562.0" y="38.0" type="line"/>
      <point x="576.0" y="38.0" type="line"/>
      <point x="114.0" y="1080.0" type="line"/>
      <point x="38.0" y="1080.0" type="line"/>
    </contour>
  </outline>
</glyph>
<glyph name="w" format="2">
  <advance width="1804.0"/>
  <unicode hex="0077"/>
  <anchor x="904.0" y="0.0" name="bottom"/>
  <anchor x="904.0" y="1200.0" name="top"/>
  <outline>
    <contour>
      <point x="460.0" y="0.0" type="line"/>
      <point x="554.0" y="0.0" type="line"/>
      <point x="912.0" y="1038.0" type="line"/>
      <point x="892.0" y="1038.0" type="line"/>
      <point x="1252.0" y="0.0" type="line"/>
      <point x="1346.0" y="0.0" type="line"/>
      <point x="1716.0" y="1080.0" type="line"/>
      <point x="1644.0" y="1080.0" type="line"/>
      <point x="1292.0" y="40.0" type="line"/>
      <point x="1308.0" y="40.0" type="line"/>
      <point x="950.0" y="1080.0" type="line"/>
      <point x="856.0" y="1080.0" type="line"/>
      <point x="500.0" y="40.0" type="line"/>
      <point x="516.0" y="40.0" type="line"/>
      <point x="162.0" y="1080.0" type="line"/>
      <point x="88.0" y="1080.0" type="line"/>
    </contour>
  </outline>
</glyph>
<glyph name="x" format="2">
  <advance width="1096.0"/>
  <unicode hex="0078"/>
  <anchor x="550.0" y="0.0" name="bottom"/>
  <anchor x="550.0" y="1200.0" name="top"/>
  <outline>
    <contour>
      <point x="966.0" y="0.0" type="line"/>
      <point x="1058.0" y="0.0" type="line"/>
      <point x="594.0" y="546.0" type="line"/>
      <point x="550.0" y="596.0" type="line"/>
      <point x="144.0" y="1080.0" type="line"/>
      <point x="52.0" y="1080.0" type="line"/>
      <point x="504.0" y="544.0" type="line"/>
      <point x="548.0" y="494.0" type="line"/>
    </contour>
    <contour>
      <point x="42.0" y="0.0" type="line"/>
      <point x="134.0" y="0.0" type="line"/>
      <point x="548.0" y="494.0" type="line"/>
      <point x="594.0" y="546.0" type="line"/>
      <point x="1046.0" y="1080.0" type="line"/>
      <point x="958.0" y="1080.0" type="line"/>
      <point x="550.0" y="596.0" type="line"/>
      <point x="504.0" y="544.0" type="line"/>
    </contour>
  </outline>
</glyph>
<glyph name="braceleft" format="2">
  <advance width="746.0"/>
  <unicode hex="007B"/>
  <outline>
    <contour>
      <point x="666.0" y="-460.0" type="curve" smooth="yes"/>
      <point x="710.0" y="-460.0"/>
      <point x="756.0" y="-456.0"/>
      <point x="786.0" y="-450.0" type="curve"/>
      <point x="786.0" y="-394.0" type="line"/>
      <point x="662.0" y="-394.0" type="line" smooth="yes"/>
      <point x="450.0" y="-394.0"/>
      <point x="344.0" y="-312.0"/>
      <point x="344.0" y="-98.0" type="curve" smooth="yes"/>
      <point x="344.0" y="374.0" type="line" smooth="yes"/>
      <point x="344.0" y="530.0"/>
      <point x="298.0" y="602.0"/>
      <point x="196.0" y="628.0" type="curve"/>
      <point x="196.0" y="616.0" type="line"/>
      <point x="298.0" y="642.0"/>
      <point x="344.0" y="714.0"/>
      <point x="344.0" y="870.0" type="curve" smooth="yes"/>
      <point x="344.0" y="1274.0" type="line" smooth="yes"/>
      <point x="344.0" y="1488.0"/>
      <point x="450.0" y="1570.0"/>
      <point x="662.0" y="1570.0" type="curve" smooth="yes"/>
      <point x="786.0" y="1570.0" type="line"/>
      <point x="786.0" y="1626.0" type="line"/>
      <point x="756.0" y="1632.0"/>
      <point x="710.0" y="1636.0"/>
      <point x="666.0" y="1636.0" type="curve" smooth="yes"/>
      <point x="408.0" y="1636.0"/>
      <point x="276.0" y="1518.0"/>
      <point x="276.0" y="1268.0" type="curve" smooth="yes"/>
      <point x="276.0" y="850.0" type="line" smooth="yes"/>
      <point x="276.0" y="708.0"/>
      <point x="214.0" y="654.0"/>
      <point x="82.0" y="654.0" type="curve" smooth="yes"/>
      <point x="56.0" y="654.0" type="line"/>
      <point x="56.0" y="590.0" type="line"/>
      <point x="82.0" y="590.0" type="line" smooth="yes"/>
      <point x="214.0" y="590.0"/>
      <point x="276.0" y="536.0"/>
      <point x="276.0" y="394.0" type="curve" smooth="yes"/>
      <point x="276.0" y="-92.0" type="line" smooth="yes"/>
      <point x="276.0" y="-342.0"/>
      <point x="408.0" y="-460.0"/>
    </contour>
  </outline>
</glyph>
<glyph name="exclamdown" format="2">
  <advance width="492.0"/>
  <unicode hex="00A1"/>
  <outline>
    <contour>
      <point x="222.0" y="764.0" type="line"/>
      <point x="210.0" y="190.0" type="line"/>
      <point x="210.0" y="-380.0" type="line"/>
      <point x="282.0" y="-380.0" type="line"/>
      <point x="282.0" y="190.0" type="line"/>
      <point x="270.0" y="764.0" type="line"/>
    </contour>
    <contour>
      <point x="246.0" y="1090.0" type="curve" smooth="yes"/>
      <point x="210.0" y="1090.0"/>
      <point x="184.0" y="1066.0"/>
      <point x="184.0" y="1028.0" type="curve" smooth="yes"/>
      <point x="184.0" y="990.0"/>
      <point x="210.0" y="964.0"/>
      <point x="246.0" y="964.0" type="curve" smooth="yes"/>
      <point x="282.0" y="964.0"/>
      <point x="308.0" y="990.0"/>
      <point x="308.0" y="1028.0" type="curve" smooth="yes"/>
      <point x="308.0" y="1066.0"/>
      <point x="282.0" y="1090.0"/>
    </contour>
  </outline>
</glyph>
<glyph name="yen" format="2">
  <advance width="1292.0"/>
  <unicode hex="00A5"/>
  <outline>
    <contour>
      <point x="612.0" y="0.0" type="line"/>
      <point x="680.0" y="0.0" type="line"/>
      <point x="680.0" y="706.0" type="line"/>
      <point x="660.0" y="652.0" type="line"/>
      <point x="1280.0" y="1480.0" type="line"/>
      <point x="1196.0" y="1480.0" type="line"/>
      <point x="628.0" y="716.0" type="line"/>
      <point x="668.0" y="716.0" type="line"/>
      <point x="100.0" y="1480.0" type="line"/>
      <point x="12.0" y="1480.0" type="line"/>
      <point x="632.0" y="652.0" type="line"/>
      <point x="612.0" y="706.0" type="line"/>
    </contour>
    <contour>
      <point x="272.0" y="320.0" type="line"/>
      <point x="1020.0" y="320.0" type="line"/>
      <point x="1020.0" y="384.0" type="line"/>
      <point x="272.0" y="384.0" type="line"/>
    </contour>
    <contour>
      <point x="272.0" y="664.0" type="line"/>
      <point x="1020.0" y="664.0" type="line"/>
      <point x="1020.0" y="728.0" type="line"/>
      <point x="272.0" y="728.0" type="line"/>
    </contour>
  </outline>
</glyph>
<glyph name="guillemetleft" format="2">
  <advance width="1056.0"/>
  <unicode hex="00AB"/>
  <outline>
    <contour>
      <point x="470.0" y="140.0" type="line"/>
      <point x="550.0" y="140.0" type="line"/>
      <point x="226.0" y="560.0" type="line"/>
      <point x="550.0" y="980.0" type="line"/>
      <point x="470.0" y="980.0" type="line"/>
      <point x="146.0" y="560.0" type="line"/>
    </contour>
    <contour>
      <point x="870.0" y="140.0" type="line"/>
      <point x="950.0" y="140.0" type="line"/>
      <point x="626.0" y="560.0" type="line"/>
      <point x="950.0" y="980.0" type="line"/>
      <point x="870.0" y="980.0" type="line"/>
      <point x="546.0" y="560.0" type="line"/>
    </contour>
  </outline>
</glyph>
<glyph name="logicalnot" format="2">
  <advance width="1428.0"/>
  <unicode hex="00AC"/>
  <outline>
    <contour>
      <point x="1182.0" y="192.0" type="line"/>
      <point x="1250.0" y="192.0" type="line"/>
      <point x="1250.0" y="792.0" type="line"/>
      <point x="190.0" y="792.0" type="line"/>
      <point x="190.0" y="728.0" type="line"/>
      <point x="1182.0" y="728.0" type="line"/>
    </contour>
  </outline>
</glyph>
<glyph name="registered" format="2">
  <advance width="1592.0"/>
  <unicode hex="00AE"/>
  <outline>
    <contour>
      <point x="796.0" y="268.0" type="curve" smooth="yes"/>
      <point x="1158.0" y="268.0"/>
      <point x="1406.0" y="518.0"/>
      <point x="1406.0" y="882.0" type="curve" smooth="yes"/>
      <point x="1406.0" y="1246.0"/>
      <point x="1158.0" y="1498.0"/>
      <point x="796.0" y="1498.0" type="curve" smooth="yes"/>
      <point x="434.0" y="1498.0"/>
      <point x="186.0" y="1246.0"/>
      <point x="186.0" y="882.0" type="curve" smooth="yes"/>
      <point x="186.0" y="518.0"/>
      <point x="434.0" y="268.0"/>
    </contour>
    <contour>
      <point x="974.0" y="600.0" type="line"/>
      <point x="1050.0" y="600.0" type="line"/>
      <point x="874.0" y="860.0" type="line"/>
      <point x="814.0" y="834.0" type="line"/>
    </contour>
    <contour>
      <point x="796.0" y="334.0" type="curve" smooth="yes"/>
      <point x="468.0" y="334.0"/>
      <point x="254.0" y="550.0"/>
      <point x="254.0" y="882.0" type="curve" smooth="yes"/>
      <point x="254.0" y="1214.0"/>
      <point x="468.0" y="1432.0"/>
      <point x="796.0" y="1432.0" type="curve" smooth="yes"/>
      <point x="1124.0" y="1432.0"/>
      <point x="1338.0" y="1214.0"/>
      <point x="1338.0" y="882.0" type="curve" smooth="yes"/>
      <point x="1338.0" y="550.0"/>
      <point x="1124.0" y="334.0"/>
    </contour>
    <contour>
      <point x="588.0" y="600.0" type="line"/>
      <point x="654.0" y="600.0" type="line"/>
      <point x="654.0" y="826.0" type="line"/>
      <point x="782.0" y="826.0" type="line" smooth="yes"/>
      <point x="944.0" y="826.0"/>
      <point x="1026.0" y="892.0"/>
      <point x="1026.0" y="1008.0" type="curve" smooth="yes"/>
      <point x="1026.0" y="1124.0"/>
      <point x="942.0" y="1192.0"/>
      <point x="782.0" y="1192.0" type="curve" smooth="yes"/>
      <point x="588.0" y="1192.0" type="line"/>
    </contour>
    <contour>
      <point x="654.0" y="888.0" type="line"/>
      <point x="654.0" y="1130.0" type="line"/>
      <point x="794.0" y="1130.0" type="line" smooth="yes"/>
      <point x="906.0" y="1130.0"/>
      <point x="960.0" y="1090.0"/>
      <point x="960.0" y="1008.0" type="curve" smooth="yes"/>
      <point x="960.0" y="926.0"/>
      <point x="908.0" y="888.0"/>
      <point x="794.0" y="888.0" type="curve" smooth="yes"/>
    </contour>
  </outline>
</glyph>
<glyph name="degree" format="2">
  <advance width="1056.0"/>
  <unicode hex="00B0"/>
  <outline>
    <contour>
      <point x="528.0" y="812.0" type="curve" smooth="yes"/>
      <point x="728.0" y="812.0"/>
      <point x="870.0" y="956.0"/>
      <point x="870.0" y="1154.0" type="curve" smooth="yes"/>
      <point x="870.0" y="1352.0"/>
      <point x="728.0" y="1496.0"/>
      <point x="528.0" y="1496.0" type="curve" smooth="yes"/>
      <point x="328.0" y="1496.0"/>
      <point x="186.0" y="1352.0"/>
      <point x="186.0" y="1154.0" type="curve" smooth="yes"/>
      <point x="186.0" y="956.0"/>
      <point x="328.0" y="812.0"/>
    </contour>
    <contour>
      <point x="528.0" y="876.0" type="curve" smooth="yes"/>
      <point x="366.0" y="876.0"/>
      <point x="252.0" y="984.0"/>
      <point x="252.0" y="1154.0" type="curve" smooth="yes"/>
      <point x="252.0" y="1324.0"/>
      <point x="366.0" y="1432.0"/>
      <point x="528.0" y="1432.0" type="curve" smooth="yes"/>
      <point x="690.0" y="1432.0"/>
      <point x="804.0" y="1324.0"/>
      <point x="804.0" y="1154.0" type="curve" smooth="yes"/>
      <point x="804.0" y="984.0"/>
      <point x="690.0" y="876.0"/>
    </contour>
  </outline>
</glyph>
<glyph name="plusminus" format="2">
  <advance width="1108.0"/>
  <unicode hex="00B1"/>
  <outline>
    <contour>
      <point x="520.0" y="316.0" type="line"/>
      <point x="588.0" y="316.0" type="line"/>
      <point x="588.0" y="666.0" type="line"/>
      <point x="918.0" y="666.0" type="line"/>
      <point x="918.0" y="730.0" type="line"/>
      <point x="588.0" y="730.0" type="line"/>
      <point x="588.0" y="1080.0" type="line"/>
      <point x="520.0" y="1080.0" type="line"/>
      <point x="520.0" y="730.0" type="line"/>
      <point x="190.0" y="730.0" type="line"/>
      <point x="190.0" y="666.0" type="line"/>
      <point x="520.0" y="666.0" type="line"/>
    </contour>
    <contour>
      <point x="190.0" y="0.0" type="line"/>
      <point x="918.0" y="0.0" type="line"/>
      <point x="918.0" y="64.0" type="line"/>
      <point x="190.0" y="64.0" type="line"/>
    </contour>
  </outline>
</glyph>
<glyph name="periodcentered" format="2">
  <advance width="452.0"/>
  <unicode hex="00B7"/>
  <anchor x="226.0" y="560.0" name="_periodcentered"/>
  <outline>
    <contour>
      <point x="226.0" y="496.0" type="curve" smooth="yes"/>
      <point x="262.0" y="496.0"/>
      <point x="288.0" y="520.0"/>
      <point x="288.0" y="558.0" type="curve" smooth="yes"/>
      <point x="288.0" y="596.0"/>
      <point x="262.0" y="622.0"/>
      <point x="226.0" y="622.0" type="curve" smooth="yes"/>
      <point x="190.0" y="622.0"/>
      <point x="164.0" y="596.0"/>
      <point x="164.0" y="558.0" type="curve" smooth="yes"/>
      <point x="164.0" y="520.0"/>
      <point x="190.0" y="496.0"/>
    </contour>
  </outline>
</glyph>
<glyph name="guillemetright" format="2">
  <advance width="1056.0"/>
  <unicode hex="00BB"/>
  <outline>
    <contour>
      <point x="106.0" y="140.0" type="line"/>
      <point x="186.0" y="140.0" type="line"/>
      <point x="510.0" y="560.0" type="line"/>
      <point x="186.0" y="980.0" type="line"/>
      <point x="106.0" y="980.0" type="line"/>
      <point x="430.0" y="560.0" type="line"/>
    </contour>
    <contour>
      <point x="506.0" y="140.0" type="line"/>
      <point x="586.0" y="140.0" type="line"/>
      <point x="910.0" y="560.0" type="line"/>
      <point x="586.0" y="980.0" type="line"/>
      <point x="506.0" y="980.0" type="line"/>
      <point x="830.0" y="560.0" type="line"/>
    </contour>
  </outline>
</glyph>
<glyph name="onehalf" format="2">
  <advance width="1898.0"/>
  <unicode hex="00BD"/>
  <outline>
    <contour>
      <point x="422.0" y="636.0" type="line"/>
      <point x="486.0" y="636.0" type="line"/>
      <point x="486.0" y="1620.0" type="line"/>
      <point x="442.0" y="1620.0" type="line"/>
      <point x="148.0" y="1408.0" type="line"/>
      <point x="148.0" y="1334.0" type="line"/>
      <point x="442.0" y="1546.0" type="line"/>
      <point x="422.0" y="1560.0" type="line"/>
    </contour>
    <contour>
      <point x="148.0" y="616.0" type="line"/>
      <point x="746.0" y="616.0" type="line"/>
      <point x="746.0" y="678.0" type="line"/>
      <point x="148.0" y="678.0" type="line"/>
    </contour>
    <contour>
      <point x="488.0" y="-136.0" type="line"/>
      <point x="554.0" y="-136.0" type="line"/>
      <point x="1410.0" y="1616.0" type="line"/>
      <point x="1344.0" y="1616.0" type="line"/>
    </contour>
    <contour>
      <point x="1176.0" y="-136.0" type="line"/>
      <point x="1826.0" y="-136.0" type="line"/>
      <point x="1826.0" y="-74.0" type="line"/>
      <point x="1248.0" y="-74.0" type="line"/>
      <point x="1254.0" y="-96.0" type="line"/>
      <point x="1562.0" y="244.0" type="line" smooth="yes"/>
      <point x="1704.0" y="402.0"/>
      <point x="1756.0" y="492.0"/>
      <point x="1756.0" y="610.0" type="curve" smooth="yes"/>
      <point x="1756.0" y="792.0"/>
      <point x="1638.0" y="876.0"/>
      <point x="1428.0" y="876.0" type="curve" smooth="yes"/>
      <point x="1326.0" y="876.0"/>
      <point x="1234.0" y="862.0"/>
      <point x="1164.0" y="836.0" type="curve"/>
      <point x="1164.0" y="772.0" type="line"/>
      <point x="1244.0" y="800.0"/>
      <point x="1330.0" y="814.0"/>
      <point x="1426.0" y="814.0" type="curve" smooth="yes"/>
      <point x="1600.0" y="814.0"/>
      <point x="1690.0" y="748.0"/>
      <point x="1690.0" y="604.0" type="curve" smooth="yes"/>
      <point x="1690.0" y="510.0"/>
      <point x="1642.0" y="424.0"/>
      <point x="1514.0" y="282.0" type="curve" smooth="yes"/>
      <point x="1176.0" y="-98.0" type="line"/>
    </contour>
  </outline>
</glyph>
<glyph name="threequarters" format="2">
  <advance width="1898.0"/>
  <unicode hex="00BE"/>
  <outline>
    <contour>
      <point x="342.0" y="604.0" type="curve" smooth="yes"/>
      <point x="614.0" y="604.0"/>
      <point x="738.0" y="712.0"/>
      <point x="738.0" y="890.0" type="curve" smooth="yes"/>
      <point x="738.0" y="1036.0"/>
      <point x="636.0" y="1128.0"/>
      <point x="454.0" y="1146.0" type="curve"/>
      <point x="454.0" y="1126.0" type="line"/>
      <point x="600.0" y="1156.0"/>
      <point x="702.0" y="1242.0"/>
      <point x="702.0" y="1378.0" type="curve" smooth="yes"/>
      <point x="702.0" y="1534.0"/>
      <point x="580.0" y="1628.0"/>
      <point x="368.0" y="1628.0" type="curve" smooth="yes"/>
      <point x="276.0" y="1628.0"/>
      <point x="184.0" y="1616.0"/>
      <point x="106.0" y="1592.0" type="curve"/>
      <point x="106.0" y="1528.0" type="line"/>
      <point x="194.0" y="1558.0"/>
      <point x="282.0" y="1568.0"/>
      <point x="364.0" y="1568.0" type="curve" smooth="yes"/>
      <point x="540.0" y="1568.0"/>
      <point x="638.0" y="1496.0"/>
      <point x="638.0" y="1374.0" type="curve" smooth="yes"/>
      <point x="638.0" y="1228.0"/>
      <point x="518.0" y="1160.0"/>
      <point x="298.0" y="1160.0" type="curve" smooth="yes"/>
      <point x="236.0" y="1160.0" type="line"/>
      <point x="236.0" y="1100.0" type="line"/>
      <point x="384.0" y="1100.0" type="line" smooth="yes"/>
      <point x="580.0" y="1100.0"/>
      <point x="674.0" y="1026.0"/>
      <point x="674.0" y="894.0" type="curve" smooth="yes"/>
      <point x="674.0" y="748.0"/>
      <point x="572.0" y="664.0"/>
      <point x="344.0" y="664.0" type="curve" smooth="yes"/>
      <point x="258.0" y="664.0"/>
      <point x="162.0" y="678.0"/>
      <point x="70.0" y="710.0" type="curve"/>
      <point x="70.0" y="646.0" type="line"/>
      <point x="154.0" y="618.0"/>
      <point x="254.0" y="604.0"/>
    </contour>
    <contour>
      <point x="488.0" y="-136.0" type="line"/>
      <point x="554.0" y="-136.0" type="line"/>
      <point x="1410.0" y="1616.0" type="line"/>
      <point x="1344.0" y="1616.0" type="line"/>
    </contour>
    <contour>
      <point x="1112.0" y="116.0" type="line"/>
      <point x="1874.0" y="116.0" type="line"/>
      <point x="1874.0" y="176.0" type="line"/>
      <point x="1166.0" y="176.0" type="line"/>
      <point x="1180.0" y="154.0" type="line"/>
      <point x="1612.0" y="864.0" type="line"/>
      <point x="1544.0" y="864.0" type="line"/>
      <point x="1112.0" y="156.0" type="line"/>
    </contour>
    <contour>
      <point x="1652.0" y="-136.0" type="line"/>
      <point x="1714.0" y="-136.0" type="line"/>
      <point x="1714.0" y="526.0" type="line"/>
      <point x="1664.0" y="526.0" type="line"/>
      <point x="1652.0" y="176.0" type="line"/>
    </contour>
  </outline>
</glyph>
<glyph name="Atilde" format="2">
  <advance width="1442.0"/>
  <unicode hex="00C3"/>
  <anchor x="722.0" y="1520.0" name="_top"/>
  <anchor x="722.0" y="0.0" name="bottom"/>
  <anchor x="1394.0" y="0.0" name="ogonek"/>
  <anchor x="722.0" y="1520.0" name="top"/>
  <outline>
    <contour>
      <point x="48.0" y="0.0" type="line"/>
      <point x="122.0" y="0.0" type="line"/>
      <point x="732.0" y="1440.0" type="line"/>
      <point x="708.0" y="1440.0" type="line"/>
      <point x="1318.0" y="0.0" type="line"/>
      <point x="1394.0" y="0.0" type="line"/>
      <point x="764.0" y="1480.0" type="line"/>
      <point x="678.0" y="1480.0" type="line"/>
    </contour>
    <contour>
      <point x="322.0" y="528.0" type="line"/>
      <point x="1120.0" y="528.0" type="line"/>
      <point x="1100.0" y="594.0" type="line"/>
      <point x="342.0" y="594.0" type="line"/>
    </contour>
    <contour>
      <point x="882.0" y="1698.0" type="curve" smooth="yes"/>
      <point x="962.0" y="1698.0"/>
      <point x="1018.0" y="1718.0"/>
      <point x="1058.0" y="1758.0" type="curve"/>
      <point x="1058.0" y="1826.0" type="line"/>
      <point x="1010.0" y="1778.0"/>
      <point x="958.0" y="1756.0"/>
      <point x="882.0" y="1756.0" type="curve" smooth="yes"/>
      <point x="780.0" y="1756.0"/>
      <point x="686.0" y="1830.0"/>
      <point x="562.0" y="1830.0" type="curve" smooth="yes"/>
      <point x="482.0" y="1830.0"/>
      <point x="426.0" y="1810.0"/>
      <point x="386.0" y="1770.0" type="curve"/>
      <point x="386.0" y="1702.0" type="line"/>
      <point x="434.0" y="1750.0"/>
      <point x="486.0" y="1772.0"/>
      <point x="562.0" y="1772.0" type="curve" smooth="yes"/>
      <point x="664.0" y="1772.0"/>
      <point x="758.0" y="1698.0"/>
    </contour>
  </outline>
</glyph>
<glyph name="Ecircumflex" format="2">
  <advance width="1284.0"/>
  <unicode hex="00CA"/>
  <anchor x="712.0" y="1520.0" name="_top"/>
  <anchor x="716.0" y="0.0" name="bottom"/>
  <anchor x="1096.0" y="0.0" name="ogonek"/>
  <anchor x="712.0" y="1520.0" name="top"/>
  <anchor x="46.0" y="1480.0" name="topleft"/>
  <outline>
    <contour>
      <point x="216.0" y="0.0" type="line"/>
      <point x="1176.0" y="0.0" type="line"/>
      <point x="1176.0" y="66.0" type="line"/>
      <point x="284.0" y="66.0" type="line"/>
      <point x="284.0" y="1414.0" type="line"/>
      <point x="1166.0" y="1414.0" type="line"/>
      <point x="1166.0" y="1480.0" type="line"/>
      <point x="216.0" y="1480.0" type="line"/>
    </contour>
    <contour>
      <point x="256.0" y="728.0" type="line"/>
      <point x="1066.0" y="728.0" type="line"/>
      <point x="1066.0" y="794.0" type="line"/>
      <point x="256.0" y="794.0" type="line"/>
    </contour>
    <contour>
      <point x="390.0" y="1616.0" type="line"/>
      <point x="482.0" y="1616.0" type="line"/>
      <point x="730.0" y="1860.0" type="line"/>
      <point x="694.0" y="1860.0" type="line"/>
      <point x="942.0" y="1616.0" type="line"/>
      <point x="1034.0" y="1616.0" type="line"/>
      <point x="750.0" y="1888.0" type="line"/>
      <point x="674.0" y="1888.0" type="line"/>
    </contour>
  </outline>
</glyph>
<glyph name="Icircumflex" format="2">
  <advance width="500.0"/>
  <unicode hex="00CE"/>
  <anchor x="250.0" y="1520.0" name="_top"/>
  <anchor x="250.0" y="0.0" name="bottom"/>
  <anchor x="284.0" y="0.0" name="ogonek"/>
  <anchor x="250.0" y="1520.0" name="top"/>
  <outline>
    <contour>
      <point x="216.0" y="0.0" type="line"/>
      <point x="284.0" y="0.0" type="line"/>
      <point x="284.0" y="1480.0" type="line"/>
      <point x="216.0" y="1480.0" type="line"/>
    </contour>
    <contour>
      <point x="-72.0" y="1616.0" type="line"/>
      <point x="20.0" y="1616.0" type="line"/>
      <point x="268.0" y="1860.0" type="line"/>
      <point x="232.0" y="1860.0" type="line"/>
      <point x="480.0" y="1616.0" type="line"/>
      <point x="572.0" y="1616.0" type="line"/>
      <point x="288.0" y="1888.0" type="line"/>
      <point x="212.0" y="1888.0" type="line"/>
    </contour>
  </outline>
</glyph>
<glyph name="Eth" format="2">
  <advance width="1530.0"/>
  <unicode hex="00D0"/>
  <anchor x="216.0" y="762.0" name="_stroke"/>
  <anchor x="706.0" y="0.0" name="bottom"/>
  <anchor x="764.0" y="740.0" name="center"/>
  <anchor x="216.0" y="762.0" name="stroke"/>
  <anchor x="706.0" y="1520.0" name="top"/>
  <outline>
    <contour>
      <point x="602.0" y="-10.0" type="curve" smooth="yes"/>
      <point x="1124.0" y="-10.0"/>
      <point x="1392.0" y="238.0"/>
      <point x="1392.0" y="740.0" type="curve" smooth="yes"/>
      <point x="1392.0" y="1242.0"/>
      <point x="1124.0" y="1494.0"/>
      <point x="616.0" y="1494.0" type="curve" smooth="yes"/>
      <point x="494.0" y="1494.0"/>
      <point x="350.0" y="1482.0"/>
      <point x="216.0" y="1454.0" type="curve"/>
      <point x="216.0" y="16.0" type="line"/>
      <point x="370.0" y="-4.0"/>
      <point x="468.0" y="-10.0"/>
    </contour>
    <contour>
      <point x="604.0" y="56.0" type="curve" smooth="yes"/>
      <point x="464.0" y="56.0"/>
      <point x="370.0" y="64.0"/>
      <point x="284.0" y="78.0" type="curve"/>
      <point x="284.0" y="1400.0" type="line"/>
      <point x="402.0" y="1418.0"/>
      <point x="506.0" y="1428.0"/>
      <point x="610.0" y="1428.0" type="curve" smooth="yes"/>
      <point x="1080.0" y="1428.0"/>
      <point x="1320.0" y="1208.0"/>
      <point x="1320.0" y="740.0" type="curve" smooth="yes"/>
      <point x="1320.0" y="272.0"/>
      <point x="1080.0" y="56.0"/>
    </contour>
    <contour>
      <point x="8.0" y="732.0" type="line"/>
      <point x="712.0" y="732.0" type="line"/>
      <point x="712.0" y="792.0" type="line"/>
      <point x="8.0" y="792.0" type="line"/>
    </contour>
  </outline>
</glyph>
<glyph name="Ntilde" format="2">
  <advance width="1606.0"/>
  <unicode hex="00D1"/>
  <anchor x="804.0" y="1520.0" name="_top"/>
  <anchor x="804.0" y="0.0" name="bottom"/>
  <anchor x="804.0" y="1520.0" name="top"/>
  <outline>
    <contour>
      <point x="216.0" y="0.0" type="line"/>
      <point x="282.0" y="0.0" type="line"/>
      <point x="282.0" y="1420.0" type="line"/>
      <point x="252.0" y="1420.0" type="line"/>
      <point x="1316.0" y="0.0" type="line"/>
      <point x="1390.0" y="0.0" type="line"/>
      <point x="1390.0" y="1480.0" type="line"/>
      <point x="1324.0" y="1480.0" type="line"/>
      <point x="1324.0" y="60.0" type="line"/>
      <point x="1354.0" y="60.0" type="line"/>
      <point x="290.0" y="1480.0" type="line"/>
      <point x="216.0" y="1480.0" type="line"/>
    </contour>
    <contour>
      <point x="964.0" y="1698.0" type="curve" smooth="yes"/>
      <point x="1044.0" y="1698.0"/>
      <point x="1100.0" y="1718.0"/>
      <point x="1140.0" y="1758.0" type="curve"/>
      <point x="1140.0" y="1826.0" type="line"/>
      <point x="1092.0" y="1778.0"/>
      <point x="1040.0" y="1756.0"/>
      <point x="964.0" y="1756.0" type="curve" smooth="yes"/>
      <point x="862.0" y="1756.0"/>
      <point x="768.0" y="1830.0"/>
      <point x="644.0" y="1830.0" type="curve" smooth="yes"/>
      <point x="564.0" y="1830.0"/>
      <point x="508.0" y="1810.0"/>
      <point x="468.0" y="1770.0" type="curve"/>
      <point x="468.0" y="1702.0" type="line"/>
      <point x="516.0" y="1750.0"/>
      <point x="568.0" y="1772.0"/>
      <point x="644.0" y="1772.0" type="curve" smooth="yes"/>
      <point x="746.0" y="1772.0"/>
      <point x="840.0" y="1698.0"/>
    </contour>
  </outline>
</glyph>
<glyph name="Ograve" format="2">
  <advance width="1572.0"/>
  <unicode hex="00D2"/>
  <anchor x="786.0" y="1520.0" name="_top"/>
  <anchor x="786.0" y="0.0" name="bottom"/>
  <anchor x="786.0" y="740.0" name="center"/>
  <anchor x="966.0" y="0.0" name="ogonek"/>
  <anchor x="786.0" y="1520.0" name="top"/>
  <anchor x="50.0" y="1480.0" name="topleft"/>
  <anchor x="964.0" y="1480.0" name="topright"/>
  <outline>
    <contour>
      <point x="786.0" y="-18.0" type="curve" smooth="yes"/>
      <point x="1162.0" y="-18.0"/>
      <point x="1434.0" y="208.0"/>
      <point x="1434.0" y="740.0" type="curve" smooth="yes"/>
      <point x="1434.0" y="1272.0"/>
      <point x="1168.0" y="1498.0"/>
      <point x="786.0" y="1498.0" type="curve" smooth="yes"/>
      <point x="410.0" y="1498.0"/>
      <point x="138.0" y="1272.0"/>
      <point x="138.0" y="740.0" type="curve" smooth="yes"/>
      <point x="138.0" y="208.0"/>
      <point x="404.0" y="-18.0"/>
    </contour>
    <contour>
      <point x="786.0" y="50.0" type="curve" smooth="yes"/>
      <point x="446.0" y="50.0"/>
      <point x="210.0" y="242.0"/>
      <point x="210.0" y="744.0" type="curve" smooth="yes"/>
      <point x="210.0" y="1238.0"/>
      <point x="446.0" y="1430.0"/>
      <point x="786.0" y="1430.0" type="curve" smooth="yes"/>
      <point x="1126.0" y="1430.0"/>
      <point x="1362.0" y="1238.0"/>
      <point x="1362.0" y="736.0" type="curve" smooth="yes"/>
      <point x="1362.0" y="242.0"/>
      <point x="1126.0" y="50.0"/>
    </contour>
    <contour>
      <point x="750.0" y="1616.0" type="line"/>
      <point x="822.0" y="1616.0" type="line"/>
      <point x="600.0" y="1888.0" type="line"/>
      <point x="514.0" y="1888.0" type="line"/>
    </contour>
  </outline>
</glyph>
<glyph name="Odieresis" format="2">
  <advance width="1572.0"/>
  <unicode hex="00D6"/>
  <anchor x="786.0" y="1520.0" name="_top"/>
  <anchor x="786.0" y="0.0" name="bottom"/>
  <anchor x="786.0" y="740.0" name="center"/>
  <anchor x="966.0" y="0.0" name="ogonek"/>
  <anchor x="786.0" y="1520.0" name="top"/>
  <anchor x="50.0" y="1480.0" name="topleft"/>
  <anchor x="964.0" y="1480.0" name="topright"/>
  <outline>
    <contour>
      <point x="786.0" y="-18.0" type="curve" smooth="yes"/>
      <point x="1162.0" y="-18.0"/>
      <point x="1434.0" y="208.0"/>
      <point x="1434.0" y="740.0" type="curve" smooth="yes"/>
      <point x="1434.0" y="1272.0"/>
      <point x="1168.0" y="1498.0"/>
      <point x="786.0" y="1498.0" type="curve" smooth="yes"/>
      <point x="410.0" y="1498.0"/>
      <point x="138.0" y="1272.0"/>
      <point x="138.0" y="740.0" type="curve" smooth="yes"/>
      <point x="138.0" y="208.0"/>
      <point x="404.0" y="-18.0"/>
    </contour>
    <contour>
      <point x="786.0" y="50.0" type="curve" smooth="yes"/>
      <point x="446.0" y="50.0"/>
      <point x="210.0" y="242.0"/>
      <point x="210.0" y="744.0" type="curve" smooth="yes"/>
      <point x="210.0" y="1238.0"/>
      <point x="446.0" y="1430.0"/>
      <point x="786.0" y="1430.0" type="curve" smooth="yes"/>
      <point x="1126.0" y="1430.0"/>
      <point x="1362.0" y="1238.0"/>
      <point x="1362.0" y="736.0" type="curve" smooth="yes"/>
      <point x="1362.0" y="242.0"/>
      <point x="1126.0" y="50.0"/>
    </contour>
    <contour>
      <point x="1046.0" y="1690.0" type="curve" smooth="yes"/>
      <point x="1082.0" y="1690.0"/>
      <point x="1108.0" y="1714.0"/>
      <point x="1108.0" y="1752.0" type="curve" smooth="yes"/>
      <point x="1108.0" y="1790.0"/>
      <point x="1082.0" y="1816.0"/>
      <point x="1046.0" y="1816.0" type="curve" smooth="yes"/>
      <point x="1010.0" y="1816.0"/>
      <point x="984.0" y="1790.0"/>
      <point x="984.0" y="1752.0" type="curve" smooth="yes"/>
      <point x="984.0" y="1714.0"/>
      <point x="1010.0" y="1690.0"/>
    </contour>
    <contour>
      <point x="526.0" y="1690.0" type="curve" smooth="yes"/>
      <point x="562.0" y="1690.0"/>
      <point x="588.0" y="1714.0"/>
      <point x="588.0" y="1752.0" type="curve" smooth="yes"/>
      <point x="588.0" y="1790.0"/>
      <point x="562.0" y="1816.0"/>
      <point x="526.0" y="1816.0" type="curve" smooth="yes"/>
      <point x="490.0" y="1816.0"/>
      <point x="464.0" y="1790.0"/>
      <point x="464.0" y="1752.0" type="curve" smooth="yes"/>
      <point x="464.0" y="1714.0"/>
      <point x="490.0" y="1690.0"/>
    </contour>
  </outline>
</glyph>
<glyph name="multiply" format="2">
  <advance width="1004.0"/>
  <unicode hex="00D7"/>
  <outline>
    <contour>
      <point x="194.0" y="408.0" type="line"/>
      <point x="502.0" y="716.0" type="line"/>
      <point x="810.0" y="408.0" type="line"/>
      <point x="854.0" y="452.0" type="line"/>
      <point x="546.0" y="760.0" type="line"/>
      <point x="854.0" y="1068.0" type="line"/>
      <point x="810.0" y="1112.0" type="line"/>
      <point x="502.0" y="804.0" type="line"/>
      <point x="194.0" y="1112.0" type="line"/>
      <point x="150.0" y="1068.0" type="line"/>
      <point x="458.0" y="760.0" type="line"/>
      <point x="150.0" y="452.0" type="line"/>
    </contour>
  </outline>
</glyph>
<glyph name="Ugrave" format="2">
  <advance width="1546.0"/>
  <unicode hex="00D9"/>
  <anchor x="774.0" y="1520.0" name="_top"/>
  <anchor x="774.0" y="0.0" name="bottom"/>
  <anchor x="926.0" y="4.0" name="ogonek"/>
  <anchor x="774.0" y="1520.0" name="top"/>
  <anchor x="1272.0" y="1480.0" name="topright"/>
  <outline>
    <contour>
      <point x="774.0" y="-18.0" type="curve" smooth="yes"/>
      <point x="1156.0" y="-18.0"/>
      <point x="1338.0" y="154.0"/>
      <point x="1338.0" y="566.0" type="curve" smooth="yes"/>
      <point x="1338.0" y="1480.0" type="line"/>
      <point x="1272.0" y="1480.0" type="line"/>
      <point x="1272.0" y="556.0" type="line" smooth="yes"/>
      <point x="1272.0" y="198.0"/>
      <point x="1114.0" y="48.0"/>
      <point x="774.0" y="48.0" type="curve" smooth="yes"/>
      <point x="434.0" y="48.0"/>
      <point x="276.0" y="198.0"/>
      <point x="276.0" y="556.0" type="curve" smooth="yes"/>
      <point x="276.0" y="1480.0" type="line"/>
      <point x="208.0" y="1480.0" type="line"/>
      <point x="208.0" y="566.0" type="line" smooth="yes"/>
      <point x="208.0" y="154.0"/>
      <point x="392.0" y="-18.0"/>
    </contour>
    <contour>
      <point x="738.0" y="1616.0" type="line"/>
      <point x="810.0" y="1616.0" type="line"/>
      <point x="588.0" y="1888.0" type="line"/>
      <point x="502.0" y="1888.0" type="line"/>
    </contour>
  </outline>
</glyph>
<glyph name="Udieresis" format="2">
  <advance width="1546.0"/>
  <unicode hex="00DC"/>
  <anchor x="774.0" y="1520.0" name="_top"/>
  <anchor x="774.0" y="0.0" name="bottom"/>
  <anchor x="926.0" y="4.0" name="ogonek"/>
  <anchor x="774.0" y="1520.0" name="top"/>
  <anchor x="1272.0" y="1480.0" name="topright"/>
  <outline>
    <contour>
      <point x="774.0" y="-18.0" type="curve" smooth="yes"/>
      <point x="1156.0" y="-18.0"/>
      <point x="1338.0" y="154.0"/>
      <point x="1338.0" y="566.0" type="curve" smooth="yes"/>
      <point x="1338.0" y="1480.0" type="line"/>
      <point x="1272.0" y="1480.0" type="line"/>
      <point x="1272.0" y="556.0" type="line" smooth="yes"/>
      <point x="1272.0" y="198.0"/>
      <point x="1114.0" y="48.0"/>
      <point x="774.0" y="48.0" type="curve" smooth="yes"/>
      <point x="434.0" y="48.0"/>
      <point x="276.0" y="198.0"/>
      <point x="276.0" y="556.0" type="curve" smooth="yes"/>
      <point x="276.0" y="1480.0" type="line"/>
      <point x="208.0" y="1480.0" type="line"/>
      <point x="208.0" y="566.0" type="line" smooth="yes"/>
      <point x="208.0" y="154.0"/>
      <point x="392.0" y="-18.0"/>
    </contour>
    <contour>
      <point x="1034.0" y="1690.0" type="curve" smooth="yes"/>
      <point x="1070.0" y="1690.0"/>
      <point x="1096.0" y="1714.0"/>
      <point x="1096.0" y="1752.0" type="curve" smooth="yes"/>
      <point x="1096.0" y="1790.0"/>
      <point x="1070.0" y="1816.0"/>
      <point x="1034.0" y="1816.0" type="curve" smooth="yes"/>
      <point x="998.0" y="1816.0"/>
      <point x="972.0" y="1790.0"/>
      <point x="972.0" y="1752.0" type="curve" smooth="yes"/>
      <point x="972.0" y="1714.0"/>
      <point x="998.0" y="1690.0"/>
    </contour>
    <contour>
      <point x="514.0" y="1690.0" type="curve" smooth="yes"/>
      <point x="550.0" y="1690.0"/>
      <point x="576.0" y="1714.0"/>
      <point x="576.0" y="1752.0" type="curve" smooth="yes"/>
      <point x="576.0" y="1790.0"/>
      <point x="550.0" y="1816.0"/>
      <point x="514.0" y="1816.0" type="curve" smooth="yes"/>
      <point x="478.0" y="1816.0"/>
      <point x="452.0" y="1790.0"/>
      <point x="452.0" y="1752.0" type="curve" smooth="yes"/>
      <point x="452.0" y="1714.0"/>
      <point x="478.0" y="1690.0"/>
    </contour>
  </outline>
</glyph>
<glyph name="aacute" format="2">
  <advance width="1106.0"/>
  <unicode hex="00E1"/>
  <anchor x="550.0" y="1200.0" name="_top"/>
  <anchor x="574.0" y="0.0" name="bottom"/>
  <anchor x="928.0" y="0.0" name="ogonek"/>
  <anchor x="550.0" y="1200.0" name="top"/>
  <outline>
    <contour>
      <point x="478.0" y="-16.0" type="curve" smooth="yes"/>
      <point x="628.0" y="-16.0"/>
      <point x="772.0" y="46.0"/>
      <point x="854.0" y="134.0" type="curve"/>
      <point x="862.0" y="134.0" type="line"/>
      <point x="868.0" y="0.0" type="line"/>
      <point x="928.0" y="0.0" type="line"/>
      <point x="928.0" y="738.0" type="line" smooth="yes"/>
      <point x="928.0" y="1012.0"/>
      <point x="778.0" y="1096.0"/>
      <point x="524.0" y="1096.0" type="curve" smooth="yes"/>
      <point x="414.0" y="1096.0"/>
      <point x="290.0" y="1078.0"/>
      <point x="196.0" y="1042.0" type="curve"/>
      <point x="196.0" y="974.0" type="line"/>
      <point x="314.0" y="1016.0"/>
      <point x="432.0" y="1030.0"/>
      <point x="526.0" y="1030.0" type="curve" smooth="yes"/>
      <point x="738.0" y="1030.0"/>
      <point x="860.0" y="972.0"/>
      <point x="860.0" y="736.0" type="curve" smooth="yes"/>
      <point x="860.0" y="218.0" type="line"/>
      <point x="756.0" y="106.0"/>
      <point x="620.0" y="50.0"/>
      <point x="478.0" y="50.0" type="curve" smooth="yes"/>
      <point x="292.0" y="50.0"/>
      <point x="208.0" y="134.0"/>
      <point x="208.0" y="272.0" type="curve" smooth="yes"/>
      <point x="208.0" y="406.0"/>
      <point x="294.0" y="478.0"/>
      <point x="522.0" y="506.0" type="curve" smooth="yes"/>
      <point x="898.0" y="552.0" type="line"/>
      <point x="902.0" y="618.0" type="line"/>
      <point x="524.0" y="572.0" type="line" smooth="yes"/>
      <point x="246.0" y="538.0"/>
      <point x="134.0" y="444.0"/>
      <point x="134.0" y="268.0" type="curve" smooth="yes"/>
      <point x="134.0" y="90.0"/>
      <point x="260.0" y="-16.0"/>
    </contour>
    <contour>
      <point x="514.0" y="1264.0" type="line"/>
      <point x="586.0" y="1264.0" type="line"/>
      <point x="866.0" y="1616.0" type="line"/>
      <point x="782.0" y="1616.0" type="line"/>
    </contour>
  </outline>
</glyph>
<glyph name="atilde" format="2">
  <advance width="1106.0"/>
  <unicode hex="00E3"/>
  <anchor x="550.0" y="1200.0" name="_top"/>
  <anchor x="574.0" y="0.0" name="bottom"/>
  <anchor x="928.0" y="0.0" name="ogonek"/>
  <anchor x="550.0" y="1200.0" name="top"/>
  <outline>
    <contour>
      <point x="478.0" y="-16.0" type="curve" smooth="yes"/>
      <point x="628.0" y="-16.0"/>
      <point x="772.0" y="46.0"/>
      <point x="854.0" y="134.0" type="curve"/>
      <point x="862.0" y="134.0" type="line"/>
      <point x="868.0" y="0.0" type="line"/>
      <point x="928.0" y="0.0" type="line"/>
      <point x="928.0" y="738.0" type="line" smooth="yes"/>
      <point x="928.0" y="1012.0"/>
      <point x="778.0" y="1096.0"/>
      <point x="524.0" y="1096.0" type="curve" smooth="yes"/>
      <point x="414.0" y="1096.0"/>
      <point x="290.0" y="1078.0"/>
      <point x="196.0" y="1042.0" type="curve"/>
      <point x="196.0" y="974.0" type="line"/>
      <point x="314.0" y="1016.0"/>
      <point x="432.0" y="1030.0"/>
      <point x="526.0" y="1030.0" type="curve" smooth="yes"/>
      <point x="738.0" y="1030.0"/>
      <point x="860.0" y="972.0"/>
      <point x="860.0" y="736.0" type="curve" smooth="yes"/>
      <point x="860.0" y="218.0" type="line"/>
      <point x="756.0" y="106.0"/>
      <point x="620.0" y="50.0"/>
      <point x="478.0" y="50.0" type="curve" smooth="yes"/>
      <point x="292.0" y="50.0"/>
      <point x="208.0" y="134.0"/>
      <point x="208.0" y="272.0" type="curve" smooth="yes"/>
      <point x="208.0" y="406.0"/>
      <point x="294.0" y="478.0"/>
      <point x="522.0" y="506.0" type="curve" smooth="yes"/>
      <point x="898.0" y="552.0" type="line"/>
      <point x="902.0" y="618.0" type="line"/>
      <point x="524.0" y="572.0" type="line" smooth="yes"/>
      <point x="246.0" y="538.0"/>
      <point x="134.0" y="444.0"/>
      <point x="134.0" y="268.0" type="curve" smooth="yes"/>
      <point x="134.0" y="90.0"/>
      <point x="260.0" y="-16.0"/>
    </contour>
    <contour>
      <point x="700.0" y="1380.0" type="curve" smooth="yes"/>
      <point x="770.0" y="1380.0"/>
      <point x="826.0" y="1400.0"/>
      <point x="866.0" y="1440.0" type="curve"/>
      <point x="866.0" y="1508.0" type="line"/>
      <point x="818.0" y="1460.0"/>
      <point x="766.0" y="1438.0"/>
      <point x="700.0" y="1438.0" type="curve" smooth="yes"/>
      <point x="608.0" y="1438.0"/>
      <point x="514.0" y="1512.0"/>
      <point x="400.0" y="1512.0" type="curve" smooth="yes"/>
      <point x="330.0" y="1512.0"/>
      <point x="274.0" y="1492.0"/>
      <point x="234.0" y="1452.0" type="curve"/>
      <point x="234.0" y="1384.0" type="line"/>
      <point x="282.0" y="1432.0"/>
      <point x="334.0" y="1454.0"/>
      <point x="400.0" y="1454.0" type="curve" smooth="yes"/>
      <point x="492.0" y="1454.0"/>
      <point x="586.0" y="1380.0"/>
    </contour>
  </outline>
</glyph>
<glyph name="adieresis" format="2">
  <advance width="1106.0"/>
  <unicode hex="00E4"/>
  <anchor x="550.0" y="1200.0" name="_top"/>
  <anchor x="574.0" y="0.0" name="bottom"/>
  <anchor x="928.0" y="0.0" name="ogonek"/>
  <anchor x="550.0" y="1200.0" name="top"/>
  <outline>
    <contour>
      <point x="478.0" y="-16.0" type="curve" smooth="yes"/>
      <point x="628.0" y="-16.0"/>
      <point x="772.0" y="46.0"/>
      <point x="854.0" y="134.0" type="curve"/>
      <point x="862.0" y="134.0" type="line"/>
      <point x="868.0" y="0.0" type="line"/>
      <point x="928.0" y="0.0" type="line"/>
      <point x="928.0" y="738.0" type="line" smooth="yes"/>
      <point x="928.0" y="1012.0"/>
      <point x="778.0" y="1096.0"/>
      <point x="524.0" y="1096.0" type="curve" smooth="yes"/>
      <point x="414.0" y="1096.0"/>
      <point x="290.0" y="1078.0"/>
      <point x="196.0" y="1042.0" type="curve"/>
      <point x="196.0" y="974.0" type="line"/>
      <point x="314.0" y="1016.0"/>
      <point x="432.0" y="1030.0"/>
      <point x="526.0" y="1030.0" type="curve" smooth="yes"/>
      <point x="738.0" y="1030.0"/>
      <point x="860.0" y="972.0"/>
      <point x="860.0" y="736.0" type="curve" smooth="yes"/>
      <point x="860.0" y="218.0" type="line"/>
      <point x="756.0" y="106.0"/>
      <point x="620.0" y="50.0"/>
      <point x="478.0" y="50.0" type="curve" smooth="yes"/>
      <point x="292.0" y="50.0"/>
      <point x="208.0" y="134.0"/>
      <point x="208.0" y="272.0" type="curve" smooth="yes"/>
      <point x="208.0" y="406.0"/>
      <point x="294.0" y="478.0"/>
      <point x="522.0" y="506.0" type="curve" smooth="yes"/>
      <point x="898.0" y="552.0" type="line"/>
      <point x="902.0" y="618.0" type="line"/>
      <point x="524.0" y="572.0" type="line" smooth="yes"/>
      <point x="246.0" y="538.0"/>
      <point x="134.0" y="444.0"/>
      <point x="134.0" y="268.0" type="curve" smooth="yes"/>
      <point x="134.0" y="90.0"/>
      <point x="260.0" y="-16.0"/>
    </contour>
    <contour>
      <point x="790.0" y="1360.0" type="curve" smooth="yes"/>
      <point x="826.0" y="1360.0"/>
      <point x="852.0" y="1384.0"/>
      <point x="852.0" y="1422.0" type="curve" smooth="yes"/>
      <point x="852.0" y="1460.0"/>
      <point x="826.0" y="1486.0"/>
      <point x="790.0" y="1486.0" type="curve" smooth="yes"/>
      <point x="754.0" y="1486.0"/>
      <point x="728.0" y="1460.0"/>
      <point x="728.0" y="1422.0" type="curve" smooth="yes"/>
      <point x="728.0" y="1384.0"/>
      <point x="754.0" y="1360.0"/>
    </contour>
    <contour>
      <point x="310.0" y="1360.0" type="curve" smooth="yes"/>
      <point x="346.0" y="1360.0"/>
      <point x="372.0" y="1384.0"/>
      <point x="372.0" y="1422.0" type="curve" smooth="yes"/>
      <point x="372.0" y="1460.0"/>
      <point x="346.0" y="1486.0"/>
      <point x="310.0" y="1486.0" type="curve" smooth="yes"/>
      <point x="274.0" y="1486.0"/>
      <point x="248.0" y="1460.0"/>
      <point x="248.0" y="1422.0" type="curve" smooth="yes"/>
      <point x="248.0" y="1384.0"/>
      <point x="274.0" y="1360.0"/>
    </contour>
  </outline>
</glyph>
<glyph name="ccedilla" format="2">
  <advance width="950.0"/>
  <unicode hex="00E7"/>
  <anchor x="568.0" y="0.0" name="_bottom"/>
  <anchor x="568.0" y="0.0" name="bottom"/>
  <anchor x="574.0" y="1200.0" name="top"/>
  <outline>
    <contour>
      <point x="608.0" y="-18.0" type="curve" smooth="yes"/>
      <point x="704.0" y="-18.0"/>
      <point x="804.0" y="0.0"/>
      <point x="900.0" y="36.0" type="curve"/>
      <point x="900.0" y="104.0" type="line"/>
      <point x="788.0" y="64.0"/>
      <point x="696.0" y="48.0"/>
      <point x="614.0" y="48.0" type="curve" smooth="yes"/>
      <point x="346.0" y="48.0"/>
      <point x="200.0" y="192.0"/>
      <point x="200.0" y="544.0" type="curve" smooth="yes"/>
      <point x="200.0" y="888.0"/>
      <point x="354.0" y="1030.0"/>
      <point x="652.0" y="1030.0" type="curve" smooth="yes"/>
      <point x="744.0" y="1030.0"/>
      <point x="822.0" y="1016.0"/>
      <point x="900.0" y="992.0" type="curve"/>
      <point x="900.0" y="1060.0" type="line"/>
      <point x="826.0" y="1084.0"/>
      <point x="736.0" y="1096.0"/>
      <point x="652.0" y="1096.0" type="curve" smooth="yes"/>
      <point x="314.0" y="1096.0"/>
      <point x="128.0" y="922.0"/>
      <point x="128.0" y="540.0" type="curve" smooth="yes"/>
      <point x="128.0" y="156.0"/>
      <point x="304.0" y="-18.0"/>
    </contour>
    <contour>
      <point x="582.0" y="-400.0" type="curve" smooth="yes"/>
      <point x="698.0" y="-400.0"/>
      <point x="768.0" y="-350.0"/>
      <point x="768.0" y="-256.0" type="curve" smooth="yes"/>
      <point x="768.0" y="-162.0"/>
      <point x="698.0" y="-112.0"/>
      <point x="582.0" y="-112.0" type="curve"/>
      <point x="598.0" y="-142.0" type="line"/>
      <point x="598.0" y="20.0" type="line"/>
      <point x="542.0" y="20.0" type="line"/>
      <point x="542.0" y="-164.0" type="line"/>
      <point x="580.0" y="-164.0" type="line" smooth="yes"/>
      <point x="668.0" y="-164.0"/>
      <point x="712.0" y="-192.0"/>
      <point x="712.0" y="-256.0" type="curve" smooth="yes"/>
      <point x="712.0" y="-320.0"/>
      <point x="668.0" y="-348.0"/>
      <point x="582.0" y="-348.0" type="curve" smooth="yes"/>
      <point x="524.0" y="-348.0"/>
      <point x="464.0" y="-336.0"/>
      <point x="400.0" y="-304.0" type="curve"/>
      <point x="400.0" y="-360.0" type="line"/>
      <point x="446.0" y="-386.0"/>
      <point x="520.0" y="-400.0"/>
    </contour>
  </outline>
</glyph>
<glyph name="igrave" format="2">
  <advance width="460.0"/>
  <unicode hex="00EC"/>
  <anchor x="230.0" y="1200.0" name="_top"/>
  <anchor x="230.0" y="0.0" name="bottom"/>
  <anchor x="264.0" y="0.0" name="ogonek"/>
  <anchor x="230.0" y="1200.0" name="top"/>
  <outline>
    <contour>
      <point x="196.0" y="0.0" type="line"/>
      <point x="264.0" y="0.0" type="line"/>
      <point x="264.0" y="1080.0" type="line"/>
      <point x="196.0" y="1080.0" type="line"/>
    </contour>
    <contour>
      <point x="194.0" y="1264.0" type="line"/>
      <point x="266.0" y="1264.0" type="line"/>
      <point x="-2.0" y="1616.0" type="line"/>
      <point x="-86.0" y="1616.0" type="line"/>
    </contour>
  </outline>
</glyph>
<glyph name="icircumflex" format="2">
  <advance width="460.0"/>
  <unicode hex="00EE"/>
  <anchor x="230.0" y="1200.0" name="_top"/>
  <anchor x="230.0" y="0.0" name="bottom"/>
  <anchor x="264.0" y="0.0" name="ogonek"/>
  <anchor x="230.0" y="1200.0" name="top"/>
  <outline>
    <contour>
      <point x="196.0" y="0.0" type="line"/>
      <point x="264.0" y="0.0" type="line"/>
      <point x="264.0" y="1080.0" type="line"/>
      <point x="196.0" y="1080.0" type="line"/>
    </contour>
    <contour>
      <point x="-68.0" y="1264.0" type="line"/>
      <point x="10.0" y="1264.0" type="line"/>
      <point x="248.0" y="1592.0" type="line"/>
      <point x="212.0" y="1592.0" type="line"/>
      <point x="450.0" y="1264.0" type="line"/>
      <point x="528.0" y="1264.0" type="line"/>
      <point x="268.0" y="1616.0" type="line"/>
      <point x="192.0" y="1616.0" type="line"/>
    </contour>
  </outline>
</glyph>
<glyph name="idieresis" format="2">
  <advance width="460.0"/>
  <unicode hex="00EF"/>
  <anchor x="230.0" y="1200.0" name="_top"/>
  <anchor x="230.0" y="0.0" name="bottom"/>
  <anchor x="264.0" y="0.0" name="ogonek"/>
  <anchor x="230.0" y="1200.0" name="top"/>
  <outline>
    <contour>
      <point x="196.0" y="0.0" type="line"/>
      <point x="264.0" y="0.0" type="line"/>
      <point x="264.0" y="1080.0" type="line"/>
      <point x="196.0" y="1080.0" type="line"/>
    </contour>
    <contour>
      <point x="470.0" y="1360.0" type="curve" smooth="yes"/>
      <point x="506.0" y="1360.0"/>
      <point x="532.0" y="1384.0"/>
      <point x="532.0" y="1422.0" type="curve" smooth="yes"/>
      <point x="532.0" y="1460.0"/>
      <point x="506.0" y="1486.0"/>
      <point x="470.0" y="1486.0" type="curve" smooth="yes"/>
      <point x="434.0" y="1486.0"/>
      <point x="408.0" y="1460.0"/>
      <point x="408.0" y="1422.0" type="curve" smooth="yes"/>
      <point x="408.0" y="1384.0"/>
      <point x="434.0" y="1360.0"/>
    </contour>
    <contour>
      <point x="-10.0" y="1360.0" type="curve" smooth="yes"/>
      <point x="26.0" y="1360.0"/>
      <point x="52.0" y="1384.0"/>
      <point x="52.0" y="1422.0" type="curve" smooth="yes"/>
      <point x="52.0" y="1460.0"/>
      <point x="26.0" y="1486.0"/>
      <point x="-10.0" y="1486.0" type="curve" smooth="yes"/>
      <point x="-46.0" y="1486.0"/>
      <point x="-72.0" y="1460.0"/>
      <point x="-72.0" y="1422.0" type="curve" smooth="yes"/>
      <point x="-72.0" y="1384.0"/>
      <point x="-46.0" y="1360.0"/>
    </contour>
  </outline>
</glyph>
<glyph name="ograve" format="2">
  <advance width="1204.0"/>
  <unicode hex="00F2"/>
  <anchor x="602.0" y="1200.0" name="_top"/>
  <anchor x="602.0" y="0.0" name="bottom"/>
  <anchor x="602.0" y="540.0" name="center"/>
  <anchor x="748.0" y="0.0" name="ogonek"/>
  <anchor x="602.0" y="1200.0" name="top"/>
  <anchor x="740.0" y="1080.0" name="topright"/>
  <outline>
    <contour>
      <point x="602.0" y="-18.0" type="curve" smooth="yes"/>
      <point x="882.0" y="-18.0"/>
      <point x="1076.0" y="154.0"/>
      <point x="1076.0" y="540.0" type="curve" smooth="yes"/>
      <point x="1076.0" y="934.0"/>
      <point x="886.0" y="1096.0"/>
      <point x="602.0" y="1096.0" type="curve" smooth="yes"/>
      <point x="322.0" y="1096.0"/>
      <point x="128.0" y="926.0"/>
      <point x="128.0" y="540.0" type="curve" smooth="yes"/>
      <point x="128.0" y="146.0"/>
      <point x="318.0" y="-18.0"/>
    </contour>
    <contour>
      <point x="602.0" y="48.0" type="curve" smooth="yes"/>
      <point x="358.0" y="48.0"/>
      <point x="200.0" y="184.0"/>
      <point x="200.0" y="542.0" type="curve" smooth="yes"/>
      <point x="200.0" y="896.0"/>
      <point x="358.0" y="1030.0"/>
      <point x="602.0" y="1030.0" type="curve" smooth="yes"/>
      <point x="846.0" y="1030.0"/>
      <point x="1004.0" y="896.0"/>
      <point x="1004.0" y="538.0" type="curve" smooth="yes"/>
      <point x="1004.0" y="184.0"/>
      <point x="846.0" y="48.0"/>
    </contour>
    <contour>
      <point x="566.0" y="1264.0" type="line"/>
      <point x="638.0" y="1264.0" type="line"/>
      <point x="370.0" y="1616.0" type="line"/>
      <point x="286.0" y="1616.0" type="line"/>
    </contour>
  </outline>
</glyph>
<glyph name="oslash" format="2">
  <advance width="1204.0"/>
  <unicode hex="00F8"/>
  <anchor x="602.0" y="540.0" name="_center"/>
  <anchor x="602.0" y="0.0" name="bottom"/>
  <anchor x="602.0" y="540.0" name="center"/>
  <anchor x="748.0" y="0.0" name="ogonek"/>
  <anchor x="590.0" y="1200.0" name="top"/>
  <anchor x="740.0" y="1080.0" name="topright"/>
  <outline>
    <contour>
      <point x="602.0" y="-18.0" type="curve" smooth="yes"/>
      <point x="882.0" y="-18.0"/>
      <point x="1076.0" y="154.0"/>
      <point x="1076.0" y="540.0" type="curve" smooth="yes"/>
      <point x="1076.0" y="934.0"/>
      <point x="886.0" y="1096.0"/>
      <point x="602.0" y="1096.0" type="curve" smooth="yes"/>
      <point x="322.0" y="1096.0"/>
      <point x="128.0" y="926.0"/>
      <point x="128.0" y="540.0" type="curve" smooth="yes"/>
      <point x="128.0" y="146.0"/>
      <point x="318.0" y="-18.0"/>
    </contour>
    <contour>
      <point x="602.0" y="48.0" type="curve" smooth="yes"/>
      <point x="358.0" y="48.0"/>
      <point x="200.0" y="184.0"/>
      <point x="200.0" y="542.0" type="curve" smooth="yes"/>
      <point x="200.0" y="896.0"/>
      <point x="358.0" y="1030.0"/>
      <point x="602.0" y="1030.0" type="curve" smooth="yes"/>
      <point x="846.0" y="1030.0"/>
      <point x="1004.0" y="896.0"/>
      <point x="1004.0" y="538.0" type="curve" smooth="yes"/>
      <point x="1004.0" y="184.0"/>
      <point x="846.0" y="48.0"/>
    </contour>
    <contour>
      <point x="206.0" y="-16.0" type="line"/>
      <point x="294.0" y="96.0" type="line"/>
      <point x="322.0" y="132.0" type="line"/>
      <point x="930.0" y="908.0" type="line"/>
      <point x="958.0" y="944.0" type="line"/>
      <point x="1046.0" y="1056.0" type="line"/>
      <point x="998.0" y="1096.0" type="line"/>
      <point x="910.0" y="984.0" type="line"/>
      <point x="882.0" y="948.0" type="line"/>
      <point x="274.0" y="172.0" type="line"/>
      <point x="246.0" y="136.0" type="line"/>
      <point x="158.0" y="24.0" type="line"/>
    </contour>
  </outline>
</glyph>
<glyph name="ugrave" format="2">
  <advance width="1234.0"/>
  <unicode hex="00F9"/>
  <anchor x="608.0" y="1200.0" name="_top"/>
  <anchor x="608.0" y="0.0" name="bottom"/>
  <anchor x="1038.0" y="0.0" name="ogonek"/>
  <anchor x="608.0" y="1200.0" name="top"/>
  <anchor x="970.0" y="1080.0" name="topright"/>
  <outline>
    <contour>
      <point x="558.0" y="-18.0" type="curve" smooth="yes"/>
      <point x="710.0" y="-18.0"/>
      <point x="854.0" y="32.0"/>
      <point x="964.0" y="128.0" type="curve"/>
      <point x="972.0" y="128.0" type="line"/>
      <point x="978.0" y="0.0" type="line"/>
      <point x="1038.0" y="0.0" type="line"/>
      <point x="1038.0" y="1080.0" type="line"/>
      <point x="970.0" y="1080.0" type="line"/>
      <point x="970.0" y="224.0" type="line"/>
      <point x="856.0" y="102.0"/>
      <point x="700.0" y="48.0"/>
      <point x="560.0" y="48.0" type="curve" smooth="yes"/>
      <point x="374.0" y="48.0"/>
      <point x="246.0" y="132.0"/>
      <point x="246.0" y="372.0" type="curve" smooth="yes"/>
      <point x="246.0" y="1080.0" type="line"/>
      <point x="178.0" y="1080.0" type="line"/>
      <point x="178.0" y="370.0" type="line" smooth="yes"/>
      <point x="178.0" y="90.0"/>
      <point x="332.0" y="-18.0"/>
    </contour>
    <contour>
      <point x="572.0" y="1264.0" type="line"/>
      <point x="644.0" y="1264.0" type="line"/>
      <point x="376.0" y="1616.0" type="line"/>
      <point x="292.0" y="1616.0" type="line"/>
    </contour>
  </outline>
</glyph>
<glyph name="yacute" format="2">
  <advance width="1132.0"/>
  <unicode hex="00FD"/>
  <anchor x="568.0" y="1200.0" name="_top"/>
  <anchor x="810.0" y="0.0" name="bottom"/>
  <anchor x="568.0" y="1200.0" name="top"/>
  <outline>
    <contour>
      <point x="344.0" y="-440.0" type="line"/>
      <point x="416.0" y="-440.0" type="line"/>
      <point x="1094.0" y="1080.0" type="line"/>
      <point x="1024.0" y="1080.0" type="line"/>
      <point x="562.0" y="38.0" type="line"/>
      <point x="540.0" y="0.0" type="line"/>
    </contour>
    <contour>
      <point x="520.0" y="0.0" type="line"/>
      <point x="590.0" y="0.0" type="line"/>
      <point x="114.0" y="1080.0" type="line"/>
      <point x="38.0" y="1080.0" type="line"/>
    </contour>
    <contour>
      <point x="532.0" y="1264.0" type="line"/>
      <point x="604.0" y="1264.0" type="line"/>
      <point x="884.0" y="1616.0" type="line"/>
      <point x="800.0" y="1616.0" type="line"/>
    </contour>
  </outline>
</glyph>
<glyph name="ydieresis" format="2">
  <advance width="1132.0"/>
  <unicode hex="00FF"/>
  <anchor x="568.0" y="1200.0" name="_top"/>
  <anchor x="810.0" y="0.0" name="bottom"/>
  <anchor x="568.0" y="1200.0" name="top"/>
  <outline>
    <contour>
      <point x="344.0" y="-440.0" type="line"/>
      <point x="416.0" y="-440.0" type="line"/>
      <point x="1094.0" y="1080.0" type="line"/>
      <point x="1024.0" y="1080.0" type="line"/>
      <point x="562.0" y="38.0" type="line"/>
      <point x="540.0" y="0.0" type="line"/>
    </contour>
    <contour>
      <point x="520.0" y="0.0" type="line"/>
      <point x="590.0" y="0.0" type="line"/>
      <point x="114.0" y="1080.0" type="line"/>
      <point x="38.0" y="1080.0" type="line"/>
    </contour>
    <contour>
      <point x="808.0" y="1360.0" type="curve" smooth="yes"/>
      <point x="844.0" y="1360.0"/>
      <point x="870.0" y="1384.0"/>
      <point x="870.0" y="1422.0" type="curve" smooth="yes"/>
      <point x="870.0" y="1460.0"/>
      <point x="844.0" y="1486.0"/>
      <point x="808.0" y="1486.0" type="curve" smooth="yes"/>
      <point x="772.0" y="1486.0"/>
      <point x="746.0" y="1460.0"/>
      <point x="746.0" y="1422.0" type="curve" smooth="yes"/>
      <point x="746.0" y="1384.0"/>
      <point x="772.0" y="1360.0"/>
    </contour>
    <contour>
      <point x="328.0" y="1360.0" type="curve" smooth="yes"/>
      <point x="364.0" y="1360.0"/>
      <point x="390.0" y="1384.0"/>
      <point x="390.0" y="1422.0" type="curve" smooth="yes"/>
      <point x="390.0" y="1460.0"/>
      <point x="364.0" y="1486.0"/>
      <point x="328.0" y="1486.0" type="curve" smooth="yes"/>
      <point x="292.0" y="1486.0"/>
      <point x="266.0" y="1460.0"/>
      <point x="266.0" y="1422.0" type="curve" smooth="yes"/>
      <point x="266.0" y="1384.0"/>
      <point x="292.0" y="1360.0"/>
    </contour>
  </outline>
</glyph>
<glyph name="Abreve" format="2">
  <advance width="1442.0"/>
  <unicode hex="0102"/>
  <anchor x="722.0" y="1520.0" name="_top"/>
  <anchor x="722.0" y="0.0" name="bottom"/>
  <anchor x="1394.0" y="0.0" name="ogonek"/>
  <anchor x="722.0" y="1520.0" name="top"/>
  <outline>
    <contour>
      <point x="48.0" y="0.0" type="line"/>
      <point x="122.0" y="0.0" type="line"/>
      <point x="732.0" y="1440.0" type="line"/>
      <point x="708.0" y="1440.0" type="line"/>
      <point x="1318.0" y="0.0" type="line"/>
      <point x="1394.0" y="0.0" type="line"/>
      <point x="764.0" y="1480.0" type="line"/>
      <point x="678.0" y="1480.0" type="line"/>
    </contour>
    <contour>
      <point x="322.0" y="528.0" type="line"/>
      <point x="1120.0" y="528.0" type="line"/>
      <point x="1100.0" y="594.0" type="line"/>
      <point x="342.0" y="594.0" type="line"/>
    </contour>
    <contour>
      <point x="724.0" y="1628.0" type="curve" smooth="yes"/>
      <point x="936.0" y="1628.0"/>
      <point x="1030.0" y="1730.0"/>
      <point x="1044.0" y="1860.0" type="curve"/>
      <point x="984.0" y="1860.0" type="line"/>
      <point x="968.0" y="1758.0"/>
      <point x="906.0" y="1688.0"/>
      <point x="724.0" y="1688.0" type="curve" smooth="yes"/>
      <point x="542.0" y="1688.0"/>
      <point x="476.0" y="1758.0"/>
      <point x="460.0" y="1860.0" type="curve"/>
      <point x="400.0" y="1860.0" type="line"/>
      <point x="414.0" y="1732.0"/>
      <point x="512.0" y="1628.0"/>
    </contour>
  </outline>
</glyph>
<glyph name="Aogonek" format="2">
  <advance width="1442.0"/>
  <unicode hex="0104"/>
  <anchor x="1394.0" y="0.0" name="_ogonek"/>
  <anchor x="722.0" y="0.0" name="bottom"/>
  <anchor x="1394.0" y="0.0" name="ogonek"/>
  <anchor x="722.0" y="1520.0" name="top"/>
  <outline>
    <contour>
      <point x="48.0" y="0.0" type="line"/>
      <point x="122.0" y="0.0" type="line"/>
      <point x="732.0" y="1440.0" type="line"/>
      <point x="708.0" y="1440.0" type="line"/>
      <point x="1318.0" y="0.0" type="line"/>
      <point x="1394.0" y="0.0" type="line"/>
      <point x="764.0" y="1480.0" type="line"/>
      <point x="678.0" y="1480.0" type="line"/>
    </contour>
    <contour>
      <point x="322.0" y="528.0" type="line"/>
      <point x="1120.0" y="528.0" type="line"/>
      <point x="1100.0" y="594.0" type="line"/>
      <point x="342.0" y="594.0" type="line"/>
    </contour>
    <contour>
      <point x="1344.0" y="-400.0" type="curve" smooth="yes"/>
      <point x="1406.0" y="-400.0"/>
      <point x="1470.0" y="-386.0"/>
      <point x="1532.0" y="-360.0" type="curve"/>
      <point x="1532.0" y="-306.0" type="line"/>
      <point x="1454.0" y="-334.0"/>
      <point x="1402.0" y="-348.0"/>
      <point x="1340.0" y="-348.0" type="curve" smooth="yes"/>
      <point x="1236.0" y="-348.0"/>
      <point x="1180.0" y="-304.0"/>
      <point x="1180.0" y="-228.0" type="curve" smooth="yes"/>
      <point x="1180.0" y="-148.0"/>
      <point x="1224.0" y="-80.0"/>
      <point x="1394.0" y="0.0" type="curve"/>
      <point x="1370.0" y="48.0" type="line"/>
      <point x="1182.0" y="-40.0"/>
      <point x="1124.0" y="-128.0"/>
      <point x="1124.0" y="-230.0" type="curve" smooth="yes"/>
      <point x="1124.0" y="-336.0"/>
      <point x="1202.0" y="-400.0"/>
    </contour>
  </outline>
</glyph>
<glyph name="Ccircumflex" format="2">
  <advance width="1272.0"/>
  <unicode hex="0108"/>
  <anchor x="760.0" y="1520.0" name="_top"/>
  <anchor x="780.0" y="0.0" name="bottom"/>
  <anchor x="760.0" y="1520.0" name="top"/>
  <outline>
    <contour>
      <point x="824.0" y="-18.0" type="curve" smooth="yes"/>
      <point x="970.0" y="-18.0"/>
      <point x="1094.0" y="2.0"/>
      <point x="1218.0" y="48.0" type="curve"/>
      <point x="1218.0" y="116.0" type="line"/>
      <point x="1070.0" y="64.0"/>
      <point x="958.0" y="48.0"/>
      <point x="826.0" y="48.0" type="curve" smooth="yes"/>
      <point x="460.0" y="48.0"/>
      <point x="210.0" y="218.0"/>
      <point x="210.0" y="742.0" type="curve" smooth="yes"/>
      <point x="210.0" y="1238.0"/>
      <point x="448.0" y="1432.0"/>
      <point x="840.0" y="1432.0" type="curve" smooth="yes"/>
      <point x="970.0" y="1432.0"/>
      <point x="1098.0" y="1412.0"/>
      <point x="1218.0" y="1376.0" type="curve"/>
      <point x="1218.0" y="1444.0" type="line"/>
      <point x="1096.0" y="1480.0"/>
      <point x="984.0" y="1498.0"/>
      <point x="842.0" y="1498.0" type="curve" smooth="yes"/>
      <point x="416.0" y="1498.0"/>
      <point x="138.0" y="1272.0"/>
      <point x="138.0" y="738.0" type="curve" smooth="yes"/>
      <point x="138.0" y="176.0"/>
      <point x="430.0" y="-18.0"/>
    </contour>
    <contour>
      <point x="438.0" y="1616.0" type="line"/>
      <point x="530.0" y="1616.0" type="line"/>
      <point x="778.0" y="1860.0" type="line"/>
      <point x="742.0" y="1860.0" type="line"/>
      <point x="990.0" y="1616.0" type="line"/>
      <point x="1082.0" y="1616.0" type="line"/>
      <point x="798.0" y="1888.0" type="line"/>
      <point x="722.0" y="1888.0" type="line"/>
    </contour>
  </outline>
</glyph>
<glyph name="cdotaccent" format="2">
  <advance width="950.0"/>
  <unicode hex="010B"/>
  <anchor x="574.0" y="1200.0" name="_top"/>
  <anchor x="568.0" y="0.0" name="bottom"/>
  <anchor x="574.0" y="1200.0" name="top"/>
  <outline>
    <contour>
      <point x="608.0" y="-18.0" type="curve" smooth="yes"/>
      <point x="704.0" y="-18.0"/>
      <point x="804.0" y="0.0"/>
      <point x="900.0" y="36.0" type="curve"/>
      <point x="900.0" y="104.0" type="line"/>
      <point x="788.0" y="64.0"/>
      <point x="696.0" y="48.0"/>
      <point x="614.0" y="48.0" type="curve" smooth="yes"/>
      <point x="346.0" y="48.0"/>
      <point x="200.0" y="192.0"/>
      <point x="200.0" y="544.0" type="curve" smooth="yes"/>
      <point x="200.0" y="888.0"/>
      <point x="354.0" y="1030.0"/>
      <point x="652.0" y="1030.0" type="curve" smooth="yes"/>
      <point x="744.0" y="1030.0"/>
      <point x="822.0" y="1016.0"/>
      <point x="900.0" y="992.0" type="curve"/>
      <point x="900.0" y="1060.0" type="line"/>
      <point x="826.0" y="1084.0"/>
      <point x="736.0" y="1096.0"/>
      <point x="652.0" y="1096.0" type="curve" smooth="yes"/>
      <point x="314.0" y="1096.0"/>
      <point x="128.0" y="922.0"/>
      <point x="128.0" y="540.0" type="curve" smooth="yes"/>
      <point x="128.0" y="156.0"/>
      <point x="304.0" y="-18.0"/>
    </contour>
    <contour>
      <point x="574.0" y="1360.0" type="curve" smooth="yes"/>
      <point x="610.0" y="1360.0"/>
      <point x="636.0" y="1384.0"/>
      <point x="636.0" y="1422.0" type="curve" smooth="yes"/>
      <point x="636.0" y="1460.0"/>
      <point x="610.0" y="1486.0"/>
      <point x="574.0" y="1486.0" type="curve" smooth="yes"/>
      <point x="538.0" y="1486.0"/>
      <point x="512.0" y="1460.0"/>
      <point x="512.0" y="1422.0" type="curve" smooth="yes"/>
      <point x="512.0" y="1384.0"/>
      <point x="538.0" y="1360.0"/>
    </contour>
  </outline>
</glyph>
<glyph name="Ebreve" format="2">
  <advance width="1284.0"/>
  <unicode hex="0114"/>
  <anchor x="712.0" y="1520.0" name="_top"/>
  <anchor x="716.0" y="0.0" name="bottom"/>
  <anchor x="1096.0" y="0.0" name="ogonek"/>
  <anchor x="712.0" y="1520.0" name="top"/>
  <anchor x="46.0" y="1480.0" name="topleft"/>
  <outline>
    <contour>
      <point x="216.0" y="0.0" type="line"/>
      <point x="1176.0" y="0.0" type="line"/>
      <point x="1176.0" y="66.0" type="line"/>
      <point x="284.0" y="66.0" type="line"/>
      <point x="284.0" y="1414.0" type="line"/>
      <point x="1166.0" y="1414.0" type="line"/>
      <point x="1166.0" y="1480.0" type="line"/>
      <point x="216.0" y="1480.0" type="line"/>
    </contour>
    <contour>
      <point x="256.0" y="728.0" type="line"/>
      <point x="1066.0" y="728.0" type="line"/>
      <point x="1066.0" y="794.0" type="line"/>
      <point x="256.0" y="794.0" type="line"/>
    </contour>
    <contour>
      <point x="714.0" y="1628.0" type="curve" smooth="yes"/>
      <point x="926.0" y="1628.0"/>
      <point x="1020.0" y="1730.0"/>
      <point x="1034.0" y="1860.0" type="curve"/>
      <point x="974.0" y="1860.0" type="line"/>
      <point x="958.0" y="1758.0"/>
      <point x="896.0" y="1688.0"/>
      <point x="714.0" y="1688.0" type="curve" smooth="yes"/>
      <point x="532.0" y="1688.0"/>
      <point x="466.0" y="1758.0"/>
      <point x="450.0" y="1860.0" type="curve"/>
      <point x="390.0" y="1860.0" type="line"/>
      <point x="404.0" y="1732.0"/>
      <point x="502.0" y="1628.0"/>
    </contour>
  </outline>
</glyph>
<glyph name="ebreve" format="2">
  <advance width="1120.0"/>
  <unicode hex="0115"/>
  <anchor x="582.0" y="1200.0" name="_top"/>
  <anchor x="582.0" y="0.0" name="bottom"/>
  <anchor x="830.0" y="0.0" name="ogonek"/>
  <anchor x="582.0" y="1200.0" name="top"/>
  <outline>
    <contour>
      <point x="648.0" y="-18.0" type="curve" smooth="yes"/>
      <point x="752.0" y="-18.0"/>
      <point x="852.0" y="0.0"/>
      <point x="962.0" y="36.0" type="curve"/>
      <point x="962.0" y="104.0" type="line"/>
      <point x="850.0" y="68.0"/>
      <point x="750.0" y="48.0"/>
      <point x="652.0" y="48.0" type="curve" smooth="yes"/>
      <point x="370.0" y="48.0"/>
      <point x="200.0" y="192.0"/>
      <point x="200.0" y="536.0" type="curve" smooth="yes"/>
      <point x="200.0" y="548.0" type="line" smooth="yes"/>
      <point x="200.0" y="882.0"/>
      <point x="336.0" y="1030.0"/>
      <point x="576.0" y="1030.0" type="curve" smooth="yes"/>
      <point x="816.0" y="1030.0"/>
      <point x="944.0" y="880.0"/>
      <point x="944.0" y="548.0" type="curve"/>
      <point x="982.0" y="576.0" type="line"/>
      <point x="150.0" y="576.0" type="line"/>
      <point x="150.0" y="510.0" type="line"/>
      <point x="1014.0" y="510.0" type="line"/>
      <point x="1014.0" y="540.0" type="line" smooth="yes"/>
      <point x="1014.0" y="910.0"/>
      <point x="854.0" y="1096.0"/>
      <point x="576.0" y="1096.0" type="curve" smooth="yes"/>
      <point x="300.0" y="1096.0"/>
      <point x="128.0" y="912.0"/>
      <point x="128.0" y="540.0" type="curve" smooth="yes"/>
      <point x="128.0" y="156.0"/>
      <point x="322.0" y="-18.0"/>
    </contour>
    <contour>
      <point x="584.0" y="1276.0" type="curve" smooth="yes"/>
      <point x="776.0" y="1276.0"/>
      <point x="876.0" y="1406.0"/>
      <point x="884.0" y="1588.0" type="curve"/>
      <point x="824.0" y="1588.0" type="line"/>
      <point x="814.0" y="1440.0"/>
      <point x="750.0" y="1334.0"/>
      <point x="584.0" y="1334.0" type="curve" smooth="yes"/>
      <point x="418.0" y="1334.0"/>
      <point x="350.0" y="1440.0"/>
      <point x="340.0" y="1588.0" type="curve"/>
      <point x="280.0" y="1588.0" type="line"/>
      <point x="288.0" y="1408.0"/>
      <point x="390.0" y="1276.0"/>
    </contour>
  </outline>
</glyph>
<glyph name="Edotaccent" format="2">
  <advance width="1284.0"/>
  <unicode hex="0116"/>
  <anchor x="712.0" y="1520.0" name="_top"/>
  <anchor x="716.0" y="0.0" name="bottom"/>
  <anchor x="1096.0" y="0.0" name="ogonek"/>
  <anchor x="712.0" y="1520.0" name="top"/>
  <anchor x="46.0" y="1480.0" name="topleft"/>
  <outline>
    <contour>
      <point x="216.0" y="0.0" type="line"/>
      <point x="1176.0" y="0.0" type="line"/>
      <point x="1176.0" y="66.0" type="line"/>
      <point x="284.0" y="66.0" type="line"/>
      <point x="284.0" y="1414.0" type="line"/>
      <point x="1166.0" y="1414.0" type="line"/>
      <point x="1166.0" y="1480.0" type="line"/>
      <point x="216.0" y="1480.0" type="line"/>
    </contour>
    <contour>
      <point x="256.0" y="728.0" type="line"/>
      <point x="1066.0" y="728.0" type="line"/>
      <point x="1066.0" y="794.0" type="line"/>
      <point x="256.0" y="794.0" type="line"/>
    </contour>
    <contour>
      <point x="712.0" y="1690.0" type="curve" smooth="yes"/>
      <point x="748.0" y="1690.0"/>
      <point x="774.0" y="1714.0"/>
      <point x="774.0" y="1752.0" type="curve" smooth="yes"/>
      <point x="774.0" y="1790.0"/>
      <point x="748.0" y="1816.0"/>
      <point x="712.0" y="1816.0" type="curve" smooth="yes"/>
      <point x="676.0" y="1816.0"/>
      <point x="650.0" y="1790.0"/>
      <point x="650.0" y="1752.0" type="curve" smooth="yes"/>
      <point x="650.0" y="1714.0"/>
      <point x="676.0" y="1690.0"/>
    </contour>
  </outline>
</glyph>
<glyph name="eogonek" format="2">
  <advance width="1120.0"/>
  <unicode hex="0119"/>
  <outline>
    <contour>
      <point x="794.0" y="-400.0" type="curve" smooth="yes"/>
      <point x="846.0" y="-400.0"/>
      <point x="912.0" y="-384.0"/>
      <point x="962.0" y="-358.0" type="curve"/>
      <point x="962.0" y="-302.0" type="line"/>
      <point x="902.0" y="-334.0"/>
      <point x="846.0" y="-348.0"/>
      <point x="790.0" y="-348.0" type="curve" smooth="yes"/>
      <point x="704.0" y="-348.0"/>
      <point x="650.0" y="-302.0"/>
      <point x="650.0" y="-226.0" type="curve" smooth="yes"/>
      <point x="650.0" y="-140.0"/>
      <point x="712.0" y="-38.0"/>
      <point x="962.0" y="36.0" type="curve"/>
      <point x="962.0" y="104.0" type="line"/>
      <point x="850.0" y="68.0"/>
      <point x="750.0" y="48.0"/>
      <point x="652.0" y="48.0" type="curve" smooth="yes"/>
      <point x="370.0" y="48.0"/>
      <point x="200.0" y="192.0"/>
      <point x="200.0" y="536.0" type="curve" smooth="yes"/>
      <point x="200.0" y="548.0" type="line" smooth="yes"/>
      <point x="200.0" y="882.0"/>
      <point x="336.0" y="1030.0"/>
      <point x="576.0" y="1030.0" type="curve" smooth="yes"/>
      <point x="816.0" y="1030.0"/>
      <point x="944.0" y="880.0"/>
      <point x="944.0" y="548.0" type="curve"/>
      <point x="982.0" y="576.0" type="line"/>
      <point x="150.0" y="576.0" type="line"/>
      <point x="150.0" y="510.0" type="line"/>
      <point x="1014.0" y="510.0" type="line"/>
      <point x="1014.0" y="540.0" type="line" smooth="yes"/>
      <point x="1014.0" y="910.0"/>
      <point x="854.0" y="1096.0"/>
      <point x="576.0" y="1096.0" type="curve" smooth="yes"/>
      <point x="300.0" y="1096.0"/>
      <point x="128.0" y="912.0"/>
      <point x="128.0" y="540.0" type="curve" smooth="yes"/>
      <point x="128.0" y="156.0"/>
      <point x="322.0" y="-18.0"/>
      <point x="648.0" y="-18.0" type="curve" smooth="yes"/>
      <point x="684.0" y="-18.0"/>
      <point x="722.0" y="-16.0"/>
      <point x="756.0" y="-10.0" type="curve"/>
      <point x="752.0" y="2.0" type="line"/>
      <point x="658.0" y="-48.0"/>
      <point x="594.0" y="-132.0"/>
      <point x="594.0" y="-230.0" type="curve" smooth="yes"/>
      <point x="594.0" y="-334.0"/>
      <point x="670.0" y="-400.0"/>
    </contour>
  </outline>
</glyph>
<glyph name="ecaron" format="2">
  <advance width="1120.0"/>
  <unicode hex="011B"/>
  <anchor x="582.0" y="1200.0" name="_top"/>
  <anchor x="582.0" y="0.0" name="bottom"/>
  <anchor x="830.0" y="0.0" name="ogonek"/>
  <anchor x="582.0" y="1200.0" name="top"/>
  <outline>
    <contour>
      <point x="648.0" y="-18.0" type="curve" smooth="yes"/>
      <point x="752.0" y="-18.0"/>
      <point x="852.0" y="0.0"/>
      <point x="962.0" y="36.0" type="curve"/>
      <point x="962.0" y="104.0" type="line"/>
      <point x="850.0" y="68.0"/>
      <point x="750.0" y="48.0"/>
      <point x="652.0" y="48.0" type="curve" smooth="yes"/>
      <point x="370.0" y="48.0"/>
      <point x="200.0" y="192.0"/>
      <point x="200.0" y="536.0" type="curve" smooth="yes"/>
      <point x="200.0" y="548.0" type="line" smooth="yes"/>
      <point x="200.0" y="882.0"/>
      <point x="336.0" y="1030.0"/>
      <point x="576.0" y="1030.0" type="curve" smooth="yes"/>
      <point x="816.0" y="1030.0"/>
      <point x="944.0" y="880.0"/>
      <point x="944.0" y="548.0" type="curve"/>
      <point x="982.0" y="576.0" type="line"/>
      <point x="150.0" y="576.0" type="line"/>
      <point x="150.0" y="510.0" type="line"/>
      <point x="1014.0" y="510.0" type="line"/>
      <point x="1014.0" y="540.0" type="line" smooth="yes"/>
      <point x="1014.0" y="910.0"/>
      <point x="854.0" y="1096.0"/>
      <point x="576.0" y="1096.0" type="curve" smooth="yes"/>
      <point x="300.0" y="1096.0"/>
      <point x="128.0" y="912.0"/>
      <point x="128.0" y="540.0" type="curve" smooth="yes"/>
      <point x="128.0" y="156.0"/>
      <point x="322.0" y="-18.0"/>
    </contour>
    <contour>
      <point x="544.0" y="1264.0" type="line"/>
      <point x="620.0" y="1264.0" type="line"/>
      <point x="888.0" y="1616.0" type="line"/>
      <point x="810.0" y="1616.0" type="line"/>
      <point x="564.0" y="1286.0" type="line"/>
      <point x="600.0" y="1286.0" type="line"/>
      <point x="354.0" y="1616.0" type="line"/>
      <point x="276.0" y="1616.0" type="line"/>
    </contour>
  </outline>
</glyph>
<glyph name="Itilde" format="2">
  <advance width="500.0"/>
  <unicode hex="0128"/>
  <anchor x="250.0" y="1520.0" name="_top"/>
  <anchor x="250.0" y="0.0" name="bottom"/>
  <anchor x="284.0" y="0.0" name="ogonek"/>
  <anchor x="250.0" y="1520.0" name="top"/>
  <outline>
    <contour>
      <point x="216.0" y="0.0" type="line"/>
      <point x="284.0" y="0.0" type="line"/>
      <point x="284.0" y="1480.0" type="line"/>
      <point x="216.0" y="1480.0" type="line"/>
    </contour>
    <contour>
      <point x="410.0" y="1698.0" type="curve" smooth="yes"/>
      <point x="490.0" y="1698.0"/>
      <point x="546.0" y="1718.0"/>
      <point x="586.0" y="1758.0" type="curve"/>
      <point x="586.0" y="1826.0" type="line"/>
      <point x="538.0" y="1778.0"/>
      <point x="486.0" y="1756.0"/>
      <point x="410.0" y="1756.0" type="curve" smooth="yes"/>
      <point x="308.0" y="1756.0"/>
      <point x="214.0" y="1830.0"/>
      <point x="90.0" y="1830.0" type="curve" smooth="yes"/>
      <point x="10.0" y="1830.0"/>
      <point x="-46.0" y="1810.0"/>
      <point x="-86.0" y="1770.0" type="curve"/>
      <point x="-86.0" y="1702.0" type="line"/>
      <point x="-38.0" y="1750.0"/>
      <point x="14.0" y="1772.0"/>
      <point x="90.0" y="1772.0" type="curve" smooth="yes"/>
      <point x="192.0" y="1772.0"/>
      <point x="286.0" y="1698.0"/>
    </contour>
  </outline>
</glyph>
<glyph name="itilde" format="2">
  <advance width="460.0"/>
  <unicode hex="0129"/>
  <anchor x="230.0" y="1200.0" name="_top"/>
  <anchor x="230.0" y="0.0" name="bottom"/>
  <anchor x="264.0" y="0.0" name="ogonek"/>
  <anchor x="230.0" y="1200.0" name="top"/>
  <outline>
    <contour>
      <point x="196.0" y="0.0" type="line"/>
      <point x="264.0" y="0.0" type="line"/>
      <point x="264.0" y="1080.0" type="line"/>
      <point x="196.0" y="1080.0" type="line"/>
    </contour>
    <contour>
      <point x="380.0" y="1380.0" type="curve" smooth="yes"/>
      <point x="450.0" y="1380.0"/>
      <point x="506.0" y="1400.0"/>
      <point x="546.0" y="1440.0" type="curve"/>
      <point x="546.0" y="1508.0" type="line"/>
      <point x="498.0" y="1460.0"/>
      <point x="446.0" y="1438.0"/>
      <point x="380.0" y="1438.0" type="curve" smooth="yes"/>
      <point x="288.0" y="1438.0"/>
      <point x="194.0" y="1512.0"/>
      <point x="80.0" y="1512.0" type="curve" smooth="yes"/>
      <point x="10.0" y="1512.0"/>
      <point x="-46.0" y="1492.0"/>
      <point x="-86.0" y="1452.0" type="curve"/>
      <point x="-86.0" y="1384.0" type="line"/>
      <point x="-38.0" y="1432.0"/>
      <point x="14.0" y="1454.0"/>
      <point x="80.0" y="1454.0" type="curve" smooth="yes"/>
      <point x="172.0" y="1454.0"/>
      <point x="266.0" y="1380.0"/>
    </contour>
  </outline>
</glyph>
<glyph name="Imacron" format="2">
  <advance width="500.0"/>
  <unicode hex="012A"/>
  <anchor x="250.0" y="1520.0" name="_top"/>
  <anchor x="250.0" y="0.0" name="bottom"/>
  <anchor x="284.0" y="0.0" name="ogonek"/>
  <anchor x="250.0" y="1520.0" name="top"/>
  <outline>
    <contour>
      <point x="216.0" y="0.0" type="line"/>
      <point x="284.0" y="0.0" type="line"/>
      <point x="284.0" y="1480.0" type="line"/>
      <point x="216.0" y="1480.0" type="line"/>
    </contour>
    <contour>
      <point x="-50.0" y="1722.0" type="line"/>
      <point x="550.0" y="1722.0" type="line"/>
      <point x="550.0" y="1782.0" type="line"/>
      <point x="-50.0" y="1782.0" type="line"/>
    </contour>
  </outline>
</glyph>
<glyph name="imacron" format="2">
  <advance width="460.0"/>
  <unicode hex="012B"/>
  <anchor x="230.0" y="1200.0" name="_top"/>
  <anchor x="230.0" y="0.0" name="bottom"/>
  <anchor x="264.0" y="0.0" name="ogonek"/>
  <anchor x="230.0" y="1200.0" name="top"/>
  <outline>
    <contour>
      <point x="196.0" y="0.0" type="line"/>
      <point x="264.0" y="0.0" type="line"/>
      <point x="264.0" y="1080.0" type="line"/>
      <point x="196.0" y="1080.0" type="line"/>
    </contour>
    <contour>
      <point x="-86.0" y="1394.0" type="line"/>
      <point x="546.0" y="1394.0" type="line"/>
      <point x="546.0" y="1454.0" type="line"/>
      <point x="-86.0" y="1454.0" type="line"/>
    </contour>
  </outline>
</glyph>
<glyph name="Ibreve" format="2">
  <advance width="500.0"/>
  <unicode hex="012C"/>
  <anchor x="250.0" y="1520.0" name="_top"/>
  <anchor x="250.0" y="0.0" name="bottom"/>
  <anchor x="284.0" y="0.0" name="ogonek"/>
  <anchor x="250.0" y="1520.0" name="top"/>
  <outline>
    <contour>
      <point x="216.0" y="0.0" type="line"/>
      <point x="284.0" y="0.0" type="line"/>
      <point x="284.0" y="1480.0" type="line"/>
      <point x="216.0" y="1480.0" type="line"/>
    </contour>
    <contour>
      <point x="252.0" y="1628.0" type="curve" smooth="yes"/>
      <point x="464.0" y="1628.0"/>
      <point x="558.0" y="1730.0"/>
      <point x="572.0" y="1860.0" type="curve"/>
      <point x="512.0" y="1860.0" type="line"/>
      <point x="496.0" y="1758.0"/>
      <point x="434.0" y="1688.0"/>
      <point x="252.0" y="1688.0" type="curve" smooth="yes"/>
      <point x="70.0" y="1688.0"/>
      <point x="4.0" y="1758.0"/>
      <point x="-12.0" y="1860.0" type="curve"/>
      <point x="-72.0" y="1860.0" type="line"/>
      <point x="-58.0" y="1732.0"/>
      <point x="40.0" y="1628.0"/>
    </contour>
  </outline>
</glyph>
<glyph name="Iogonek" format="2">
  <advance width="500.0"/>
  <unicode hex="012E"/>
  <anchor x="284.0" y="0.0" name="_ogonek"/>
  <anchor x="250.0" y="0.0" name="bottom"/>
  <anchor x="284.0" y="0.0" name="ogonek"/>
  <anchor x="250.0" y="1520.0" name="top"/>
  <outline>
    <contour>
      <point x="216.0" y="0.0" type="line"/>
      <point x="284.0" y="0.0" type="line"/>
      <point x="284.0" y="1480.0" type="line"/>
      <point x="216.0" y="1480.0" type="line"/>
    </contour>
    <contour>
      <point x="234.0" y="-400.0" type="curve" smooth="yes"/>
      <point x="296.0" y="-400.0"/>
      <point x="360.0" y="-386.0"/>
      <point x="422.0" y="-360.0" type="curve"/>
      <point x="422.0" y="-306.0" type="line"/>
      <point x="344.0" y="-334.0"/>
      <point x="292.0" y="-348.0"/>
      <point x="230.0" y="-348.0" type="curve" smooth="yes"/>
      <point x="126.0" y="-348.0"/>
      <point x="70.0" y="-304.0"/>
      <point x="70.0" y="-228.0" type="curve" smooth="yes"/>
      <point x="70.0" y="-148.0"/>
      <point x="114.0" y="-80.0"/>
      <point x="284.0" y="0.0" type="curve"/>
      <point x="260.0" y="48.0" type="line"/>
      <point x="72.0" y="-40.0"/>
      <point x="14.0" y="-128.0"/>
      <point x="14.0" y="-230.0" type="curve" smooth="yes"/>
      <point x="14.0" y="-336.0"/>
      <point x="92.0" y="-400.0"/>
    </contour>
  </outline>
</glyph>
<glyph name="Jcircumflex" format="2">
  <advance width="500.0"/>
  <unicode hex="0134"/>
  <anchor x="250.0" y="1520.0" name="_top"/>
  <anchor x="348.0" y="0.0" name="bottom"/>
  <anchor x="250.0" y="1520.0" name="top"/>
  <outline>
    <contour>
      <point x="52.0" y="-340.0" type="line"/>
      <point x="212.0" y="-148.0"/>
      <point x="270.0" y="22.0"/>
      <point x="284.0" y="250.0" type="curve"/>
      <point x="284.0" y="1480.0" type="line"/>
      <point x="216.0" y="1480.0" type="line"/>
      <point x="216.0" y="286.0" type="line" smooth="yes"/>
      <point x="216.0" y="56.0"/>
      <point x="150.0" y="-128.0"/>
      <point x="4.0" y="-304.0" type="curve"/>
    </contour>
    <contour>
      <point x="-72.0" y="1616.0" type="line"/>
      <point x="20.0" y="1616.0" type="line"/>
      <point x="268.0" y="1860.0" type="line"/>
      <point x="232.0" y="1860.0" type="line"/>
      <point x="480.0" y="1616.0" type="line"/>
      <point x="572.0" y="1616.0" type="line"/>
      <point x="288.0" y="1888.0" type="line"/>
      <point x="212.0" y="1888.0" type="line"/>
    </contour>
  </outline>
</glyph>
<glyph name="jcircumflex" format="2">
  <advance width="460.0"/>
  <unicode hex="0135"/>
  <anchor x="230.0" y="1212.0" name="_top"/>
  <anchor x="230.0" y="1212.0" name="top"/>
  <outline>
    <contour>
      <point x="32.0" y="-460.0" type="line"/>
      <point x="192.0" y="-268.0"/>
      <point x="264.0" y="-78.0"/>
      <point x="264.0" y="170.0" type="curve" smooth="yes"/>
      <point x="264.0" y="1080.0" type="line"/>
      <point x="196.0" y="1080.0" type="line"/>
      <point x="196.0" y="166.0" type="line" smooth="yes"/>
      <point x="196.0" y="-64.0"/>
      <point x="130.0" y="-248.0"/>
      <point x="-16.0" y="-424.0" type="curve"/>
    </contour>
    <contour>
      <point x="-68.0" y="1276.0" type="line"/>
      <point x="10.0" y="1276.0" type="line"/>
      <point x="248.0" y="1604.0" type="line"/>
      <point x="212.0" y="1604.0" type="line"/>
      <point x="450.0" y="1276.0" type="line"/>
      <point x="528.0" y="1276.0" type="line"/>
      <point x="268.0" y="1628.0" type="line"/>
      <point x="192.0" y="1628.0" type="line"/>
    </contour>
  </outline>
</glyph>
<glyph name="Kcommaaccent" format="2">
  <advance width="1326.0"/>
  <unicode hex="0136"/>
  <anchor x="676.0" y="0.0" name="_bottom"/>
  <anchor x="676.0" y="0.0" name="bottom"/>
  <anchor x="676.0" y="1480.0" name="top"/>
  <outline>
    <contour>
      <point x="1220.0" y="0.0" type="line"/>
      <point x="1308.0" y="0.0" type="line"/>
      <point x="650.0" y="774.0" type="line"/>
      <point x="650.0" y="750.0" type="line"/>
      <point x="1266.0" y="1480.0" type="line"/>
      <point x="1180.0" y="1480.0" type="line"/>
      <point x="574.0" y="758.0" type="line"/>
    </contour>
    <contour>
      <point x="216.0" y="0.0" type="line"/>
      <point x="284.0" y="0.0" type="line"/>
      <point x="284.0" y="1480.0" type="line"/>
      <point x="216.0" y="1480.0" type="line"/>
    </contour>
    <contour>
      <point x="268.0" y="728.0" type="line"/>
      <point x="620.0" y="728.0" type="line"/>
      <point x="620.0" y="794.0" type="line"/>
      <point x="268.0" y="794.0" type="line"/>
    </contour>
    <contour>
      <point x="650.0" y="-448.0" type="curve"/>
      <point x="694.0" y="-448.0" type="line"/>
      <point x="724.0" y="-386.0"/>
      <point x="738.0" y="-318.0"/>
      <point x="738.0" y="-270.0" type="curve" smooth="yes"/>
      <point x="738.0" y="-212.0"/>
      <point x="712.0" y="-184.0"/>
      <point x="672.0" y="-184.0" type="curve" smooth="yes"/>
      <point x="638.0" y="-184.0"/>
      <point x="614.0" y="-210.0"/>
      <point x="614.0" y="-246.0" type="curve" smooth="yes"/>
      <point x="614.0" y="-284.0"/>
      <point x="640.0" y="-310.0"/>
      <point x="676.0" y="-310.0" type="curve" smooth="yes"/>
      <point x="688.0" y="-310.0" type="line"/>
      <point x="684.0" y="-278.0" type="line"/>
      <point x="684.0" y="-326.0"/>
      <point x="678.0" y="-376.0"/>
    </contour>
  </outline>
</glyph>
<glyph name="lacute" format="2">
  <advance width="460.0"/>
  <unicode hex="013A"/>
  <anchor x="230.0" y="1616.0" name="_top"/>
  <anchor x="230.0" y="0.0" name="bottom"/>
  <anchor x="404.0" y="1616.0" name="caronalt"/>
  <anchor x="444.0" y="794.0" name="periodcentered"/>
  <anchor x="230.0" y="714.0" name="slash"/>
  <anchor x="230.0" y="1616.0" name="top"/>
  <outline>
    <contour>
      <point x="196.0" y="0.0" type="line"/>
      <point x="264.0" y="0.0" type="line"/>
      <point x="264.0" y="1616.0" type="line"/>
      <point x="196.0" y="1616.0" type="line"/>
    </contour>
    <contour>
      <point x="194.0" y="1712.0" type="line"/>
      <point x="266.0" y="1712.0" type="line"/>
      <point x="502.0" y="1984.0" type="line"/>
      <point x="416.0" y="1984.0" type="line"/>
    </contour>
  </outline>
</glyph>
<glyph name="lcommaaccent" format="2">
  <advance width="460.0"/>
  <unicode hex="013C"/>
  <anchor x="230.0" y="0.0" name="_bottom"/>
  <anchor x="230.0" y="0.0" name="bottom"/>
  <anchor x="404.0" y="1616.0" name="caronalt"/>
  <anchor x="444.0" y="794.0" name="periodcentered"/>
  <anchor x="230.0" y="714.0" name="slash"/>
  <anchor x="230.0" y="1616.0" name="top"/>
  <outline>
    <contour>
      <point x="196.0" y="0.0" type="line"/>
      <point x="264.0" y="0.0" type="line"/>
      <point x="264.0" y="1616.0" type="line"/>
      <point x="196.0" y="1616.0" type="line"/>
    </contour>
    <contour>
      <point x="204.0" y="-448.0" type="curve"/>
      <point x="248.0" y="-448.0" type="line"/>
      <point x="278.0" y="-386.0"/>
      <point x="292.0" y="-318.0"/>
      <point x="292.0" y="-270.0" type="curve" smooth="yes"/>
      <point x="292.0" y="-212.0"/>
      <point x="266.0" y="-184.0"/>
      <point x="226.0" y="-184.0" type="curve" smooth="yes"/>
      <point x="192.0" y="-184.0"/>
      <point x="168.0" y="-210.0"/>
      <point x="168.0" y="-246.0" type="curve" smooth="yes"/>
      <point x="168.0" y="-284.0"/>
      <point x="194.0" y="-310.0"/>
      <point x="230.0" y="-310.0" type="curve" smooth="yes"/>
      <point x="242.0" y="-310.0" type="line"/>
      <point x="238.0" y="-278.0" type="line"/>
      <point x="238.0" y="-326.0"/>
      <point x="232.0" y="-376.0"/>
    </contour>
  </outline>
</glyph>
<glyph name="Lcaron" format="2">
  <advance width="1164.0"/>
  <unicode hex="013D"/>
  <anchor x="754.0" y="1616.0" name="_caronalt"/>
  <anchor x="680.0" y="0.0" name="bottom"/>
  <anchor x="754.0" y="1616.0" name="caronalt"/>
  <anchor x="814.0" y="774.0" name="periodcentered"/>
  <anchor x="250.0" y="774.0" name="slash"/>
  <anchor x="250.0" y="1520.0" name="top"/>
  <outline>
    <contour>
      <point x="216.0" y="0.0" type="line"/>
      <point x="1142.0" y="0.0" type="line"/>
      <point x="1142.0" y="66.0" type="line"/>
      <point x="284.0" y="66.0" type="line"/>
      <point x="284.0" y="1480.0" type="line"/>
      <point x="216.0" y="1480.0" type="line"/>
    </contour>
    <contour>
      <point x="736.0" y="1140.0" type="curve"/>
      <point x="782.0" y="1140.0" type="line"/>
      <point x="810.0" y="1282.0"/>
      <point x="818.0" y="1446.0"/>
      <point x="818.0" y="1616.0" type="curve"/>
      <point x="754.0" y="1616.0" type="line"/>
      <point x="754.0" y="1452.0"/>
      <point x="752.0" y="1280.0"/>
    </contour>
  </outline>
</glyph>
<glyph name="lcaron" format="2">
  <advance width="460.0"/>
  <unicode hex="013E"/>
  <anchor x="404.0" y="1616.0" name="_caronalt"/>
  <anchor x="230.0" y="0.0" name="bottom"/>
  <anchor x="404.0" y="1616.0" name="caronalt"/>
  <anchor x="444.0" y="794.0" name="periodcentered"/>
  <anchor x="230.0" y="714.0" name="slash"/>
  <anchor x="230.0" y="1616.0" name="top"/>
  <outline>
    <contour>
      <point x="196.0" y="0.0" type="line"/>
      <point x="264.0" y="0.0" type="line"/>
      <point x="264.0" y="1616.0" type="line"/>
      <point x="196.0" y="1616.0" type="line"/>
    </contour>
    <contour>
      <point x="386.0" y="1180.0" type="curve"/>
      <point x="432.0" y="1180.0" type="line"/>
      <point x="460.0" y="1322.0"/>
      <point x="468.0" y="1486.0"/>
      <point x="468.0" y="1616.0" type="curve"/>
      <point x="404.0" y="1616.0" type="line"/>
      <point x="404.0" y="1492.0"/>
      <point x="402.0" y="1320.0"/>
    </contour>
  </outline>
</glyph>
<glyph name="ldot" format="2">
  <advance width="460.0"/>
  <unicode hex="0140"/>
  <outline>
    <contour>
      <point x="196.0" y="0.0" type="line"/>
      <point x="264.0" y="0.0" type="line"/>
      <point x="264.0" y="1616.0" type="line"/>
      <point x="196.0" y="1616.0" type="line"/>
    </contour>
    <contour>
      <point x="444.0" y="730.0" type="curve" smooth="yes"/>
      <point x="480.0" y="730.0"/>
      <point x="506.0" y="754.0"/>
      <point x="506.0" y="792.0" type="curve" smooth="yes"/>
      <point x="506.0" y="830.0"/>
      <point x="480.0" y="856.0"/>
      <point x="444.0" y="856.0" type="curve" smooth="yes"/>
      <point x="408.0" y="856.0"/>
      <point x="382.0" y="830.0"/>
      <point x="382.0" y="792.0" type="curve" smooth="yes"/>
      <point x="382.0" y="754.0"/>
      <point x="408.0" y="730.0"/>
    </contour>
  </outline>
</glyph>
<glyph name="Nacute" format="2">
  <advance width="1606.0"/>
  <unicode hex="0143"/>
  <anchor x="804.0" y="1520.0" name="_top"/>
  <anchor x="804.0" y="0.0" name="bottom"/>
  <anchor x="804.0" y="1520.0" name="top"/>
  <outline>
    <contour>
      <point x="216.0" y="0.0" type="line"/>
      <point x="282.0" y="0.0" type="line"/>
      <point x="282.0" y="1420.0" type="line"/>
      <point x="252.0" y="1420.0" type="line"/>
      <point x="1316.0" y="0.0" type="line"/>
      <point x="1390.0" y="0.0" type="line"/>
      <point x="1390.0" y="1480.0" type="line"/>
      <point x="1324.0" y="1480.0" type="line"/>
      <point x="1324.0" y="60.0" type="line"/>
      <point x="1354.0" y="60.0" type="line"/>
      <point x="290.0" y="1480.0" type="line"/>
      <point x="216.0" y="1480.0" type="line"/>
    </contour>
    <contour>
      <point x="768.0" y="1616.0" type="line"/>
      <point x="840.0" y="1616.0" type="line"/>
      <point x="1076.0" y="1888.0" type="line"/>
      <point x="990.0" y="1888.0" type="line"/>
    </contour>
  </outline>
</glyph>
<glyph name="Ncommaaccent" format="2">
  <advance width="1606.0"/>
  <unicode hex="0145"/>
  <anchor x="804.0" y="0.0" name="_bottom"/>
  <anchor x="804.0" y="0.0" name="bottom"/>
  <anchor x="804.0" y="1520.0" name="top"/>
  <outline>
    <contour>
      <point x="216.0" y="0.0" type="line"/>
      <point x="282.0" y="0.0" type="line"/>
      <point x="282.0" y="1420.0" type="line"/>
      <point x="252.0" y="1420.0" type="line"/>
      <point x="1316.0" y="0.0" type="line"/>
      <point x="1390.0" y="0.0" type="line"/>
      <point x="1390.0" y="1480.0" type="line"/>
      <point x="1324.0" y="1480.0" type="line"/>
      <point x="1324.0" y="60.0" type="line"/>
      <point x="1354.0" y="60.0" type="line"/>
      <point x="290.0" y="1480.0" type="line"/>
      <point x="216.0" y="1480.0" type="line"/>
    </contour>
    <contour>
      <point x="778.0" y="-448.0" type="curve"/>
      <point x="822.0" y="-448.0" type="line"/>
      <point x="852.0" y="-386.0"/>
      <point x="866.0" y="-318.0"/>
      <point x="866.0" y="-270.0" type="curve" smooth="yes"/>
      <point x="866.0" y="-212.0"/>
      <point x="840.0" y="-184.0"/>
      <point x="800.0" y="-184.0" type="curve" smooth="yes"/>
      <point x="766.0" y="-184.0"/>
      <point x="742.0" y="-210.0"/>
      <point x="742.0" y="-246.0" type="curve" smooth="yes"/>
      <point x="742.0" y="-284.0"/>
      <point x="768.0" y="-310.0"/>
      <point x="804.0" y="-310.0" type="curve" smooth="yes"/>
      <point x="816.0" y="-310.0" type="line"/>
      <point x="812.0" y="-278.0" type="line"/>
      <point x="812.0" y="-326.0"/>
      <point x="806.0" y="-376.0"/>
    </contour>
  </outline>
</glyph>
<glyph name="ncommaaccent" format="2">
  <advance width="1244.0"/>
  <unicode hex="0146"/>
  <anchor x="632.0" y="0.0" name="_bottom"/>
  <anchor x="16.0" y="1200.0" name="apostrophe"/>
  <anchor x="632.0" y="0.0" name="bottom"/>
  <anchor x="632.0" y="1200.0" name="top"/>
  <outline>
    <contour>
      <point x="196.0" y="0.0" type="line"/>
      <point x="264.0" y="0.0" type="line"/>
      <point x="264.0" y="856.0" type="line"/>
      <point x="382.0" y="984.0"/>
      <point x="546.0" y="1030.0"/>
      <point x="678.0" y="1030.0" type="curve" smooth="yes"/>
      <point x="876.0" y="1030.0"/>
      <point x="998.0" y="942.0"/>
      <point x="998.0" y="702.0" type="curve" smooth="yes"/>
      <point x="998.0" y="0.0" type="line"/>
      <point x="1066.0" y="0.0" type="line"/>
      <point x="1066.0" y="700.0" type="line" smooth="yes"/>
      <point x="1066.0" y="986.0"/>
      <point x="912.0" y="1096.0"/>
      <point x="678.0" y="1096.0" type="curve" smooth="yes"/>
      <point x="528.0" y="1096.0"/>
      <point x="382.0" y="1044.0"/>
      <point x="270.0" y="946.0" type="curve"/>
      <point x="262.0" y="946.0" type="line"/>
      <point x="256.0" y="1080.0" type="line"/>
      <point x="196.0" y="1080.0" type="line"/>
    </contour>
    <contour>
      <point x="606.0" y="-448.0" type="curve"/>
      <point x="650.0" y="-448.0" type="line"/>
      <point x="680.0" y="-386.0"/>
      <point x="694.0" y="-318.0"/>
      <point x="694.0" y="-270.0" type="curve" smooth="yes"/>
      <point x="694.0" y="-212.0"/>
      <point x="668.0" y="-184.0"/>
      <point x="628.0" y="-184.0" type="curve" smooth="yes"/>
      <point x="594.0" y="-184.0"/>
      <point x="570.0" y="-210.0"/>
      <point x="570.0" y="-246.0" type="curve" smooth="yes"/>
      <point x="570.0" y="-284.0"/>
      <point x="596.0" y="-310.0"/>
      <point x="632.0" y="-310.0" type="curve" smooth="yes"/>
      <point x="644.0" y="-310.0" type="line"/>
      <point x="640.0" y="-278.0" type="line"/>
      <point x="640.0" y="-326.0"/>
      <point x="634.0" y="-376.0"/>
    </contour>
  </outline>
</glyph>
<glyph name="Ncaron" format="2">
  <advance width="1606.0"/>
  <unicode hex="0147"/>
  <anchor x="804.0" y="1520.0" name="_top"/>
  <anchor x="804.0" y="0.0" name="bottom"/>
  <anchor x="804.0" y="1520.0" name="top"/>
  <outline>
    <contour>
      <point x="216.0" y="0.0" type="line"/>
      <point x="282.0" y="0.0" type="line"/>
      <point x="282.0" y="1420.0" type="line"/>
      <point x="252.0" y="1420.0" type="line"/>
      <point x="1316.0" y="0.0" type="line"/>
      <point x="1390.0" y="0.0" type="line"/>
      <point x="1390.0" y="1480.0" type="line"/>
      <point x="1324.0" y="1480.0" type="line"/>
      <point x="1324.0" y="60.0" type="line"/>
      <point x="1354.0" y="60.0" type="line"/>
      <point x="290.0" y="1480.0" type="line"/>
      <point x="216.0" y="1480.0" type="line"/>
    </contour>
    <contour>
      <point x="766.0" y="1616.0" type="line"/>
      <point x="842.0" y="1616.0" type="line"/>
      <point x="1126.0" y="1888.0" type="line"/>
      <point x="1034.0" y="1888.0" type="line"/>
      <point x="786.0" y="1644.0" type="line"/>
      <point x="822.0" y="1644.0" type="line"/>
      <point x="574.0" y="1888.0" type="line"/>
      <point x="482.0" y="1888.0" type="line"/>
    </contour>
  </outline>
</glyph>
<glyph name="ncaron" format="2">
  <advance width="1244.0"/>
  <unicode hex="0148"/>
  <anchor x="632.0" y="1200.0" name="_top"/>
  <anchor x="16.0" y="1200.0" name="apostrophe"/>
  <anchor x="632.0" y="0.0" name="bottom"/>
  <anchor x="632.0" y="1200.0" name="top"/>
  <outline>
    <contour>
      <point x="196.0" y="0.0" type="line"/>
      <point x="264.0" y="0.0" type="line"/>
      <point x="264.0" y="856.0" type="line"/>
      <point x="382.0" y="984.0"/>
      <point x="546.0" y="1030.0"/>
      <point x="678.0" y="1030.0" type="curve" smooth="yes"/>
      <point x="876.0" y="1030.0"/>
      <point x="998.0" y="942.0"/>
      <point x="998.0" y="702.0" type="curve" smooth="yes"/>
      <point x="998.0" y="0.0" type="line"/>
      <point x="1066.0" y="0.0" type="line"/>
      <point x="1066.0" y="700.0" type="line" smooth="yes"/>
      <point x="1066.0" y="986.0"/>
      <point x="912.0" y="1096.0"/>
      <point x="678.0" y="1096.0" type="curve" smooth="yes"/>
      <point x="528.0" y="1096.0"/>
      <point x="382.0" y="1044.0"/>
      <point x="270.0" y="946.0" type="curve"/>
      <point x="262.0" y="946.0" type="line"/>
      <point x="256.0" y="1080.0" type="line"/>
      <point x="196.0" y="1080.0" type="line"/>
    </contour>
    <contour>
      <point x="594.0" y="1264.0" type="line"/>
      <point x="670.0" y="1264.0" type="line"/>
      <point x="938.0" y="1616.0" type="line"/>
      <point x="860.0" y="1616.0" type="line"/>
      <point x="614.0" y="1286.0" type="line"/>
      <point x="650.0" y="1286.0" type="line"/>
      <point x="404.0" y="1616.0" type="line"/>
      <point x="326.0" y="1616.0" type="line"/>
    </contour>
  </outline>
</glyph>
<glyph name="napostrophe" format="2">
  <advance width="1244.0"/>
  <unicode hex="0149"/>
  <anchor x="16.0" y="1200.0" name="_apostrophe"/>
  <anchor x="16.0" y="1200.0" name="apostrophe"/>
  <anchor x="632.0" y="0.0" name="bottom"/>
  <anchor x="632.0" y="1200.0" name="top"/>
  <outline>
    <contour>
      <point x="196.0" y="0.0" type="line"/>
      <point x="264.0" y="0.0" type="line"/>
      <point x="264.0" y="856.0" type="line"/>
      <point x="382.0" y="984.0"/>
      <point x="546.0" y="1030.0"/>
      <point x="678.0" y="1030.0" type="curve" smooth="yes"/>
      <point x="876.0" y="1030.0"/>
      <point x="998.0" y="942.0"/>
      <point x="998.0" y="702.0" type="curve" smooth="yes"/>
      <point x="998.0" y="0.0" type="line"/>
      <point x="1066.0" y="0.0" type="line"/>
      <point x="1066.0" y="700.0" type="line" smooth="yes"/>
      <point x="1066.0" y="986.0"/>
      <point x="912.0" y="1096.0"/>
      <point x="678.0" y="1096.0" type="curve" smooth="yes"/>
      <point x="528.0" y="1096.0"/>
      <point x="382.0" y="1044.0"/>
      <point x="270.0" y="946.0" type="curve"/>
      <point x="262.0" y="946.0" type="line"/>
      <point x="256.0" y="1080.0" type="line"/>
      <point x="196.0" y="1080.0" type="line"/>
    </contour>
    <contour>
      <point x="52.0" y="1360.0" type="curve"/>
      <point x="96.0" y="1360.0" type="line"/>
      <point x="126.0" y="1422.0"/>
      <point x="140.0" y="1490.0"/>
      <point x="140.0" y="1538.0" type="curve" smooth="yes"/>
      <point x="140.0" y="1596.0"/>
      <point x="114.0" y="1624.0"/>
      <point x="74.0" y="1624.0" type="curve" smooth="yes"/>
      <point x="40.0" y="1624.0"/>
      <point x="16.0" y="1598.0"/>
      <point x="16.0" y="1562.0" type="curve" smooth="yes"/>
      <point x="16.0" y="1524.0"/>
      <point x="42.0" y="1498.0"/>
      <point x="78.0" y="1498.0" type="curve" smooth="yes"/>
      <point x="90.0" y="1498.0" type="line"/>
      <point x="86.0" y="1530.0" type="line"/>
      <point x="86.0" y="1482.0"/>
      <point x="80.0" y="1432.0"/>
    </contour>
  </outline>
</glyph>
<glyph name="Obreve" format="2">
  <advance width="1572.0"/>
  <unicode hex="014E"/>
  <anchor x="786.0" y="1520.0" name="_top"/>
  <anchor x="786.0" y="0.0" name="bottom"/>
  <anchor x="786.0" y="740.0" name="center"/>
  <anchor x="966.0" y="0.0" name="ogonek"/>
  <anchor x="786.0" y="1520.0" name="top"/>
  <anchor x="50.0" y="1480.0" name="topleft"/>
  <anchor x="964.0" y="1480.0" name="topright"/>
  <outline>
    <contour>
      <point x="786.0" y="-18.0" type="curve" smooth="yes"/>
      <point x="1162.0" y="-18.0"/>
      <point x="1434.0" y="208.0"/>
      <point x="1434.0" y="740.0" type="curve" smooth="yes"/>
      <point x="1434.0" y="1272.0"/>
      <point x="1168.0" y="1498.0"/>
      <point x="786.0" y="1498.0" type="curve" smooth="yes"/>
      <point x="410.0" y="1498.0"/>
      <point x="138.0" y="1272.0"/>
      <point x="138.0" y="740.0" type="curve" smooth="yes"/>
      <point x="138.0" y="208.0"/>
      <point x="404.0" y="-18.0"/>
    </contour>
    <contour>
      <point x="786.0" y="50.0" type="curve" smooth="yes"/>
      <point x="446.0" y="50.0"/>
      <point x="210.0" y="242.0"/>
      <point x="210.0" y="744.0" type="curve" smooth="yes"/>
      <point x="210.0" y="1238.0"/>
      <point x="446.0" y="1430.0"/>
      <point x="786.0" y="1430.0" type="curve" smooth="yes"/>
      <point x="1126.0" y="1430.0"/>
      <point x="1362.0" y="1238.0"/>
      <point x="1362.0" y="736.0" type="curve" smooth="yes"/>
      <point x="1362.0" y="242.0"/>
      <point x="1126.0" y="50.0"/>
    </contour>
    <contour>
      <point x="788.0" y="1628.0" type="curve" smooth="yes"/>
      <point x="1000.0" y="1628.0"/>
      <point x="1094.0" y="1730.0"/>
      <point x="1108.0" y="1860.0" type="curve"/>
      <point x="1048.0" y="1860.0" type="line"/>
      <point x="1032.0" y="1758.0"/>
      <point x="970.0" y="1688.0"/>
      <point x="788.0" y="1688.0" type="curve" smooth="yes"/>
      <point x="606.0" y="1688.0"/>
      <point x="540.0" y="1758.0"/>
      <point x="524.0" y="1860.0" type="curve"/>
      <point x="464.0" y="1860.0" type="line"/>
      <point x="478.0" y="1732.0"/>
      <point x="576.0" y="1628.0"/>
    </contour>
  </outline>
</glyph>
<glyph name="obreve" format="2">
  <advance width="1204.0"/>
  <unicode hex="014F"/>
  <anchor x="602.0" y="1200.0" name="_top"/>
  <anchor x="602.0" y="0.0" name="bottom"/>
  <anchor x="602.0" y="540.0" name="center"/>
  <anchor x="748.0" y="0.0" name="ogonek"/>
  <anchor x="602.0" y="1200.0" name="top"/>
  <anchor x="740.0" y="1080.0" name="topright"/>
  <outline>
    <contour>
      <point x="602.0" y="-18.0" type="curve" smooth="yes"/>
      <point x="882.0" y="-18.0"/>
      <point x="1076.0" y="154.0"/>
      <point x="1076.0" y="540.0" type="curve" smooth="yes"/>
      <point x="1076.0" y="934.0"/>
      <point x="886.0" y="1096.0"/>
      <point x="602.0" y="1096.0" type="curve" smooth="yes"/>
      <point x="322.0" y="1096.0"/>
      <point x="128.0" y="926.0"/>
      <point x="128.0" y="540.0" type="curve" smooth="yes"/>
      <point x="128.0" y="146.0"/>
      <point x="318.0" y="-18.0"/>
    </contour>
    <contour>
      <point x="602.0" y="48.0" type="curve" smooth="yes"/>
      <point x="358.0" y="48.0"/>
      <point x="200.0" y="184.0"/>
      <point x="200.0" y="542.0" type="curve" smooth="yes"/>
      <point x="200.0" y="896.0"/>
      <point x="358.0" y="1030.0"/>
      <point x="602.0" y="1030.0" type="curve" smooth="yes"/>
      <point x="846.0" y="1030.0"/>
      <point x="1004.0" y="896.0"/>
      <point x="1004.0" y="538.0" type="curve" smooth="yes"/>
      <point x="1004.0" y="184.0"/>
      <point x="846.0" y="48.0"/>
    </contour>
    <contour>
      <point x="604.0" y="1276.0" type="curve" smooth="yes"/>
      <point x="796.0" y="1276.0"/>
      <point x="896.0" y="1406.0"/>
      <point x="904.0" y="1588.0" type="curve"/>
      <point x="844.0" y="1588.0" type="line"/>
      <point x="834.0" y="1440.0"/>
      <point x="770.0" y="1334.0"/>
      <point x="604.0" y="1334.0" type="curve" smooth="yes"/>
      <point x="438.0" y="1334.0"/>
      <point x="370.0" y="1440.0"/>
      <point x="360.0" y="1588.0" type="curve"/>
      <point x="300.0" y="1588.0" type="line"/>
      <point x="308.0" y="1408.0"/>
      <point x="410.0" y="1276.0"/>
    </contour>
  </outline>
</glyph>
<glyph name="Ohungarumlaut" format="2">
  <advance width="1572.0"/>
  <unicode hex="0150"/>
  <anchor x="786.0" y="1520.0" name="_top"/>
  <anchor x="786.0" y="0.0" name="bottom"/>
  <anchor x="786.0" y="740.0" name="center"/>
  <anchor x="966.0" y="0.0" name="ogonek"/>
  <anchor x="786.0" y="1520.0" name="top"/>
  <anchor x="50.0" y="1480.0" name="topleft"/>
  <anchor x="964.0" y="1480.0" name="topright"/>
  <outline>
    <contour>
      <point x="786.0" y="-18.0" type="curve" smooth="yes"/>
      <point x="1162.0" y="-18.0"/>
      <point x="1434.0" y="208.0"/>
      <point x="1434.0" y="740.0" type="curve" smooth="yes"/>
      <point x="1434.0" y="1272.0"/>
      <point x="1168.0" y="1498.0"/>
      <point x="786.0" y="1498.0" type="curve" smooth="yes"/>
      <point x="410.0" y="1498.0"/>
      <point x="138.0" y="1272.0"/>
      <point x="138.0" y="740.0" type="curve" smooth="yes"/>
      <point x="138.0" y="208.0"/>
      <point x="404.0" y="-18.0"/>
    </contour>
    <contour>
      <point x="786.0" y="50.0" type="curve" smooth="yes"/>
      <point x="446.0" y="50.0"/>
      <point x="210.0" y="242.0"/>
      <point x="210.0" y="744.0" type="curve" smooth="yes"/>
      <point x="210.0" y="1238.0"/>
      <point x="446.0" y="1430.0"/>
      <point x="786.0" y="1430.0" type="curve" smooth="yes"/>
      <point x="1126.0" y="1430.0"/>
      <point x="1362.0" y="1238.0"/>
      <point x="1362.0" y="736.0" type="curve" smooth="yes"/>
      <point x="1362.0" y="242.0"/>
      <point x="1126.0" y="50.0"/>
    </contour>
    <contour>
      <point x="920.0" y="1616.0" type="line"/>
      <point x="988.0" y="1616.0" type="line"/>
      <point x="1152.0" y="1888.0" type="line"/>
      <point x="1080.0" y="1888.0" type="line"/>
    </contour>
    <contour>
      <point x="584.0" y="1616.0" type="line"/>
      <point x="652.0" y="1616.0" type="line"/>
      <point x="816.0" y="1888.0" type="line"/>
      <point x="744.0" y="1888.0" type="line"/>
    </contour>
  </outline>
</glyph>
<glyph name="OE" format="2">
  <advance width="2234.0"/>
  <unicode hex="0152"/>
  <anchor x="1240.0" y="0.0" name="bottom"/>
  <anchor x="1240.0" y="1520.0" name="top"/>
  <outline>
    <contour>
      <point x="908.0" y="-10.0" type="curve" smooth="yes"/>
      <point x="1022.0" y="-10.0"/>
      <point x="1188.0" y="0.0"/>
      <point x="1286.0" y="0.0" type="curve" smooth="yes"/>
      <point x="2126.0" y="0.0" type="line"/>
      <point x="2126.0" y="66.0" type="line"/>
      <point x="1274.0" y="66.0" type="line"/>
      <point x="1274.0" y="1414.0" type="line"/>
      <point x="2116.0" y="1414.0" type="line"/>
      <point x="2116.0" y="1480.0" type="line"/>
      <point x="1266.0" y="1480.0" type="line" smooth="yes"/>
      <point x="1154.0" y="1480.0"/>
      <point x="1014.0" y="1494.0"/>
      <point x="900.0" y="1494.0" type="curve" smooth="yes"/>
      <point x="406.0" y="1494.0"/>
      <point x="138.0" y="1242.0"/>
      <point x="138.0" y="740.0" type="curve" smooth="yes"/>
      <point x="138.0" y="238.0"/>
      <point x="406.0" y="-10.0"/>
    </contour>
    <contour>
      <point x="906.0" y="56.0" type="curve" smooth="yes"/>
      <point x="450.0" y="56.0"/>
      <point x="210.0" y="272.0"/>
      <point x="210.0" y="740.0" type="curve" smooth="yes"/>
      <point x="210.0" y="1208.0"/>
      <point x="450.0" y="1428.0"/>
      <point x="906.0" y="1428.0" type="curve" smooth="yes"/>
      <point x="1024.0" y="1428.0"/>
      <point x="1108.0" y="1422.0"/>
      <point x="1206.0" y="1412.0" type="curve"/>
      <point x="1206.0" y="68.0" type="line"/>
      <point x="1140.0" y="60.0"/>
      <point x="1046.0" y="56.0"/>
    </contour>
    <contour>
      <point x="1266.0" y="728.0" type="line"/>
      <point x="2016.0" y="728.0" type="line"/>
      <point x="2016.0" y="794.0" type="line"/>
      <point x="1266.0" y="794.0" type="line"/>
    </contour>
  </outline>
</glyph>
<glyph name="oe" format="2">
  <advance width="1980.0"/>
  <unicode hex="0153"/>
  <anchor x="1032.0" y="0.0" name="bottom"/>
  <anchor x="1032.0" y="1200.0" name="top"/>
  <outline>
    <contour>
      <point x="598.0" y="-18.0" type="curve" smooth="yes"/>
      <point x="874.0" y="-18.0"/>
      <point x="1060.0" y="154.0"/>
      <point x="1060.0" y="540.0" type="curve" smooth="yes"/>
      <point x="1060.0" y="934.0"/>
      <point x="878.0" y="1096.0"/>
      <point x="598.0" y="1096.0" type="curve" smooth="yes"/>
      <point x="322.0" y="1096.0"/>
      <point x="128.0" y="926.0"/>
      <point x="128.0" y="540.0" type="curve" smooth="yes"/>
      <point x="128.0" y="146.0"/>
      <point x="318.0" y="-18.0"/>
    </contour>
    <contour>
      <point x="598.0" y="48.0" type="curve" smooth="yes"/>
      <point x="358.0" y="48.0"/>
      <point x="200.0" y="184.0"/>
      <point x="200.0" y="542.0" type="curve" smooth="yes"/>
      <point x="200.0" y="896.0"/>
      <point x="358.0" y="1030.0"/>
      <point x="598.0" y="1030.0" type="curve" smooth="yes"/>
      <point x="838.0" y="1030.0"/>
      <point x="996.0" y="896.0"/>
      <point x="996.0" y="538.0" type="curve" smooth="yes"/>
      <point x="996.0" y="184.0"/>
      <point x="838.0" y="48.0"/>
    </contour>
    <contour>
      <point x="1512.0" y="-18.0" type="curve" smooth="yes"/>
      <point x="1616.0" y="-18.0"/>
      <point x="1716.0" y="0.0"/>
      <point x="1822.0" y="36.0" type="curve"/>
      <point x="1822.0" y="104.0" type="line"/>
      <point x="1714.0" y="68.0"/>
      <point x="1616.0" y="48.0"/>
      <point x="1516.0" y="48.0" type="curve" smooth="yes"/>
      <point x="1238.0" y="48.0"/>
      <point x="1068.0" y="192.0"/>
      <point x="1068.0" y="536.0" type="curve" smooth="yes"/>
      <point x="1068.0" y="548.0" type="line" smooth="yes"/>
      <point x="1068.0" y="882.0"/>
      <point x="1204.0" y="1030.0"/>
      <point x="1440.0" y="1030.0" type="curve" smooth="yes"/>
      <point x="1676.0" y="1030.0"/>
      <point x="1804.0" y="880.0"/>
      <point x="1804.0" y="548.0" type="curve"/>
      <point x="1842.0" y="576.0" type="line"/>
      <point x="1042.0" y="576.0" type="line"/>
      <point x="1042.0" y="510.0" type="line"/>
      <point x="1874.0" y="510.0" type="line"/>
      <point x="1874.0" y="544.0" type="line" smooth="yes"/>
      <point x="1874.0" y="910.0"/>
      <point x="1714.0" y="1096.0"/>
      <point x="1440.0" y="1096.0" type="curve" smooth="yes"/>
      <point x="1166.0" y="1096.0"/>
      <point x="1006.0" y="916.0"/>
      <point x="1006.0" y="552.0" type="curve"/>
      <point x="1000.0" y="544.0" type="line"/>
      <point x="1000.0" y="160.0"/>
      <point x="1188.0" y="-18.0"/>
    </contour>
  </outline>
</glyph>
<glyph name="rcommaaccent" format="2">
  <advance width="780.0"/>
  <unicode hex="0157"/>
  <anchor x="230.0" y="0.0" name="_bottom"/>
  <anchor x="230.0" y="0.0" name="bottom"/>
  <anchor x="480.0" y="1200.0" name="top"/>
  <outline>
    <contour>
      <point x="196.0" y="0.0" type="line"/>
      <point x="264.0" y="0.0" type="line"/>
      <point x="264.0" y="844.0" type="line"/>
      <point x="366.0" y="968.0"/>
      <point x="532.0" y="1018.0"/>
      <point x="650.0" y="1018.0" type="curve" smooth="yes"/>
      <point x="692.0" y="1018.0"/>
      <point x="728.0" y="1016.0"/>
      <point x="764.0" y="1010.0" type="curve"/>
      <point x="764.0" y="1078.0" type="line"/>
      <point x="722.0" y="1086.0"/>
      <point x="692.0" y="1088.0"/>
      <point x="650.0" y="1088.0" type="curve" smooth="yes"/>
      <point x="514.0" y="1088.0"/>
      <point x="362.0" y="1028.0"/>
      <point x="270.0" y="932.0" type="curve"/>
      <point x="262.0" y="932.0" type="line"/>
      <point x="256.0" y="1080.0" type="line"/>
      <point x="196.0" y="1080.0" type="line"/>
    </contour>
    <contour>
      <point x="204.0" y="-448.0" type="curve"/>
      <point x="248.0" y="-448.0" type="line"/>
      <point x="278.0" y="-386.0"/>
      <point x="292.0" y="-318.0"/>
      <point x="292.0" y="-270.0" type="curve" smooth="yes"/>
      <point x="292.0" y="-212.0"/>
      <point x="266.0" y="-184.0"/>
      <point x="226.0" y="-184.0" type="curve" smooth="yes"/>
      <point x="192.0" y="-184.0"/>
      <point x="168.0" y="-210.0"/>
      <point x="168.0" y="-246.0" type="curve" smooth="yes"/>
      <point x="168.0" y="-284.0"/>
      <point x="194.0" y="-310.0"/>
      <point x="230.0" y="-310.0" type="curve" smooth="yes"/>
      <point x="242.0" y="-310.0" type="line"/>
      <point x="238.0" y="-278.0" type="line"/>
      <point x="238.0" y="-326.0"/>
      <point x="232.0" y="-376.0"/>
    </contour>
  </outline>
</glyph>
<glyph name="Scedilla" format="2">
  <advance width="1154.0"/>
  <unicode hex="015E"/>
  <anchor x="584.0" y="0.0" name="_bottom"/>
  <anchor x="584.0" y="0.0" name="bottom"/>
  <anchor x="584.0" y="1520.0" name="top"/>
  <outline>
    <contour>
      <point x="512.0" y="-18.0" type="curve" smooth="yes"/>
      <point x="858.0" y="-18.0"/>
      <point x="1052.0" y="124.0"/>
      <point x="1052.0" y="384.0" type="curve" smooth="yes"/>
      <point x="1052.0" y="592.0"/>
      <point x="924.0" y="710.0"/>
      <point x="606.0" y="772.0" type="curve" smooth="yes"/>
      <point x="534.0" y="786.0" type="line" smooth="yes"/>
      <point x="270.0" y="838.0"/>
      <point x="174.0" y="926.0"/>
      <point x="174.0" y="1108.0" type="curve" smooth="yes"/>
      <point x="174.0" y="1316.0"/>
      <point x="324.0" y="1432.0"/>
      <point x="620.0" y="1432.0" type="curve" smooth="yes"/>
      <point x="744.0" y="1432.0"/>
      <point x="866.0" y="1414.0"/>
      <point x="990.0" y="1376.0" type="curve"/>
      <point x="990.0" y="1444.0" type="line"/>
      <point x="876.0" y="1480.0"/>
      <point x="750.0" y="1498.0"/>
      <point x="624.0" y="1498.0" type="curve" smooth="yes"/>
      <point x="276.0" y="1498.0"/>
      <point x="102.0" y="1344.0"/>
      <point x="102.0" y="1104.0" type="curve" smooth="yes"/>
      <point x="102.0" y="894.0"/>
      <point x="232.0" y="770.0"/>
      <point x="520.0" y="714.0" type="curve" smooth="yes"/>
      <point x="592.0" y="700.0" type="line" smooth="yes"/>
      <point x="866.0" y="646.0"/>
      <point x="980.0" y="566.0"/>
      <point x="980.0" y="382.0" type="curve" smooth="yes"/>
      <point x="980.0" y="164.0"/>
      <point x="826.0" y="48.0"/>
      <point x="514.0" y="48.0" type="curve" smooth="yes"/>
      <point x="398.0" y="48.0"/>
      <point x="264.0" y="66.0"/>
      <point x="120.0" y="114.0" type="curve"/>
      <point x="120.0" y="46.0" type="line"/>
      <point x="248.0" y="2.0"/>
      <point x="390.0" y="-18.0"/>
    </contour>
    <contour>
      <point x="596.0" y="-400.0" type="curve" smooth="yes"/>
      <point x="722.0" y="-400.0"/>
      <point x="802.0" y="-354.0"/>
      <point x="802.0" y="-256.0" type="curve" smooth="yes"/>
      <point x="802.0" y="-158.0"/>
      <point x="722.0" y="-112.0"/>
      <point x="602.0" y="-112.0" type="curve"/>
      <point x="612.0" y="-142.0" type="line"/>
      <point x="612.0" y="20.0" type="line"/>
      <point x="556.0" y="20.0" type="line"/>
      <point x="556.0" y="-164.0" type="line"/>
      <point x="594.0" y="-164.0" type="line" smooth="yes"/>
      <point x="692.0" y="-164.0"/>
      <point x="746.0" y="-192.0"/>
      <point x="746.0" y="-256.0" type="curve" smooth="yes"/>
      <point x="746.0" y="-320.0"/>
      <point x="692.0" y="-348.0"/>
      <point x="596.0" y="-348.0" type="curve" smooth="yes"/>
      <point x="532.0" y="-348.0"/>
      <point x="472.0" y="-336.0"/>
      <point x="394.0" y="-304.0" type="curve"/>
      <point x="394.0" y="-360.0" type="line"/>
      <point x="452.0" y="-386.0"/>
      <point x="530.0" y="-400.0"/>
    </contour>
  </outline>
</glyph>
<glyph name="Tcaron" format="2">
  <advance width="1244.0"/>
  <unicode hex="0164"/>
  <anchor x="622.0" y="1520.0" name="_top"/>
  <anchor x="622.0" y="0.0" name="bottom"/>
  <anchor x="622.0" y="800.0" name="center"/>
  <anchor x="622.0" y="1520.0" name="top"/>
  <outline>
    <contour>
      <point x="588.0" y="0.0" type="line"/>
      <point x="656.0" y="0.0" type="line"/>
      <point x="656.0" y="1414.0" type="line"/>
      <point x="1224.0" y="1414.0" type="line"/>
      <point x="1224.0" y="1480.0" type="line"/>
      <point x="20.0" y="1480.0" type="line"/>
      <point x="20.0" y="1414.0" type="line"/>
      <point x="588.0" y="1414.0" type="line"/>
    </contour>
    <contour>
      <point x="584.0" y="1616.0" type="line"/>
      <point x="660.0" y="1616.0" type="line"/>
      <point x="944.0" y="1888.0" type="line"/>
      <point x="852.0" y="1888.0" type="line"/>
      <point x="604.0" y="1644.0" type="line"/>
      <point x="640.0" y="1644.0" type="line"/>
      <point x="392.0" y="1888.0" type="line"/>
      <point x="300.0" y="1888.0" type="line"/>
    </contour>
  </outline>
</glyph>
<glyph name="tcaron" format="2">
  <advance width="796.0"/>
  <unicode hex="0165"/>
  <anchor x="524.0" y="1616.0" name="_caronalt"/>
  <anchor x="522.0" y="0.0" name="bottom"/>
  <anchor x="524.0" y="1616.0" name="caronalt"/>
  <anchor x="254.0" y="660.0" name="stroke"/>
  <anchor x="288.0" y="1480.0" name="top"/>
  <anchor x="750.0" y="1616.0" name="topright"/>
  <outline>
    <contour>
      <point x="616.0" y="-18.0" type="curve" smooth="yes"/>
      <point x="676.0" y="-18.0"/>
      <point x="720.0" y="-14.0"/>
      <point x="788.0" y="2.0" type="curve"/>
      <point x="788.0" y="70.0" type="line"/>
      <point x="718.0" y="54.0"/>
      <point x="672.0" y="48.0"/>
      <point x="620.0" y="48.0" type="curve" smooth="yes"/>
      <point x="430.0" y="48.0"/>
      <point x="322.0" y="134.0"/>
      <point x="322.0" y="354.0" type="curve" smooth="yes"/>
      <point x="322.0" y="1480.0" type="line"/>
      <point x="262.0" y="1480.0" type="line"/>
      <point x="254.0" y="1080.0" type="line"/>
      <point x="254.0" y="342.0" type="line" smooth="yes"/>
      <point x="254.0" y="94.0"/>
      <point x="388.0" y="-18.0"/>
    </contour>
    <contour>
      <point x="14.0" y="1016.0" type="line"/>
      <point x="764.0" y="1016.0" type="line"/>
      <point x="764.0" y="1080.0" type="line"/>
      <point x="14.0" y="1080.0" type="line"/>
    </contour>
    <contour>
      <point x="506.0" y="1180.0" type="curve"/>
      <point x="552.0" y="1180.0" type="line"/>
      <point x="580.0" y="1322.0"/>
      <point x="588.0" y="1486.0"/>
      <point x="588.0" y="1616.0" type="curve"/>
      <point x="524.0" y="1616.0" type="line"/>
      <point x="524.0" y="1492.0"/>
      <point x="522.0" y="1320.0"/>
    </contour>
  </outline>
</glyph>
<glyph name="Tbar" format="2">
  <advance width="1244.0"/>
  <unicode hex="0166"/>
  <anchor x="622.0" y="800.0" name="_center"/>
  <anchor x="622.0" y="0.0" name="bottom"/>
  <anchor x="622.0" y="800.0" name="center"/>
  <anchor x="622.0" y="1520.0" name="top"/>
  <outline>
    <contour>
      <point x="588.0" y="0.0" type="line"/>
      <point x="656.0" y="0.0" type="line"/>
      <point x="656.0" y="1414.0" type="line"/>
      <point x="1224.0" y="1414.0" type="line"/>
      <point x="1224.0" y="1480.0" type="line"/>
      <point x="20.0" y="1480.0" type="line"/>
      <point x="20.0" y="1414.0" type="line"/>
      <point x="588.0" y="1414.0" type="line"/>
    </contour>
    <contour>
      <point x="210.0" y="770.0" type="line"/>
      <point x="1034.0" y="770.0" type="line"/>
      <point x="1034.0" y="830.0" type="line"/>
      <point x="210.0" y="830.0" type="line"/>
    </contour>
  </outline>
</glyph>
<glyph name="Utilde" format="2">
  <advance width="1546.0"/>
  <unicode hex="0168"/>
  <anchor x="774.0" y="1520.0" name="_top"/>
  <anchor x="774.0" y="0.0" name="bottom"/>
  <anchor x="926.0" y="4.0" name="ogonek"/>
  <anchor x="774.0" y="1520.0" name="top"/>
  <anchor x="1272.0" y="1480.0" name="topright"/>
  <outline>
    <contour>
      <point x="774.0" y="-18.0" type="curve" smooth="yes"/>
      <point x="1156.0" y="-18.0"/>
      <point x="1338.0" y="154.0"/>
      <point x="1338.0" y="566.0" type="curve" smooth="yes"/>
      <point x="1338.0" y="1480.0" type="line"/>
      <point x="1272.0" y="1480.0" type="line"/>
      <point x="1272.0" y="556.0" type="line" smooth="yes"/>
      <point x="1272.0" y="198.0"/>
      <point x="1114.0" y="48.0"/>
      <point x="774.0" y="48.0" type="curve" smooth="yes"/>
      <point x="434.0" y="48.0"/>
      <point x="276.0" y="198.0"/>
      <point x="276.0" y="556.0" type="curve" smooth="yes"/>
      <point x="276.0" y="1480.0" type="line"/>
      <point x="208.0" y="1480.0" type="line"/>
      <point x="208.0" y="566.0" type="line" smooth="yes"/>
      <point x="208.0" y="154.0"/>
      <point x="392.0" y="-18.0"/>
    </contour>
    <contour>
      <point x="934.0" y="1698.0" type="curve" smooth="yes"/>
      <point x="1014.0" y="1698.0"/>
      <point x="1070.0" y="1718.0"/>
      <point x="1110.0" y="1758.0" type="curve"/>
      <point x="1110.0" y="1826.0" type="line"/>
      <point x="1062.0" y="1778.0"/>
      <point x="1010.0" y="1756.0"/>
      <point x="934.0" y="1756.0" type="curve" smooth="yes"/>
      <point x="832.0" y="1756.0"/>
      <point x="738.0" y="1830.0"/>
      <point x="614.0" y="1830.0" type="curve" smooth="yes"/>
      <point x="534.0" y="1830.0"/>
      <point x="478.0" y="1810.0"/>
      <point x="438.0" y="1770.0" type="curve"/>
      <point x="438.0" y="1702.0" type="line"/>
      <point x="486.0" y="1750.0"/>
      <point x="538.0" y="1772.0"/>
      <point x="614.0" y="1772.0" type="curve" smooth="yes"/>
      <point x="716.0" y="1772.0"/>
      <point x="810.0" y="1698.0"/>
    </contour>
  </outline>
</glyph>
<glyph name="utilde" format="2">
  <advance width="1234.0"/>
  <unicode hex="0169"/>
  <anchor x="608.0" y="1200.0" name="_top"/>
  <anchor x="608.0" y="0.0" name="bottom"/>
  <anchor x="1038.0" y="0.0" name="ogonek"/>
  <anchor x="608.0" y="1200.0" name="top"/>
  <anchor x="970.0" y="1080.0" name="topright"/>
  <outline>
    <contour>
      <point x="558.0" y="-18.0" type="curve" smooth="yes"/>
      <point x="710.0" y="-18.0"/>
      <point x="854.0" y="32.0"/>
      <point x="964.0" y="128.0" type="curve"/>
      <point x="972.0" y="128.0" type="line"/>
      <point x="978.0" y="0.0" type="line"/>
      <point x="1038.0" y="0.0" type="line"/>
      <point x="1038.0" y="1080.0" type="line"/>
      <point x="970.0" y="1080.0" type="line"/>
      <point x="970.0" y="224.0" type="line"/>
      <point x="856.0" y="102.0"/>
      <point x="700.0" y="48.0"/>
      <point x="560.0" y="48.0" type="curve" smooth="yes"/>
      <point x="374.0" y="48.0"/>
      <point x="246.0" y="132.0"/>
      <point x="246.0" y="372.0" type="curve" smooth="yes"/>
      <point x="246.0" y="1080.0" type="line"/>
      <point x="178.0" y="1080.0" type="line"/>
      <point x="178.0" y="370.0" type="line" smooth="yes"/>
      <point x="178.0" y="90.0"/>
      <point x="332.0" y="-18.0"/>
    </contour>
    <contour>
      <point x="758.0" y="1380.0" type="curve" smooth="yes"/>
      <point x="828.0" y="1380.0"/>
      <point x="884.0" y="1400.0"/>
      <point x="924.0" y="1440.0" type="curve"/>
      <point x="924.0" y="1508.0" type="line"/>
      <point x="876.0" y="1460.0"/>
      <point x="824.0" y="1438.0"/>
      <point x="758.0" y="1438.0" type="curve" smooth="yes"/>
      <point x="666.0" y="1438.0"/>
      <point x="572.0" y="1512.0"/>
      <point x="458.0" y="1512.0" type="curve" smooth="yes"/>
      <point x="388.0" y="1512.0"/>
      <point x="332.0" y="1492.0"/>
      <point x="292.0" y="1452.0" type="curve"/>
      <point x="292.0" y="1384.0" type="line"/>
      <point x="340.0" y="1432.0"/>
      <point x="392.0" y="1454.0"/>
      <point x="458.0" y="1454.0" type="curve" smooth="yes"/>
      <point x="550.0" y="1454.0"/>
      <point x="644.0" y="1380.0"/>
    </contour>
  </outline>
</glyph>
<glyph name="ubreve" format="2">
  <advance width="1234.0"/>
  <unicode hex="016D"/>
  <anchor x="608.0" y="1200.0" name="_top"/>
  <anchor x="608.0" y="0.0" name="bottom"/>
  <anchor x="1038.0" y="0.0" name="ogonek"/>
  <anchor x="608.0" y="1200.0" name="top"/>
  <anchor x="970.0" y="1080.0" name="topright"/>
  <outline>
    <contour>
      <point x="558.0" y="-18.0" type="curve" smooth="yes"/>
      <point x="710.0" y="-18.0"/>
      <point x="854.0" y="32.0"/>
      <point x="964.0" y="128.0" type="curve"/>
      <point x="972.0" y="128.0" type="line"/>
      <point x="978.0" y="0.0" type="line"/>
      <point x="1038.0" y="0.0" type="line"/>
      <point x="1038.0" y="1080.0" type="line"/>
      <point x="970.0" y="1080.0" type="line"/>
      <point x="970.0" y="224.0" type="line"/>
      <point x="856.0" y="102.0"/>
      <point x="700.0" y="48.0"/>
      <point x="560.0" y="48.0" type="curve" smooth="yes"/>
      <point x="374.0" y="48.0"/>
      <point x="246.0" y="132.0"/>
      <point x="246.0" y="372.0" type="curve" smooth="yes"/>
      <point x="246.0" y="1080.0" type="line"/>
      <point x="178.0" y="1080.0" type="line"/>
      <point x="178.0" y="370.0" type="line" smooth="yes"/>
      <point x="178.0" y="90.0"/>
      <point x="332.0" y="-18.0"/>
    </contour>
    <contour>
      <point x="610.0" y="1276.0" type="curve" smooth="yes"/>
      <point x="802.0" y="1276.0"/>
      <point x="902.0" y="1406.0"/>
      <point x="910.0" y="1588.0" type="curve"/>
      <point x="850.0" y="1588.0" type="line"/>
      <point x="840.0" y="1440.0"/>
      <point x="776.0" y="1334.0"/>
      <point x="610.0" y="1334.0" type="curve" smooth="yes"/>
      <point x="444.0" y="1334.0"/>
      <point x="376.0" y="1440.0"/>
      <point x="366.0" y="1588.0" type="curve"/>
      <point x="306.0" y="1588.0" type="line"/>
      <point x="314.0" y="1408.0"/>
      <point x="416.0" y="1276.0"/>
    </contour>
  </outline>
</glyph>
<glyph name="Uring" format="2">
  <advance width="1546.0"/>
  <unicode hex="016E"/>
  <anchor x="774.0" y="1520.0" name="_top"/>
  <anchor x="774.0" y="0.0" name="bottom"/>
  <anchor x="926.0" y="4.0" name="ogonek"/>
  <anchor x="774.0" y="1520.0" name="top"/>
  <anchor x="1272.0" y="1480.0" name="topright"/>
  <outline>
    <contour>
      <point x="774.0" y="-18.0" type="curve" smooth="yes"/>
      <point x="1156.0" y="-18.0"/>
      <point x="1338.0" y="154.0"/>
      <point x="1338.0" y="566.0" type="curve" smooth="yes"/>
      <point x="1338.0" y="1480.0" type="line"/>
      <point x="1272.0" y="1480.0" type="line"/>
      <point x="1272.0" y="556.0" type="line" smooth="yes"/>
      <point x="1272.0" y="198.0"/>
      <point x="1114.0" y="48.0"/>
      <point x="774.0" y="48.0" type="curve" smooth="yes"/>
      <point x="434.0" y="48.0"/>
      <point x="276.0" y="198.0"/>
      <point x="276.0" y="556.0" type="curve" smooth="yes"/>
      <point x="276.0" y="1480.0" type="line"/>
      <point x="208.0" y="1480.0" type="line"/>
      <point x="208.0" y="566.0" type="line" smooth="yes"/>
      <point x="208.0" y="154.0"/>
      <point x="392.0" y="-18.0"/>
    </contour>
    <contour>
      <point x="774.0" y="1612.0" type="curve" smooth="yes"/>
      <point x="880.0" y="1612.0"/>
      <point x="958.0" y="1690.0"/>
      <point x="958.0" y="1796.0" type="curve" smooth="yes"/>
      <point x="958.0" y="1902.0"/>
      <point x="880.0" y="1980.0"/>
      <point x="774.0" y="1980.0" type="curve" smooth="yes"/>
      <point x="668.0" y="1980.0"/>
      <point x="590.0" y="1902.0"/>
      <point x="590.0" y="1796.0" type="curve" smooth="yes"/>
      <point x="590.0" y="1690.0"/>
      <point x="668.0" y="1612.0"/>
    </contour>
    <contour>
      <point x="774.0" y="1664.0" type="curve" smooth="yes"/>
      <point x="698.0" y="1664.0"/>
      <point x="644.0" y="1714.0"/>
      <point x="644.0" y="1796.0" type="curve" smooth="yes"/>
      <point x="644.0" y="1878.0"/>
      <point x="698.0" y="1928.0"/>
      <point x="774.0" y="1928.0" type="curve" smooth="yes"/>
      <point x="850.0" y="1928.0"/>
      <point x="904.0" y="1878.0"/>
      <point x="904.0" y="1796.0" type="curve" smooth="yes"/>
      <point x="904.0" y="1714.0"/>
      <point x="850.0" y="1664.0"/>
    </contour>
  </outline>
</glyph>
<glyph name="uring" format="2">
  <advance width="1234.0"/>
  <unicode hex="016F"/>
  <anchor x="608.0" y="1200.0" name="_top"/>
  <anchor x="608.0" y="0.0" name="bottom"/>
  <anchor x="1038.0" y="0.0" name="ogonek"/>
  <anchor x="608.0" y="1200.0" name="top"/>
  <anchor x="970.0" y="1080.0" name="topright"/>
  <outline>
    <contour>
      <point x="558.0" y="-18.0" type="curve" smooth="yes"/>
      <point x="710.0" y="-18.0"/>
      <point x="854.0" y="32.0"/>
      <point x="964.0" y="128.0" type="curve"/>
      <point x="972.0" y="128.0" type="line"/>
      <point x="978.0" y="0.0" type="line"/>
      <point x="1038.0" y="0.0" type="line"/>
      <point x="1038.0" y="1080.0" type="line"/>
      <point x="970.0" y="1080.0" type="line"/>
      <point x="970.0" y="224.0" type="line"/>
      <point x="856.0" y="102.0"/>
      <point x="700.0" y="48.0"/>
      <point x="560.0" y="48.0" type="curve" smooth="yes"/>
      <point x="374.0" y="48.0"/>
      <point x="246.0" y="132.0"/>
      <point x="246.0" y="372.0" type="curve" smooth="yes"/>
      <point x="246.0" y="1080.0" type="line"/>
      <point x="178.0" y="1080.0" type="line"/>
      <point x="178.0" y="370.0" type="line" smooth="yes"/>
      <point x="178.0" y="90.0"/>
      <point x="332.0" y="-18.0"/>
    </contour>
    <contour>
      <point x="608.0" y="1260.0" type="curve" smooth="yes"/>
      <point x="714.0" y="1260.0"/>
      <point x="792.0" y="1338.0"/>
      <point x="792.0" y="1444.0" type="curve" smooth="yes"/>
      <point x="792.0" y="1550.0"/>
      <point x="714.0" y="1628.0"/>
      <point x="608.0" y="1628.0" type="curve" smooth="yes"/>
      <point x="502.0" y="1628.0"/>
      <point x="424.0" y="1550.0"/>
      <point x="424.0" y="1444.0" type="curve" smooth="yes"/>
      <point x="424.0" y="1338.0"/>
      <point x="502.0" y="1260.0"/>
    </contour>
    <contour>
      <point x="608.0" y="1312.0" type="curve" smooth="yes"/>
      <point x="532.0" y="1312.0"/>
      <point x="478.0" y="1362.0"/>
      <point x="478.0" y="1444.0" type="curve" smooth="yes"/>
      <point x="478.0" y="1526.0"/>
      <point x="532.0" y="1576.0"/>
      <point x="608.0" y="1576.0" type="curve" smooth="yes"/>
      <point x="684.0" y="1576.0"/>
      <point x="738.0" y="1526.0"/>
      <point x="738.0" y="1444.0" type="curve" smooth="yes"/>
      <point x="738.0" y="1362.0"/>
      <point x="684.0" y="1312.0"/>
    </contour>
  </outline>
</glyph>
<glyph name="wcircumflex" format="2">
  <advance width="1804.0"/>
  <unicode hex="0175"/>
  <anchor x="904.0" y="1200.0" name="_top"/>
  <anchor x="904.0" y="0.0" name="bottom"/>
  <anchor x="904.0" y="1200.0" name="top"/>
  <outline>
    <contour>
      <point x="460.0" y="0.0" type="line"/>
      <point x="554.0" y="0.0" type="line"/>
      <point x="912.0" y="1038.0" type="line"/>
      <point x="892.0" y="1038.0" type="line"/>
      <point x="1252.0" y="0.0" type="line"/>
      <point x="1346.0" y="0.0" type="line"/>
      <point x="1716.0" y="1080.0" type="line"/>
      <point x="1644.0" y="1080.0" type="line"/>
      <point x="1292.0" y="40.0" type="line"/>
      <point x="1308.0" y="40.0" type="line"/>
      <point x="950.0" y="1080.0" type="line"/>
      <point x="856.0" y="1080.0" type="line"/>
      <point x="500.0" y="40.0" type="line"/>
      <point x="516.0" y="40.0" type="line"/>
      <point x="162.0" y="1080.0" type="line"/>
      <point x="88.0" y="1080.0" type="line"/>
    </contour>
    <contour>
      <point x="606.0" y="1264.0" type="line"/>
      <point x="684.0" y="1264.0" type="line"/>
      <point x="922.0" y="1592.0" type="line"/>
      <point x="886.0" y="1592.0" type="line"/>
      <point x="1124.0" y="1264.0" type="line"/>
      <point x="1202.0" y="1264.0" type="line"/>
      <point x="942.0" y="1616.0" type="line"/>
      <point x="866.0" y="1616.0" type="line"/>
    </contour>
  </outline>
</glyph>
<glyph name="ycircumflex" format="2">
  <advance width="1132.0"/>
  <unicode hex="0177"/>
  <anchor x="568.0" y="1200.0" name="_top"/>
  <anchor x="810.0" y="0.0" name="bottom"/>
  <anchor x="568.0" y="1200.0" name="top"/>
  <outline>
    <contour>
      <point x="344.0" y="-440.0" type="line"/>
      <point x="416.0" y="-440.0" type="line"/>
      <point x="1094.0" y="1080.0" type="line"/>
      <point x="1024.0" y="1080.0" type="line"/>
      <point x="562.0" y="38.0" type="line"/>
      <point x="540.0" y="0.0" type="line"/>
    </contour>
    <contour>
      <point x="520.0" y="0.0" type="line"/>
      <point x="590.0" y="0.0" type="line"/>
      <point x="114.0" y="1080.0" type="line"/>
      <point x="38.0" y="1080.0" type="line"/>
    </contour>
    <contour>
      <point x="270.0" y="1264.0" type="line"/>
      <point x="348.0" y="1264.0" type="line"/>
      <point x="586.0" y="1592.0" type="line"/>
      <point x="550.0" y="1592.0" type="line"/>
      <point x="788.0" y="1264.0" type="line"/>
      <point x="866.0" y="1264.0" type="line"/>
      <point x="606.0" y="1616.0" type="line"/>
      <point x="530.0" y="1616.0" type="line"/>
    </contour>
  </outline>
</glyph>
<glyph name="Zacute" format="2">
  <advance width="1256.0"/>
  <unicode hex="0179"/>
  <anchor x="628.0" y="1520.0" name="_top"/>
  <anchor x="628.0" y="0.0" name="bottom"/>
  <anchor x="628.0" y="1520.0" name="top"/>
  <outline>
    <contour>
      <point x="70.0" y="0.0" type="line"/>
      <point x="1186.0" y="0.0" type="line"/>
      <point x="1186.0" y="64.0" type="line"/>
      <point x="140.0" y="64.0" type="line"/>
      <point x="152.0" y="40.0" type="line"/>
      <point x="1172.0" y="1440.0" type="line"/>
      <point x="1172.0" y="1480.0" type="line"/>
      <point x="84.0" y="1480.0" type="line"/>
      <point x="84.0" y="1416.0" type="line"/>
      <point x="1102.0" y="1416.0" type="line"/>
      <point x="1090.0" y="1440.0" type="line"/>
      <point x="70.0" y="40.0" type="line"/>
    </contour>
    <contour>
      <point x="592.0" y="1616.0" type="line"/>
      <point x="664.0" y="1616.0" type="line"/>
      <point x="900.0" y="1888.0" type="line"/>
      <point x="814.0" y="1888.0" type="line"/>
    </contour>
  </outline>
</glyph>
<glyph name="zacute" format="2">
  <advance width="988.0"/>
  <unicode hex="017A"/>
  <anchor x="496.0" y="1200.0" name="_top"/>
  <anchor x="496.0" y="0.0" name="bottom"/>
  <anchor x="496.0" y="1200.0" name="top"/>
  <outline>
    <contour>
      <point x="68.0" y="0.0" type="line"/>
      <point x="924.0" y="0.0" type="line"/>
      <point x="924.0" y="64.0" type="line"/>
      <point x="150.0" y="64.0" type="line"/>
      <point x="150.0" y="40.0" type="line"/>
      <point x="910.0" y="1040.0" type="line"/>
      <point x="910.0" y="1080.0" type="line"/>
      <point x="82.0" y="1080.0" type="line"/>
      <point x="82.0" y="1016.0" type="line"/>
      <point x="828.0" y="1016.0" type="line"/>
      <point x="828.0" y="1040.0" type="line"/>
      <point x="68.0" y="40.0" type="line"/>
    </contour>
    <contour>
      <point x="460.0" y="1264.0" type="line"/>
      <point x="532.0" y="1264.0" type="line"/>
      <point x="812.0" y="1616.0" type="line"/>
      <point x="728.0" y="1616.0" type="line"/>
    </contour>
  </outline>
</glyph>
<glyph name="Zdotaccent" format="2">
  <advance width="1256.0"/>
  <unicode hex="017B"/>
  <anchor x="628.0" y="1520.0" name="_top"/>
  <anchor x="628.0" y="0.0" name="bottom"/>
  <anchor x="628.0" y="1520.0" name="top"/>
  <outline>
    <contour>
      <point x="70.0" y="0.0" type="line"/>
      <point x="1186.0" y="0.0" type="line"/>
      <point x="1186.0" y="64.0" type="line"/>
      <point x="140.0" y="64.0" type="line"/>
      <point x="152.0" y="40.0" type="line"/>
      <point x="1172.0" y="1440.0" type="line"/>
      <point x="1172.0" y="1480.0" type="line"/>
      <point x="84.0" y="1480.0" type="line"/>
      <point x="84.0" y="1416.0" type="line"/>
      <point x="1102.0" y="1416.0" type="line"/>
      <point x="1090.0" y="1440.0" type="line"/>
      <point x="70.0" y="40.0" type="line"/>
    </contour>
    <contour>
      <point x="628.0" y="1690.0" type="curve" smooth="yes"/>
      <point x="664.0" y="1690.0"/>
      <point x="690.0" y="1714.0"/>
      <point x="690.0" y="1752.0" type="curve" smooth="yes"/>
      <point x="690.0" y="1790.0"/>
      <point x="664.0" y="1816.0"/>
      <point x="628.0" y="1816.0" type="curve" smooth="yes"/>
      <point x="592.0" y="1816.0"/>
      <point x="566.0" y="1790.0"/>
      <point x="566.0" y="1752.0" type="curve" smooth="yes"/>
      <point x="566.0" y="1714.0"/>
      <point x="592.0" y="1690.0"/>
    </contour>
  </outline>
</glyph>
<glyph name="Zcaron" format="2">
  <advance width="1256.0"/>
  <unicode hex="017D"/>
  <anchor x="628.0" y="1520.0" name="_top"/>
  <anchor x="628.0" y="0.0" name="bottom"/>
  <anchor x="628.0" y="1520.0" name="top"/>
  <outline>
    <contour>
      <point x="70.0" y="0.0" type="line"/>
      <point x="1186.0" y="0.0" type="line"/>
      <point x="1186.0" y="64.0" type="line"/>
      <point x="140.0" y="64.0" type="line"/>
      <point x="152.0" y="40.0" type="line"/>
      <point x="1172.0" y="1440.0" type="line"/>
      <point x="1172.0" y="1480.0" type="line"/>
      <point x="84.0" y="1480.0" type="line"/>
      <point x="84.0" y="1416.0" type="line"/>
      <point x="1102.0" y="1416.0" type="line"/>
      <point x="1090.0" y="1440.0" type="line"/>
      <point x="70.0" y="40.0" type="line"/>
    </contour>
    <contour>
      <point x="590.0" y="1616.0" type="line"/>
      <point x="666.0" y="1616.0" type="line"/>
      <point x="950.0" y="1888.0" type="line"/>
      <point x="858.0" y="1888.0" type="line"/>
      <point x="610.0" y="1644.0" type="line"/>
      <point x="646.0" y="1644.0" type="line"/>
      <point x="398.0" y="1888.0" type="line"/>
      <point x="306.0" y="1888.0" type="line"/>
    </contour>
  </outline>
</glyph>
<glyph name="zcaron" format="2">
  <advance width="988.0"/>
  <unicode hex="017E"/>
  <anchor x="496.0" y="1200.0" name="_top"/>
  <anchor x="496.0" y="0.0" name="bottom"/>
  <anchor x="496.0" y="1200.0" name="top"/>
  <outline>
    <contour>
      <point x="68.0" y="0.0" type="line"/>
      <point x="924.0" y="0.0" type="line"/>
      <point x="924.0" y="64.0" type="line"/>
      <point x="150.0" y="64.0" type="line"/>
      <point x="150.0" y="40.0" type="line"/>
      <point x="910.0" y="1040.0" type="line"/>
      <point x="910.0" y="1080.0" type="line"/>
      <point x="82.0" y="1080.0" type="line"/>
      <point x="82.0" y="1016.0" type="line"/>
      <point x="828.0" y="1016.0" type="line"/>
      <point x="828.0" y="1040.0" type="line"/>
      <point x="68.0" y="40.0" type="line"/>
    </contour>
    <contour>
      <point x="458.0" y="1264.0" type="line"/>
      <point x="534.0" y="1264.0" type="line"/>
      <point x="802.0" y="1616.0" type="line"/>
      <point x="724.0" y="1616.0" type="line"/>
      <point x="478.0" y="1286.0" type="line"/>
      <point x="514.0" y="1286.0" type="line"/>
      <point x="268.0" y="1616.0" type="line"/>
      <point x="190.0" y="1616.0" type="line"/>
    </contour>
  </outline>
</glyph>
<glyph name="DZcaron" format="2">
  <advance width="2728.0"/>
  <unicode hex="01C4"/>
  <anchor x="2100.0" y="1520.0" name="_top"/>
  <anchor x="706.0" y="0.0" name="bottom"/>
  <anchor x="764.0" y="740.0" name="center"/>
  <anchor x="216.0" y="762.0" name="stroke"/>
  <anchor x="706.0" y="1520.0" name="top"/>
  <outline>
    <contour>
      <point x="602.0" y="-10.0" type="curve" smooth="yes"/>
      <point x="1124.0" y="-10.0"/>
      <point x="1392.0" y="238.0"/>
      <point x="1392.0" y="740.0" type="curve" smooth="yes"/>
      <point x="1392.0" y="1242.0"/>
      <point x="1124.0" y="1494.0"/>
      <point x="616.0" y="1494.0" type="curve" smooth="yes"/>
      <point x="494.0" y="1494.0"/>
      <point x="350.0" y="1482.0"/>
      <point x="216.0" y="1454.0" type="curve"/>
      <point x="216.0" y="16.0" type="line"/>
      <point x="370.0" y="-4.0"/>
      <point x="468.0" y="-10.0"/>
    </contour>
    <contour>
      <point x="604.0" y="56.0" type="curve" smooth="yes"/>
      <point x="464.0" y="56.0"/>
      <point x="370.0" y="64.0"/>
      <point x="284.0" y="78.0" type="curve"/>
      <point x="284.0" y="1400.0" type="line"/>
      <point x="402.0" y="1418.0"/>
      <point x="506.0" y="1428.0"/>
      <point x="610.0" y="1428.0" type="curve" smooth="yes"/>
      <point x="1080.0" y="1428.0"/>
      <point x="1320.0" y="1208.0"/>
      <point x="1320.0" y="740.0" type="curve" smooth="yes"/>
      <point x="1320.0" y="272.0"/>
      <point x="1080.0" y="56.0"/>
    </contour>
    <contour>
      <point x="1542.0" y="0.0" type="line"/>
      <point x="2658.0" y="0.0" type="line"/>
      <point x="2658.0" y="64.0" type="line"/>
      <point x="1612.0" y="64.0" type="line"/>
      <point x="1624.0" y="40.0" type="line"/>
      <point x="2644.0" y="1440.0" type="line"/>
      <point x="2644.0" y="1480.0" type="line"/>
      <point x="1556.0" y="1480.0" type="line"/>
      <point x="1556.0" y="1416.0" type="line"/>
      <point x="2574.0" y="1416.0" type="line"/>
      <point x="2562.0" y="1440.0" type="line"/>
      <point x="1542.0" y="40.0" type="line"/>
    </contour>
    <contour>
      <point x="2062.0" y="1616.0" type="line"/>
      <point x="2138.0" y="1616.0" type="line"/>
      <point x="2422.0" y="1888.0" type="line"/>
      <point x="2330.0" y="1888.0" type="line"/>
      <point x="2082.0" y="1644.0" type="line"/>
      <point x="2118.0" y="1644.0" type="line"/>
      <point x="1870.0" y="1888.0" type="line"/>
      <point x="1778.0" y="1888.0" type="line"/>
    </contour>
  </outline>
</glyph>
<glyph name="dzcaron" format="2">
  <advance width="2216.0"/>
  <unicode hex="01C6"/>
  <anchor x="1724.0" y="1200.0" name="_top"/>
  <anchor x="612.0" y="0.0" name="bottom"/>
  <anchor x="1172.0" y="1616.0" name="caronalt"/>
  <anchor x="612.0" y="540.0" name="center"/>
  <anchor x="1032.0" y="1356.0" name="stroke"/>
  <anchor x="612.0" y="1200.0" name="top"/>
  <anchor x="1172.0" y="1080.0" name="topright"/>
  <outline>
    <contour>
      <point x="600.0" y="-18.0" type="curve" smooth="yes"/>
      <point x="746.0" y="-18.0"/>
      <point x="874.0" y="38.0"/>
      <point x="958.0" y="132.0" type="curve"/>
      <point x="966.0" y="132.0" type="line"/>
      <point x="972.0" y="0.0" type="line"/>
      <point x="1032.0" y="0.0" type="line"/>
      <point x="1032.0" y="1616.0" type="line"/>
      <point x="964.0" y="1616.0" type="line"/>
      <point x="964.0" y="1070.0" type="line"/>
      <point x="892.0" y="1084.0"/>
      <point x="800.0" y="1096.0"/>
      <point x="706.0" y="1096.0" type="curve" smooth="yes"/>
      <point x="322.0" y="1096.0"/>
      <point x="128.0" y="906.0"/>
      <point x="128.0" y="518.0" type="curve" smooth="yes"/>
      <point x="128.0" y="144.0"/>
      <point x="324.0" y="-18.0"/>
    </contour>
    <contour>
      <point x="604.0" y="48.0" type="curve" smooth="yes"/>
      <point x="360.0" y="48.0"/>
      <point x="200.0" y="178.0"/>
      <point x="200.0" y="526.0" type="curve" smooth="yes"/>
      <point x="200.0" y="872.0"/>
      <point x="364.0" y="1030.0"/>
      <point x="702.0" y="1030.0" type="curve" smooth="yes"/>
      <point x="796.0" y="1030.0"/>
      <point x="892.0" y="1018.0"/>
      <point x="964.0" y="998.0" type="curve"/>
      <point x="964.0" y="226.0" type="line"/>
      <point x="868.0" y="96.0"/>
      <point x="736.0" y="48.0"/>
    </contour>
    <contour>
      <point x="1296.0" y="0.0" type="line"/>
      <point x="2152.0" y="0.0" type="line"/>
      <point x="2152.0" y="64.0" type="line"/>
      <point x="1378.0" y="64.0" type="line"/>
      <point x="1378.0" y="40.0" type="line"/>
      <point x="2138.0" y="1040.0" type="line"/>
      <point x="2138.0" y="1080.0" type="line"/>
      <point x="1310.0" y="1080.0" type="line"/>
      <point x="1310.0" y="1016.0" type="line"/>
      <point x="2056.0" y="1016.0" type="line"/>
      <point x="2056.0" y="1040.0" type="line"/>
      <point x="1296.0" y="40.0" type="line"/>
    </contour>
    <contour>
      <point x="1686.0" y="1264.0" type="line"/>
      <point x="1762.0" y="1264.0" type="line"/>
      <point x="2030.0" y="1616.0" type="line"/>
      <point x="1952.0" y="1616.0" type="line"/>
      <point x="1706.0" y="1286.0" type="line"/>
      <point x="1742.0" y="1286.0" type="line"/>
      <point x="1496.0" y="1616.0" type="line"/>
      <point x="1418.0" y="1616.0" type="line"/>
    </contour>
  </outline>
</glyph>
<glyph name="LJ" format="2">
  <advance width="1664.0"/>
  <unicode hex="01C7"/>
  <anchor x="680.0" y="0.0" name="bottom"/>
  <anchor x="754.0" y="1616.0" name="caronalt"/>
  <anchor x="814.0" y="774.0" name="periodcentered"/>
  <anchor x="250.0" y="774.0" name="slash"/>
  <anchor x="250.0" y="1520.0" name="top"/>
  <outline>
    <contour>
      <point x="216.0" y="0.0" type="line"/>
      <point x="1142.0" y="0.0" type="line"/>
      <point x="1142.0" y="66.0" type="line"/>
      <point x="284.0" y="66.0" type="line"/>
      <point x="284.0" y="1480.0" type="line"/>
      <point x="216.0" y="1480.0" type="line"/>
    </contour>
    <contour>
      <point x="1216.0" y="-340.0" type="line"/>
      <point x="1376.0" y="-148.0"/>
      <point x="1434.0" y="22.0"/>
      <point x="1448.0" y="250.0" type="curve"/>
      <point x="1448.0" y="1480.0" type="line"/>
      <point x="1380.0" y="1480.0" type="line"/>
      <point x="1380.0" y="286.0" type="line" smooth="yes"/>
      <point x="1380.0" y="56.0"/>
      <point x="1314.0" y="-128.0"/>
      <point x="1168.0" y="-304.0" type="curve"/>
    </contour>
  </outline>
</glyph>
<glyph name="lj" format="2">
  <advance width="920.0"/>
  <unicode hex="01C9"/>
  <anchor x="690.0" y="1212.0" name="_top"/>
  <anchor x="230.0" y="0.0" name="bottom"/>
  <anchor x="404.0" y="1616.0" name="caronalt"/>
  <anchor x="444.0" y="794.0" name="periodcentered"/>
  <anchor x="230.0" y="714.0" name="slash"/>
  <anchor x="230.0" y="1616.0" name="top"/>
  <outline>
    <contour>
      <point x="196.0" y="0.0" type="line"/>
      <point x="264.0" y="0.0" type="line"/>
      <point x="264.0" y="1616.0" type="line"/>
      <point x="196.0" y="1616.0" type="line"/>
    </contour>
    <contour>
      <point x="492.0" y="-460.0" type="line"/>
      <point x="652.0" y="-268.0"/>
      <point x="724.0" y="-78.0"/>
      <point x="724.0" y="170.0" type="curve" smooth="yes"/>
      <point x="724.0" y="1080.0" type="line"/>
      <point x="656.0" y="1080.0" type="line"/>
      <point x="656.0" y="166.0" type="line" smooth="yes"/>
      <point x="656.0" y="-64.0"/>
      <point x="590.0" y="-248.0"/>
      <point x="444.0" y="-424.0" type="curve"/>
    </contour>
    <contour>
      <point x="690.0" y="1372.0" type="curve" smooth="yes"/>
      <point x="726.0" y="1372.0"/>
      <point x="752.0" y="1396.0"/>
      <point x="752.0" y="1434.0" type="curve" smooth="yes"/>
      <point x="752.0" y="1472.0"/>
      <point x="726.0" y="1498.0"/>
      <point x="690.0" y="1498.0" type="curve" smooth="yes"/>
      <point x="654.0" y="1498.0"/>
      <point x="628.0" y="1472.0"/>
      <point x="628.0" y="1434.0" type="curve" smooth="yes"/>
      <point x="628.0" y="1396.0"/>
      <point x="654.0" y="1372.0"/>
    </contour>
  </outline>
</glyph>
<glyph name="Nj" format="2">
  <advance width="2066.0"/>
  <unicode hex="01CB"/>
  <anchor x="804.0" y="0.0" name="bottom"/>
  <anchor x="804.0" y="1520.0" name="top"/>
  <outline>
    <contour>
      <point x="216.0" y="0.0" type="line"/>
      <point x="282.0" y="0.0" type="line"/>
      <point x="282.0" y="1420.0" type="line"/>
      <point x="252.0" y="1420.0" type="line"/>
      <point x="1316.0" y="0.0" type="line"/>
      <point x="1390.0" y="0.0" type="line"/>
      <point x="1390.0" y="1480.0" type="line"/>
      <point x="1324.0" y="1480.0" type="line"/>
      <point x="1324.0" y="60.0" type="line"/>
      <point x="1354.0" y="60.0" type="line"/>
      <point x="290.0" y="1480.0" type="line"/>
      <point x="216.0" y="1480.0" type="line"/>
    </contour>
    <component base="jdotless" xOffset="1606.0"/>
    <component base="dotaccentcomb" xOffset="1236.0" yOffset="12.0"/>
  </outline>
</glyph>
<glyph name="nj" format="2">
  <advance width="1704.0"/>
  <unicode hex="01CC"/>
  <anchor x="1474.0" y="1212.0" name="_top"/>
  <anchor x="16.0" y="1200.0" name="apostrophe"/>
  <anchor x="632.0" y="0.0" name="bottom"/>
  <anchor x="632.0" y="1200.0" name="top"/>
  <outline>
    <contour>
      <point x="196.0" y="0.0" type="line"/>
      <point x="264.0" y="0.0" type="line"/>
      <point x="264.0" y="856.0" type="line"/>
      <point x="382.0" y="984.0"/>
      <point x="546.0" y="1030.0"/>
      <point x="678.0" y="1030.0" type="curve" smooth="yes"/>
      <point x="876.0" y="1030.0"/>
      <point x="998.0" y="942.0"/>
      <point x="998.0" y="702.0" type="curve" smooth="yes"/>
      <point x="998.0" y="0.0" type="line"/>
      <point x="1066.0" y="0.0" type="line"/>
      <point x="1066.0" y="700.0" type="line" smooth="yes"/>
      <point x="1066.0" y="986.0"/>
      <point x="912.0" y="1096.0"/>
      <point x="678.0" y="1096.0" type="curve" smooth="yes"/>
      <point x="528.0" y="1096.0"/>
      <point x="382.0" y="1044.0"/>
      <point x="270.0" y="946.0" type="curve"/>
      <point x="262.0" y="946.0" type="line"/>
      <point x="256.0" y="1080.0" type="line"/>
      <point x="196.0" y="1080.0" type="line"/>
    </contour>
    <contour>
      <point x="1276.0" y="-460.0" type="line"/>
      <point x="1436.0" y="-268.0"/>
      <point x="1508.0" y="-78.0"/>
      <point x="1508.0" y="170.0" type="curve" smooth="yes"/>
      <point x="1508.0" y="1080.0" type="line"/>
      <point x="1440.0" y="1080.0" type="line"/>
      <point x="1440.0" y="166.0" type="line" smooth="yes"/>
      <point x="1440.0" y="-64.0"/>
      <point x="1374.0" y="-248.0"/>
      <point x="1228.0" y="-424.0" type="curve"/>
    </contour>
    <contour>
      <point x="1474.0" y="1372.0" type="curve" smooth="yes"/>
      <point x="1510.0" y="1372.0"/>
      <point x="1536.0" y="1396.0"/>
      <point x="1536.0" y="1434.0" type="curve" smooth="yes"/>
      <point x="1536.0" y="1472.0"/>
      <point x="1510.0" y="1498.0"/>
      <point x="1474.0" y="1498.0" type="curve" smooth="yes"/>
      <point x="1438.0" y="1498.0"/>
      <point x="1412.0" y="1472.0"/>
      <point x="1412.0" y="1434.0" type="curve" smooth="yes"/>
      <point x="1412.0" y="1396.0"/>
      <point x="1438.0" y="1372.0"/>
    </contour>
  </outline>
</glyph>
<glyph name="Oogonek" format="2">
  <advance width="1572.0"/>
  <unicode hex="01EA"/>
  <outline>
    <contour>
      <point x="916.0" y="-400.0" type="curve" smooth="yes"/>
      <point x="978.0" y="-400.0"/>
      <point x="1042.0" y="-386.0"/>
      <point x="1104.0" y="-360.0" type="curve"/>
      <point x="1104.0" y="-306.0" type="line"/>
      <point x="1026.0" y="-334.0"/>
      <point x="974.0" y="-348.0"/>
      <point x="912.0" y="-348.0" type="curve" smooth="yes"/>
      <point x="808.0" y="-348.0"/>
      <point x="752.0" y="-304.0"/>
      <point x="752.0" y="-228.0" type="curve" smooth="yes"/>
      <point x="752.0" y="-142.0"/>
      <point x="804.0" y="-58.0"/>
      <point x="1036.0" y="20.0" type="curve" smooth="yes"/>
      <point x="1262.0" y="96.0"/>
      <point x="1434.0" y="308.0"/>
      <point x="1434.0" y="740.0" type="curve" smooth="yes"/>
      <point x="1434.0" y="1284.0"/>
      <point x="1162.0" y="1498.0"/>
      <point x="786.0" y="1498.0" type="curve" smooth="yes"/>
      <point x="410.0" y="1498.0"/>
      <point x="138.0" y="1272.0"/>
      <point x="138.0" y="740.0" type="curve" smooth="yes"/>
      <point x="138.0" y="208.0"/>
      <point x="402.0" y="-18.0"/>
      <point x="794.0" y="-18.0" type="curve" smooth="yes"/>
      <point x="864.0" y="-18.0" type="line"/>
      <point x="864.0" y="-2.0" type="line"/>
      <point x="736.0" y="-66.0"/>
      <point x="694.0" y="-142.0"/>
      <point x="694.0" y="-230.0" type="curve" smooth="yes"/>
      <point x="694.0" y="-336.0"/>
      <point x="774.0" y="-400.0"/>
    </contour>
    <contour>
      <point x="786.0" y="50.0" type="curve" smooth="yes"/>
      <point x="446.0" y="50.0"/>
      <point x="210.0" y="242.0"/>
      <point x="210.0" y="744.0" type="curve" smooth="yes"/>
      <point x="210.0" y="1238.0"/>
      <point x="446.0" y="1430.0"/>
      <point x="786.0" y="1430.0" type="curve" smooth="yes"/>
      <point x="1126.0" y="1430.0"/>
      <point x="1362.0" y="1238.0"/>
      <point x="1362.0" y="736.0" type="curve" smooth="yes"/>
      <point x="1362.0" y="242.0"/>
      <point x="1126.0" y="50.0"/>
    </contour>
  </outline>
</glyph>
<glyph name="Aringacute" format="2">
  <advance width="1442.0"/>
  <unicode hex="01FA"/>
  <anchor x="724.0" y="1340.0" name="_top"/>
  <anchor x="722.0" y="0.0" name="bottom"/>
  <anchor x="1394.0" y="0.0" name="ogonek"/>
  <anchor x="722.0" y="1520.0" name="top"/>
  <outline>
    <contour>
      <point x="48.0" y="0.0" type="line"/>
      <point x="122.0" y="0.0" type="line"/>
      <point x="732.0" y="1440.0" type="line"/>
      <point x="708.0" y="1440.0" type="line"/>
      <point x="1318.0" y="0.0" type="line"/>
      <point x="1394.0" y="0.0" type="line"/>
      <point x="764.0" y="1480.0" type="line"/>
      <point x="678.0" y="1480.0" type="line"/>
    </contour>
    <contour>
      <point x="322.0" y="528.0" type="line"/>
      <point x="1120.0" y="528.0" type="line"/>
      <point x="1100.0" y="594.0" type="line"/>
      <point x="342.0" y="594.0" type="line"/>
    </contour>
    <contour>
      <point x="724.0" y="1432.0" type="curve" smooth="yes"/>
      <point x="830.0" y="1432.0"/>
      <point x="908.0" y="1510.0"/>
      <point x="908.0" y="1616.0" type="curve" smooth="yes"/>
      <point x="908.0" y="1722.0"/>
      <point x="830.0" y="1800.0"/>
      <point x="724.0" y="1800.0" type="curve" smooth="yes"/>
      <point x="618.0" y="1800.0"/>
      <point x="540.0" y="1722.0"/>
      <point x="540.0" y="1616.0" type="curve" smooth="yes"/>
      <point x="540.0" y="1510.0"/>
      <point x="618.0" y="1432.0"/>
    </contour>
    <contour>
      <point x="724.0" y="1484.0" type="curve" smooth="yes"/>
      <point x="648.0" y="1484.0"/>
      <point x="594.0" y="1534.0"/>
      <point x="594.0" y="1616.0" type="curve" smooth="yes"/>
      <point x="594.0" y="1698.0"/>
      <point x="648.0" y="1748.0"/>
      <point x="724.0" y="1748.0" type="curve" smooth="yes"/>
      <point x="800.0" y="1748.0"/>
      <point x="854.0" y="1698.0"/>
      <point x="854.0" y="1616.0" type="curve" smooth="yes"/>
      <point x="854.0" y="1534.0"/>
      <point x="800.0" y="1484.0"/>
    </contour>
    <contour>
      <point x="860.0" y="1728.0" type="line"/>
      <point x="1046.0" y="1908.0" type="line"/>
      <point x="966.0" y="1908.0" type="line"/>
      <point x="812.0" y="1756.0" type="line"/>
    </contour>
  </outline>
</glyph>
<glyph name="aeacute" format="2">
  <advance width="1840.0"/>
  <unicode hex="01FD"/>
  <anchor x="894.0" y="1200.0" name="_top"/>
  <anchor x="894.0" y="0.0" name="bottom"/>
  <anchor x="894.0" y="1200.0" name="top"/>
  <outline>
    <contour>
      <point x="1372.0" y="-18.0" type="curve" smooth="yes"/>
      <point x="1476.0" y="-18.0"/>
      <point x="1576.0" y="0.0"/>
      <point x="1682.0" y="36.0" type="curve"/>
      <point x="1682.0" y="104.0" type="line"/>
      <point x="1574.0" y="68.0"/>
      <point x="1474.0" y="48.0"/>
      <point x="1376.0" y="48.0" type="curve" smooth="yes"/>
      <point x="1098.0" y="48.0"/>
      <point x="928.0" y="192.0"/>
      <point x="928.0" y="536.0" type="curve" smooth="yes"/>
      <point x="928.0" y="548.0" type="line" smooth="yes"/>
      <point x="928.0" y="882.0"/>
      <point x="1064.0" y="1030.0"/>
      <point x="1300.0" y="1030.0" type="curve" smooth="yes"/>
      <point x="1536.0" y="1030.0"/>
      <point x="1664.0" y="880.0"/>
      <point x="1664.0" y="548.0" type="curve"/>
      <point x="1702.0" y="576.0" type="line"/>
      <point x="902.0" y="576.0" type="line"/>
      <point x="902.0" y="510.0" type="line"/>
      <point x="1734.0" y="510.0" type="line"/>
      <point x="1734.0" y="544.0" type="line" smooth="yes"/>
      <point x="1734.0" y="910.0"/>
      <point x="1574.0" y="1096.0"/>
      <point x="1300.0" y="1096.0" type="curve" smooth="yes"/>
      <point x="1026.0" y="1096.0"/>
      <point x="866.0" y="916.0"/>
      <point x="866.0" y="552.0" type="curve"/>
      <point x="860.0" y="544.0" type="line"/>
      <point x="860.0" y="156.0"/>
      <point x="1050.0" y="-18.0"/>
    </contour>
    <contour>
      <point x="480.0" y="-16.0" type="curve" smooth="yes"/>
      <point x="630.0" y="-16.0"/>
      <point x="786.0" y="32.0"/>
      <point x="948.0" y="214.0" type="curve"/>
      <point x="908.0" y="274.0" type="line"/>
      <point x="782.0" y="106.0"/>
      <point x="620.0" y="50.0"/>
      <point x="480.0" y="50.0" type="curve" smooth="yes"/>
      <point x="296.0" y="50.0"/>
      <point x="208.0" y="134.0"/>
      <point x="208.0" y="274.0" type="curve" smooth="yes"/>
      <point x="208.0" y="408.0"/>
      <point x="294.0" y="510.0"/>
      <point x="550.0" y="510.0" type="curve" smooth="yes"/>
      <point x="884.0" y="510.0" type="line"/>
      <point x="884.0" y="576.0" type="line"/>
      <point x="558.0" y="576.0" type="line" smooth="yes"/>
      <point x="250.0" y="576.0"/>
      <point x="134.0" y="446.0"/>
      <point x="134.0" y="270.0" type="curve" smooth="yes"/>
      <point x="134.0" y="90.0"/>
      <point x="266.0" y="-16.0"/>
    </contour>
    <contour>
      <point x="860.0" y="544.0" type="line"/>
      <point x="922.0" y="514.0" type="line"/>
      <point x="922.0" y="738.0" type="line" smooth="yes"/>
      <point x="922.0" y="1012.0"/>
      <point x="774.0" y="1096.0"/>
      <point x="524.0" y="1096.0" type="curve" smooth="yes"/>
      <point x="414.0" y="1096.0"/>
      <point x="290.0" y="1078.0"/>
      <point x="196.0" y="1042.0" type="curve"/>
      <point x="196.0" y="974.0" type="line"/>
      <point x="314.0" y="1016.0"/>
      <point x="432.0" y="1030.0"/>
      <point x="526.0" y="1030.0" type="curve" smooth="yes"/>
      <point x="738.0" y="1030.0"/>
      <point x="860.0" y="972.0"/>
      <point x="860.0" y="736.0" type="curve" smooth="yes"/>
    </contour>
    <contour>
      <point x="858.0" y="1264.0" type="line"/>
      <point x="930.0" y="1264.0" type="line"/>
      <point x="1210.0" y="1616.0" type="line"/>
      <point x="1126.0" y="1616.0" type="line"/>
    </contour>
  </outline>
</glyph>
<glyph name="Oslashacute" format="2">
  <advance width="1572.0"/>
  <unicode hex="01FE"/>
  <anchor x="786.0" y="740.0" name="_center"/>
  <anchor x="780.0" y="0.0" name="bottom"/>
  <anchor x="786.0" y="740.0" name="center"/>
  <anchor x="966.0" y="0.0" name="ogonek"/>
  <anchor x="776.0" y="1520.0" name="top"/>
  <anchor x="50.0" y="1480.0" name="topleft"/>
  <anchor x="964.0" y="1480.0" name="topright"/>
  <outline>
    <contour>
      <point x="786.0" y="-18.0" type="curve" smooth="yes"/>
      <point x="1162.0" y="-18.0"/>
      <point x="1434.0" y="208.0"/>
      <point x="1434.0" y="740.0" type="curve" smooth="yes"/>
      <point x="1434.0" y="1272.0"/>
      <point x="1168.0" y="1498.0"/>
      <point x="786.0" y="1498.0" type="curve" smooth="yes"/>
      <point x="410.0" y="1498.0"/>
      <point x="138.0" y="1272.0"/>
      <point x="138.0" y="740.0" type="curve" smooth="yes"/>
      <point x="138.0" y="208.0"/>
      <point x="404.0" y="-18.0"/>
    </contour>
    <contour>
      <point x="786.0" y="50.0" type="curve" smooth="yes"/>
      <point x="446.0" y="50.0"/>
      <point x="210.0" y="242.0"/>
      <point x="210.0" y="744.0" type="curve" smooth="yes"/>
      <point x="210.0" y="1238.0"/>
      <point x="446.0" y="1430.0"/>
      <point x="786.0" y="1430.0" type="curve" smooth="yes"/>
      <point x="1126.0" y="1430.0"/>
      <point x="1362.0" y="1238.0"/>
      <point x="1362.0" y="736.0" type="curve" smooth="yes"/>
      <point x="1362.0" y="242.0"/>
      <point x="1126.0" y="50.0"/>
    </contour>
    <contour>
      <point x="190.0" y="-16.0" type="line"/>
      <point x="1430.0" y="1456.0" type="line"/>
      <point x="1382.0" y="1496.0" type="line"/>
      <point x="142.0" y="24.0" type="line"/>
    </contour>
    <contour>
      <point x="740.0" y="1616.0" type="line"/>
      <point x="812.0" y="1616.0" type="line"/>
      <point x="1048.0" y="1888.0" type="line"/>
      <point x="962.0" y="1888.0" type="line"/>
    </contour>
  </outline>
</glyph>
<glyph name="Einvertedbreve" format="2">
  <advance width="1284.0"/>
  <unicode hex="0206"/>
  <anchor x="712.0" y="1520.0" name="_top"/>
  <anchor x="716.0" y="0.0" name="bottom"/>
  <anchor x="1096.0" y="0.0" name="ogonek"/>
  <anchor x="712.0" y="1520.0" name="top"/>
  <anchor x="46.0" y="1480.0" name="topleft"/>
  <outline>
    <contour>
      <point x="216.0" y="0.0" type="line"/>
      <point x="1176.0" y="0.0" type="line"/>
      <point x="1176.0" y="66.0" type="line"/>
      <point x="284.0" y="66.0" type="line"/>
      <point x="284.0" y="1414.0" type="line"/>
      <point x="1166.0" y="1414.0" type="line"/>
      <point x="1166.0" y="1480.0" type="line"/>
      <point x="216.0" y="1480.0" type="line"/>
    </contour>
    <contour>
      <point x="256.0" y="728.0" type="line"/>
      <point x="1066.0" y="728.0" type="line"/>
      <point x="1066.0" y="794.0" type="line"/>
      <point x="256.0" y="794.0" type="line"/>
    </contour>
    <contour>
      <point x="390.0" y="1644.0" type="curve"/>
      <point x="450.0" y="1644.0" type="line"/>
      <point x="466.0" y="1746.0"/>
      <point x="528.0" y="1816.0"/>
      <point x="710.0" y="1816.0" type="curve" smooth="yes"/>
      <point x="892.0" y="1816.0"/>
      <point x="958.0" y="1746.0"/>
      <point x="974.0" y="1644.0" type="curve"/>
      <point x="1034.0" y="1644.0" type="line"/>
      <point x="1020.0" y="1772.0"/>
      <point x="922.0" y="1876.0"/>
      <point x="710.0" y="1876.0" type="curve" smooth="yes"/>
      <point x="498.0" y="1876.0"/>
      <point x="404.0" y="1774.0"/>
    </contour>
  </outline>
</glyph>
<glyph name="idblgrave" format="2">
  <advance width="460.0"/>
  <unicode hex="0209"/>
  <anchor x="230.0" y="1200.0" name="_top"/>
  <anchor x="230.0" y="0.0" name="bottom"/>
  <anchor x="264.0" y="0.0" name="ogonek"/>
  <anchor x="230.0" y="1200.0" name="top"/>
  <outline>
    <contour>
      <point x="196.0" y="0.0" type="line"/>
      <point x="264.0" y="0.0" type="line"/>
      <point x="264.0" y="1080.0" type="line"/>
      <point x="196.0" y="1080.0" type="line"/>
    </contour>
    <contour>
      <point x="364.0" y="1264.0" type="line"/>
      <point x="432.0" y="1264.0" type="line"/>
      <point x="250.0" y="1616.0" type="line"/>
      <point x="176.0" y="1616.0" type="line"/>
    </contour>
    <contour>
      <point x="28.0" y="1264.0" type="line"/>
      <point x="96.0" y="1264.0" type="line"/>
      <point x="-86.0" y="1616.0" type="line"/>
      <point x="-160.0" y="1616.0" type="line"/>
    </contour>
  </outline>
</glyph>
<glyph name="Iinvertedbreve" format="2">
  <advance width="500.0"/>
  <unicode hex="020A"/>
  <anchor x="250.0" y="1520.0" name="_top"/>
  <anchor x="250.0" y="0.0" name="bottom"/>
  <anchor x="284.0" y="0.0" name="ogonek"/>
  <anchor x="250.0" y="1520.0" name="top"/>
  <outline>
    <contour>
      <point x="216.0" y="0.0" type="line"/>
      <point x="284.0" y="0.0" type="line"/>
      <point x="284.0" y="1480.0" type="line"/>
      <point x="216.0" y="1480.0" type="line"/>
    </contour>
    <contour>
      <point x="-72.0" y="1644.0" type="curve"/>
      <point x="-12.0" y="1644.0" type="line"/>
      <point x="4.0" y="1746.0"/>
      <point x="66.0" y="1816.0"/>
      <point x="248.0" y="1816.0" type="curve" smooth="yes"/>
      <point x="430.0" y="1816.0"/>
      <point x="496.0" y="1746.0"/>
      <point x="512.0" y="1644.0" type="curve"/>
      <point x="572.0" y="1644.0" type="line"/>
      <point x="558.0" y="1772.0"/>
      <point x="460.0" y="1876.0"/>
      <point x="248.0" y="1876.0" type="curve" smooth="yes"/>
      <point x="36.0" y="1876.0"/>
      <point x="-58.0" y="1774.0"/>
    </contour>
  </outline>
</glyph>
<glyph name="oinvertedbreve" format="2">
  <advance width="1204.0"/>
  <unicode hex="020F"/>
  <anchor x="602.0" y="1200.0" name="_top"/>
  <anchor x="602.0" y="0.0" name="bottom"/>
  <anchor x="602.0" y="540.0" name="center"/>
  <anchor x="748.0" y="0.0" name="ogonek"/>
  <anchor x="602.0" y="1200.0" name="top"/>
  <anchor x="740.0" y="1080.0" name="topright"/>
  <outline>
    <contour>
      <point x="602.0" y="-18.0" type="curve" smooth="yes"/>
      <point x="882.0" y="-18.0"/>
      <point x="1076.0" y="154.0"/>
      <point x="1076.0" y="540.0" type="curve" smooth="yes"/>
      <point x="1076.0" y="934.0"/>
      <point x="886.0" y="1096.0"/>
      <point x="602.0" y="1096.0" type="curve" smooth="yes"/>
      <point x="322.0" y="1096.0"/>
      <point x="128.0" y="926.0"/>
      <point x="128.0" y="540.0" type="curve" smooth="yes"/>
      <point x="128.0" y="146.0"/>
      <point x="318.0" y="-18.0"/>
    </contour>
    <contour>
      <point x="602.0" y="48.0" type="curve" smooth="yes"/>
      <point x="358.0" y="48.0"/>
      <point x="200.0" y="184.0"/>
      <point x="200.0" y="542.0" type="curve" smooth="yes"/>
      <point x="200.0" y="896.0"/>
      <point x="358.0" y="1030.0"/>
      <point x="602.0" y="1030.0" type="curve" smooth="yes"/>
      <point x="846.0" y="1030.0"/>
      <point x="1004.0" y="896.0"/>
      <point x="1004.0" y="538.0" type="curve" smooth="yes"/>
      <point x="1004.0" y="184.0"/>
      <point x="846.0" y="48.0"/>
    </contour>
    <contour>
      <point x="300.0" y="1292.0" type="curve"/>
      <point x="360.0" y="1292.0" type="line"/>
      <point x="370.0" y="1440.0"/>
      <point x="438.0" y="1544.0"/>
      <point x="600.0" y="1544.0" type="curve" smooth="yes"/>
      <point x="762.0" y="1544.0"/>
      <point x="834.0" y="1440.0"/>
      <point x="844.0" y="1292.0" type="curve"/>
      <point x="904.0" y="1292.0" type="line"/>
      <point x="896.0" y="1472.0"/>
      <point x="794.0" y="1604.0"/>
      <point x="600.0" y="1604.0" type="curve" smooth="yes"/>
      <point x="406.0" y="1604.0"/>
      <point x="308.0" y="1474.0"/>
    </contour>
  </outline>
</glyph>
<glyph name="rdblgrave" format="2">
  <advance width="780.0"/>
  <unicode hex="0211"/>
  <anchor x="480.0" y="1200.0" name="_top"/>
  <anchor x="230.0" y="0.0" name="bottom"/>
  <anchor x="480.0" y="1200.0" name="top"/>
  <outline>
    <contour>
      <point x="196.0" y="0.0" type="line"/>
      <point x="264.0" y="0.0" type="line"/>
      <point x="264.0" y="844.0" type="line"/>
      <point x="366.0" y="968.0"/>
      <point x="532.0" y="1018.0"/>
      <point x="650.0" y="1018.0" type="curve" smooth="yes"/>
      <point x="692.0" y="1018.0"/>
      <point x="728.0" y="1016.0"/>
      <point x="764.0" y="1010.0" type="curve"/>
      <point x="764.0" y="1078.0" type="line"/>
      <point x="722.0" y="1086.0"/>
      <point x="692.0" y="1088.0"/>
      <point x="650.0" y="1088.0" type="curve" smooth="yes"/>
      <point x="514.0" y="1088.0"/>
      <point x="362.0" y="1028.0"/>
      <point x="270.0" y="932.0" type="curve"/>
      <point x="262.0" y="932.0" type="line"/>
      <point x="256.0" y="1080.0" type="line"/>
      <point x="196.0" y="1080.0" type="line"/>
    </contour>
    <contour>
      <point x="614.0" y="1264.0" type="line"/>
      <point x="682.0" y="1264.0" type="line"/>
      <point x="500.0" y="1616.0" type="line"/>
      <point x="426.0" y="1616.0" type="line"/>
    </contour>
    <contour>
      <point x="278.0" y="1264.0" type="line"/>
      <point x="346.0" y="1264.0" type="line"/>
      <point x="164.0" y="1616.0" type="line"/>
      <point x="90.0" y="1616.0" type="line"/>
    </contour>
  </outline>
</glyph>
